<svg height="512pt" viewBox="-102 0 512 512" width="512pt" xmlns="http://www.w3.org/2000/svg"><path fill="#1668ac" stroke="#1668ac" d="m214.585938 303.753906c12.101562 0 21.941406-9.84375 21.941406-21.945312 0-12.097656-9.84375-21.941406-21.941406-21.941406h-43.988282v15h23.171875c-.730469 2.183593-1.125 4.519531-1.125 6.941406 0 12.101562 9.84375 21.945312 21.941407 21.945312zm6.941406-21.945312c0 3.828125-3.113282 6.945312-6.941406 6.945312-3.828126 0-6.941407-3.117187-6.941407-6.945312s3.113281-6.941406 6.941407-6.941406c3.828124 0 6.941406 3.113281 6.941406 6.941406zm0 0"/><path fill="#1668ac" stroke="#1668ac" d="m251.757812 194.390625v-15h-129.554687l-4.1875-15.667969h-37.953125v15h26.433594l18.027344 67.46875.035156-.011718.738281 2.757812 1.515625 5.5625h102.78125l16.085938-60.109375zm-21.605468 0-4.027344 15.054687h-23.625v-15.054687zm-42.652344 0v15.054687h-18.621094v-15.054687zm-33.621094 0v15.054687h-23.621094l-4.03125-15.054687zm-15.578125 45.109375-4.03125-15.054688h19.609375v15.054688zm30.578125 0v-15.054688h18.621094v15.054688zm33.621094 0v-15.054688h19.609375l-4.027344 15.054688zm0 0"/><path fill="#1668ac" stroke="#1668ac" d="m244.851562 349.222656-13.535156-13.53125h-13.003906v-1.277344l-9.226562-9.222656h-20.261719v-3.863281l-10.378907-10.378906h-19.808593v-35.390625l-13.800781-13.804688h-17.582032l-13.804687 13.804688v60.683594h-9.429688l-18.039062 18.789062v79.480469l27.46875 27.738281v49.75h103.660156v-49.839844l27.742187-27.472656zm-15 79.210938-27.742187 27.46875v41.097656h-73.660156v-30.335938h22.6875v-15h-27.058594l-23.097656-23.324218v-67.273438l9.429687-9.824218h3.042969v25.757812h15v-95.230469l5.015625-5.015625h5.152344l5.019531 5.015625v95.230469h15v-49.460938l1.589844-1.589843h12.003906l1.589844 1.589843v49.460938h15v-36.808594h14.054687l.4375.4375v36.371094h15v-26.3125h6.792969l4.746094 4.746094v73zm0 0"/><path fill="#1668ac" stroke="#1668ac" d="m23.671875 0v88.492188h-23.671875v82.007812h23.671875v15.671875h-23.671875v141h23.671875v184.828125h77.277344v-15h-62.277344v-48.167969h36.472656v-15h-36.472656v-355.664062h253.488281v355.664062h-36.253906v15h36.253906v48.167969h-62.550781v15h77.550781v-512zm-.242187 155.5h-8.429688v-52.007812h8.429688zm0 156.671875h-8.429688v-111h8.429688zm15.242187-249.003906v-48.167969h253.488281v48.167969zm0 0"/><path fill="#1668ac" stroke="#1668ac" d="m227.664062 45.351562h-74.5v-15h74.5zm-84.5 0h-15v-15h15zm-25 0h-15v-15h15zm0 0"/><path fill="#1668ac" stroke="#1668ac" d="m277.328125 103.164062h-65.949219v-15h65.949219zm-75.949219 0h-15v-15h15zm-25 0h-15v-15h15zm0 0"/></svg>


