<?xml version="1.0" encoding="utf-8"?>
<!-- Generator: Adobe Illustrator 21.0.0, SVG Export Plug-In . SVG Version: 6.00 Build 0)  -->
<svg version="1.1" id="outline" xmlns="http://www.w3.org/2000/svg" xmlns:xlink="http://www.w3.org/1999/xlink" x="0px" y="0px"
	 viewBox="0 0 512 512" style="enable-background:new 0 0 512 512;" xml:space="preserve">
<style type="text/css">
	.st0{fill:#2285B6;}
</style>
<path class="st0" d="M136,16c-17.7,0-32,14.3-32,32v416c0,17.7,14.3,32,32,32h240c17.7,0,32-14.3,32-32V48c0-17.7-14.3-32-32-32H136
	z M307.1,32l-5.8,11.6c-1.3,2.7-4.1,4.4-7.2,4.4h-76.2c-3,0-5.8-1.7-7.2-4.4L204.9,32H307.1z M392,48v416c0,8.8-7.2,16-16,16H136
	c-8.8,0-16-7.2-16-16V48c0-8.8,7.2-16,16-16h51.1l9.4,18.7c4,8.2,12.4,13.3,21.5,13.3h76.2c9.1,0,17.4-5.1,21.5-13.3l9.4-18.7H376
	C384.8,32,392,39.2,392,48z"/>
<path class="st0" d="M136,48h24v16h-24V48z"/>
<path class="st0" d="M352,48h24v16h-24V48z"/>
<path class="st0" d="M352,344c-10.2,0-19.2,6.4-22.6,16h-18.8c-4.4-12.5-18.1-19-30.6-14.6c-6.8,2.4-12.2,7.8-14.6,14.6h-18.8
	c-4.4-12.5-18.1-19-30.6-14.6c-6.8,2.4-12.2,7.8-14.6,14.6h-18.8c-4.4-12.5-18.1-19-30.6-14.6c-12.5,4.4-19,18.1-14.6,30.6
	s18.1,19,30.6,14.6c6.8-2.4,12.2-7.8,14.6-14.6h18.8c4.4,12.5,18.1,19,30.6,14.6c6.8-2.4,12.2-7.8,14.6-14.6h18.8
	c4.4,12.5,18.1,19,30.6,14.6c6.8-2.4,12.2-7.8,14.6-14.6h18.8c4.4,12.5,18.1,19,30.6,14.6c12.5-4.4,19-18.1,14.6-30.6
	C371.2,350.4,362.2,344,352,344z M160,376c-4.4,0-8-3.6-8-8s3.6-8,8-8s8,3.6,8,8C168,372.4,164.4,376,160,376z M224,376
	c-4.4,0-8-3.6-8-8s3.6-8,8-8s8,3.6,8,8C232,372.4,228.4,376,224,376z M288,376c-4.4,0-8-3.6-8-8s3.6-8,8-8s8,3.6,8,8
	C296,372.4,292.4,376,288,376z M352,376c-4.4,0-8-3.6-8-8s3.6-8,8-8s8,3.6,8,8C360,372.4,356.4,376,352,376z"/>
<path class="st0" d="M144,408h16v16h-16V408z"/>
<path class="st0" d="M240,408h40v16h-40V408z"/>
<path class="st0" d="M176,408h48v16h-48V408z"/>
<path class="st0" d="M144,440h16v16h-16V440z"/>
<path class="st0" d="M216,440h24v16h-24V440z"/>
<path class="st0" d="M176,440h24v16h-24V440z"/>
<circle class="st0" cx="256" cy="160" r="8"/>
<path class="st0" d="M200,224v-32c0-1.9-0.7-3.7-1.9-5.1l-40-48c-1.5-1.8-3.8-2.9-6.1-2.9h-16v16h12.3l35.7,42.9V216h-48v16h56
	C196.4,232,200,228.4,200,224C200,224,200,224,200,224z"/>
<path class="st0" d="M288,299.3l0,28.7h16l0-32c0-2.1-0.8-4.2-2.3-5.7l-32-32c-1.5-1.5-3.5-2.3-5.7-2.3H136v16h124.7L288,299.3z"/>
<path class="st0" d="M328,248v80h16v-72h32v-16h-40C331.6,240,328,243.6,328,248C328,248,328,248,328,248z"/>
<path class="st0" d="M305.6,115.2L289,137.4c-12.5-18.2-37.3-22.9-55.5-10.4c-4.3,2.9-7.9,6.6-10.7,10.9l-32.5-39
	c-1.5-1.8-3.8-2.9-6.1-2.9h-48v16h44.3l36,43.2c-0.2,1.6-0.3,3.2-0.3,4.8c0,14.1,14.9,40,25.1,56H224v16h64v-16h-17.1
	c10.2-16,25.1-41.9,25.1-56c0-1.6-0.1-3.3-0.3-4.9L316,128h60v-16h-64C309.5,112,307.1,113.2,305.6,115.2L305.6,115.2z M256,209.5
	c-11.5-18-24-40.8-24-49.5c0-13.3,10.7-24,24-24c13.3,0,24,10.7,24,24C280,168.7,267.5,191.5,256,209.5z"/>
<path class="st0" d="M329.1,155.9l-24,40c-2.3,3.8-1,8.7,2.7,11c1.2,0.7,2.7,1.1,4.1,1.1h64v-16h-49.9l14.4-24H376v-16h-40
	C333.2,152,330.6,153.5,329.1,155.9z"/>
</svg>
