<svg id="icons" enable-background="new 0 0 64 64" height="512" viewBox="0 0 64 64" width="512" xmlns="http://www.w3.org/2000/svg"><path fill="#1668ac" stroke="#1668ac" d="m63.996 6.003c0-1.654-1.346-3-3-3h-58c-1.654 0-3 1.346-3 3v2c0 .014.007.025.008.039v51.954c0 .553.447 1 1 1h62c.553 0 1-.447 1-1v-51.993c0-.014-.007-.025-.008-.039zm-61-1h1.02c-.552 0-.994.448-.994 1s.452 1 1.005 1c.552 0 1-.448 1-1s-.448-1-1-1h2.989c-.552 0-.994.448-.994 1s.452 1 1.005 1c.552 0 1-.448 1-1s-.448-1-1-1h2.989c-.552 0-.994.448-.994 1s.452 1 1.005 1c.552 0 1-.448 1-1s-.448-1-1-1h50.97c.552 0 1 .449 1 1v1h-51.97-3-3-2.03v-1c-.001-.551.447-1 .999-1zm59.008 53.993h-60v-49.993h60z"/><path fill="#1668ac" stroke="#1668ac" d="m19.016 52.014h-12.995c-.553 0-1 .447-1 1s.447 1 1 1h12.994c.553 0 1-.447 1-1s-.447-1-.999-1z"/><path fill="#1668ac" stroke="#1668ac" d="m58.014 52.014h-12.994c-.553 0-1 .447-1 1s.447 1 1 1h12.994c.553 0 1-.447 1-1s-.448-1-1-1z"/><path fill="#1668ac" stroke="#1668ac" d="m38.502 52.014h-12.994c-.553 0-1 .447-1 1s.447 1 1 1h12.994c.553 0 1-.447 1-1s-.447-1-1-1z"/><path fill="#1668ac" stroke="#1668ac" d="m35.52 55.014h-7.031c-.553 0-1 .447-1 1s.447 1 1 1h7.031c.553 0 1-.447 1-1s-.448-1-1-1z"/><path fill="#1668ac" stroke="#1668ac" d="m55.02 55.014h-7.006c-.553 0-1 .447-1 1s.447 1 1 1h7.006c.553 0 1-.447 1-1s-.448-1-1-1z"/><path fill="#1668ac" stroke="#1668ac" d="m16.02 55.014h-6.999c-.553 0-1 .447-1 1s.447 1 1 1h6.998c.553 0 1-.447 1-1s-.447-1-.999-1z"/><path fill="#1668ac" stroke="#1668ac" d="m5.02 39.006h54c.553 0 1-.447 1-1v-25.987c0-.552-.447-1-1-1h-54c-.553 0-1 .448-1 1v25.987c0 .553.447 1 1 1zm1-25.987h52v23.987h-52z"/><path fill="#1668ac" stroke="#1668ac" d="m54.008 18.006h-18.997c-.553 0-1 .448-1 1s.447 1 1 1h18.997c.553 0 1-.448 1-1s-.447-1-1-1z"/><path fill="#1668ac" stroke="#1668ac" d="m54.008 21.014h-18.997c-.553 0-1 .448-1 1s.447 1 1 1h18.997c.553 0 1-.448 1-1s-.447-1-1-1z"/><path fill="#1668ac" stroke="#1668ac" d="m44.008 24.022h-8.997c-.553 0-1 .448-1 1s.447 1 1 1h8.997c.553 0 1-.448 1-1s-.447-1-1-1z"/><path fill="#1668ac" stroke="#1668ac" d="m40.004 29.014h-4.991c-.553 0-1 .448-1 1s.447 1 1 1h4.991c.553 0 1-.448 1-1s-.447-1-1-1z"/><path fill="#1668ac" stroke="#1668ac" d="m44.998 29.014c0-.552-.447-1-1-1h-1.004c-.012 0-.021.006-.033.007-.063.002-.123.023-.185.037-.069.016-.139.025-.201.055-.01.004-.02.003-.029.008-.043.021-.071.059-.109.085-.062.042-.123.081-.173.135-.043.047-.071.102-.104.156-.034.055-.071.106-.095.167-.025.067-.031.138-.042.209-.007.048-.028.091-.028.141 0 .011.006.02.006.031.002.065.024.128.039.194.017.066.025.133.053.193.005.01.004.021.009.03l.364.727c-.274.178-.467.473-.467.825 0 .552.447 1 1 1h1 .001c.117 0 .234-.027.349-.07.021-.008.041-.013.061-.022.013-.005.025-.007.038-.014.043-.021.071-.059.109-.085.062-.042.122-.081.173-.135.043-.047.071-.102.104-.156.034-.055.071-.106.095-.167.025-.067.031-.137.042-.208.007-.048.028-.091.028-.141 0-.011-.006-.02-.006-.031-.002-.065-.024-.128-.039-.193-.016-.066-.025-.133-.054-.194-.004-.01-.003-.021-.008-.03l-.363-.725c.276-.18.469-.476.469-.829z"/><path fill="#1668ac" stroke="#1668ac" d="m25 22.005h-4.019v-.01c0-.551.448-1 1-1h2.999c.007 0 .013-.004.02-.004 1.644-.011 2.979-1.35 2.979-2.996 0-1.65-1.34-2.992-2.988-2.997-.004 0-.006-.002-.01-.002h-9.996c-.553 0-1 .448-1 1s.447 1 1 1h9.991c.002 0 .003.001.005.001.551 0 .998.448.998.998s-.447.998-.998.998c-.004 0-.006.002-.01.002h-2.989c-1.654 0-3 1.346-3 3v.01h-3.982c-3.309 0-6 2.691-6 6s2.691 6 6 6c2.032 0 3.9-1.03 5-2.691 1.1 1.662 2.968 2.691 5 2.691 3.309 0 6-2.692 6-6s-2.691-6-6-6zm0 10.001c-1.586 0-3.023-.943-3.662-2.402-.159-.364-.519-.599-.916-.599h-.844c-.397 0-.757.235-.916.599-.639 1.459-2.076 2.402-3.662 2.402-2.206 0-4-1.794-4-4s1.794-4 4-4h10c2.206 0 4 1.794 4 4 0 2.205-1.794 4-4 4z"/><path fill="#1668ac" stroke="#1668ac" d="m17 27.005h-1v-1c0-.552-.447-1-1-1s-1 .448-1 1v1h-1c-.553 0-1 .448-1 1s.447 1 1 1h1v1c0 .552.447 1 1 1s1-.448 1-1v-1h1c.553 0 1-.448 1-1s-.447-1-1-1z"/><path fill="#1668ac" stroke="#1668ac" d="m23.063 27.002h-.011c-.552 0-.994.448-.994 1s.452 1 1.005 1c.552 0 1-.448 1-1s-.448-1-1-1z"/><path fill="#1668ac" stroke="#1668ac" d="m25.063 27.002c.552 0 1-.448 1-1s-.448-1-1-1h-.011c-.552 0-.994.448-.994 1s.453 1 1.005 1z"/><path fill="#1668ac" stroke="#1668ac" d="m25.065 29.004h-.011c-.552 0-.994.448-.994 1s.452 1 1.005 1c.552 0 1-.448 1-1s-.448-1-1-1z"/><path fill="#1668ac" stroke="#1668ac" d="m27.065 27.004h-.011c-.552 0-.994.448-.994 1s.452 1 1.005 1c.552 0 1-.448 1-1s-.448-1-1-1z"/><path fill="#1668ac" stroke="#1668ac" d="m9.519 50.004c1.169 0 2.256-.518 3-1.369.744.852 1.831 1.369 3 1.369 2.206 0 4-1.794 4-4s-1.794-4-4-4h-6c-2.206 0-4 1.794-4 4s1.794 4 4 4zm0-6h6c1.103 0 2 .897 2 2s-.897 2-2 2c-.837 0-1.591-.536-1.874-1.335-.142-.398-.52-.665-.942-.665h-.367c-.423 0-.801.267-.942.665-.283.799-1.037 1.335-1.874 1.335-1.103 0-2-.897-2-2s.896-2 1.999-2z"/><path fill="#1668ac" stroke="#1668ac" d="m9.531 47.006c.552 0 1-.447 1-1s-.448-1-1-1h-.01c-.552 0-.994.447-.994 1s.452 1 1.004 1z"/><path fill="#1668ac" stroke="#1668ac" d="m15.531 47.006c.552 0 1-.447 1-1s-.448-1-1-1h-.011c-.552 0-.994.447-.994 1s.453 1 1.005 1z"/><path fill="#1668ac" stroke="#1668ac" d="m29.02 50.004c1.169 0 2.256-.518 3-1.369.744.852 1.831 1.369 3 1.369 2.206 0 4-1.794 4-4s-1.794-4-4-4h-6c-2.206 0-4 1.794-4 4s1.793 4 4 4zm0-6h6c1.103 0 2 .897 2 2s-.897 2-2 2c-.837 0-1.591-.536-1.874-1.335-.142-.398-.52-.665-.942-.665h-.367c-.423 0-.801.267-.942.665-.283.799-1.037 1.335-1.874 1.335-1.103 0-2-.897-2-2s.896-2 1.999-2z"/><path fill="#1668ac" stroke="#1668ac" d="m29.032 47.006c.552 0 1-.447 1-1s-.448-1-1-1h-.011c-.552 0-.994.447-.994 1s.452 1 1.005 1z"/><path fill="#1668ac" stroke="#1668ac" d="m35.032 47.006c.552 0 1-.447 1-1s-.448-1-1-1h-.011c-.552 0-.994.447-.994 1s.452 1 1.005 1z"/><path fill="#1668ac" stroke="#1668ac" d="m48.521 50.004c1.169 0 2.256-.518 3-1.369.744.852 1.831 1.369 3 1.369 2.206 0 4-1.794 4-4s-1.794-4-4-4h-6c-2.206 0-4 1.794-4 4s1.793 4 4 4zm0-6h6c1.103 0 2 .897 2 2s-.897 2-2 2c-.837 0-1.591-.536-1.874-1.335-.142-.398-.52-.665-.942-.665h-.367c-.423 0-.801.267-.942.665-.283.799-1.037 1.335-1.874 1.335-1.103 0-2-.897-2-2s.896-2 1.999-2z"/><path fill="#1668ac" stroke="#1668ac" d="m48.533 47.006c.552 0 1-.447 1-1s-.448-1-1-1h-.011c-.552 0-.994.447-.994 1s.452 1 1.005 1z"/><path fill="#1668ac" stroke="#1668ac" d="m54.533 47.006c.552 0 1-.447 1-1s-.448-1-1-1h-.011c-.552 0-.994.447-.994 1s.452 1 1.005 1z"/></svg>
