<?xml version="1.0" encoding="utf-8"?>
<!-- Generator: Adobe Illustrator 21.0.0, SVG Export Plug-In . SVG Version: 6.00 Build 0)  -->
<svg version="1.1" id="Layer_1" xmlns="http://www.w3.org/2000/svg" xmlns:xlink="http://www.w3.org/1999/xlink" x="0px" y="0px"
	 viewBox="0 0 64 64" style="enable-background:new 0 0 64 64;" xml:space="preserve">
<g id="Outline">
	<path d="M61.9,20.3c0-1.8-1.4-3.2-3.2-3.2h-9.6c0-0.6,0-1.2-0.1-1.9c0-0.2-0.1-0.5-0.1-0.7c-0.1-0.4-0.1-0.7-0.2-1.1
		c-0.1-0.3-0.1-0.5-0.2-0.8c-0.1-0.3-0.2-0.6-0.3-0.9c-0.1-0.3-0.2-0.6-0.3-0.9s-0.2-0.5-0.3-0.8c-0.1-0.3-0.3-0.6-0.4-0.8
		c-0.1-0.3-0.3-0.5-0.5-0.8c-0.1-0.2-0.3-0.5-0.4-0.7c-0.3-0.4-0.6-0.8-0.9-1.2c-0.1-0.1-0.1-0.1-0.2-0.2c-0.4-0.5-0.8-0.9-1.3-1.4
		c-0.1-0.1-0.1-0.1-0.2-0.2c-0.4-0.4-0.8-0.8-1.3-1.1c0,0-0.1-0.1-0.1-0.1L41.7,3l0,0C34-2.3,23.4-0.4,18,7.3
		c-0.5,0.7-0.9,1.4-1.3,2.2l0,0l-0.2,0.4c0,0,0,0.1,0,0.1c-0.2,0.5-0.4,1-0.6,1.5c0,0.1-0.1,0.1-0.1,0.2c-0.2,0.5-0.3,1-0.4,1.5
		c0,0.1-0.1,0.2-0.1,0.3c-0.1,0.5-0.2,1-0.2,1.4c0,0.1,0,0.2-0.1,0.3c-0.1,0.6-0.1,1.2-0.1,1.8H5.3c-1.8,0-3.2,1.4-3.2,3.2v37.3H0
		v3.2C0,62.6,1.4,64,3.2,64h57.6c1.8,0,3.2-1.4,3.2-3.2v-3.2h-2.1V20.3z M17.1,15.6c0.1-1.5,0.5-2.9,1.1-4.3
		c2.6-0.5,5.2,0.5,6.7,2.6l0.5,0.7c0.8,1.1,1.2,2.5,1.2,3.9c0,3.5,2,6.6,5.2,8l0,0c2.1,0.9,3.7,2.7,4.5,4.9c-0.3,0.1-0.7,0.2-1,0.3
		c0,0-0.1,0-0.1,0c-0.2,0.1-0.5,0.1-0.7,0.1s-0.5,0.1-0.7,0.1c-0.2,0-0.4,0-0.5,0.1C32.9,32,32.4,32,32,32
		c-8.2,0-14.9-6.7-14.9-14.9C17.1,16.6,17.1,16.1,17.1,15.6z M32,34.1c0.5,0,1.1,0,1.6-0.1c0.3,0,0.6-0.1,0.9-0.1
		c0.2,0,0.4-0.1,0.6-0.1c0.4-0.1,0.8-0.2,1.2-0.3c0.1,0,0.2,0,0.3-0.1c0.4-0.1,0.9-0.3,1.3-0.4c0,0,0.1,0,0.1,0l0.5-0.2
		c0,0,0.1,0,0.1,0l0.2-0.1l0,0c3.7-1.7,6.7-4.6,8.5-8.2l0,0l0.2-0.3c0,0,0,0,0-0.1c0.1-0.2,0.2-0.4,0.2-0.6h7.7v29.9H8.5V23.5h7.7
		C18.8,29.9,25.1,34.1,32,34.1z M45.8,22.9l-1.5,0.7c-1,0.5-2.2,0.5-3.1-0.1l-0.5-0.3c-1.6-0.9-2.1-2.9-1.2-4.5
		c0.1-0.3,0.3-0.5,0.5-0.7c1.7-1.7,2.1-4.4,0.9-6.5l-0.7-1.1C39.4,8.9,39.8,7,41.2,6l0.5-0.3c0.4,0.3,0.8,0.7,1.1,1
		C42.9,6.8,42.9,6.9,43,7c0.2,0.3,0.5,0.5,0.7,0.8C43.9,8,44,8.2,44.1,8.4c0.2,0.2,0.3,0.5,0.5,0.7c0.1,0.2,0.3,0.4,0.4,0.6
		c0.1,0.2,0.2,0.4,0.3,0.6c0.1,0.2,0.2,0.5,0.4,0.7c0.1,0.2,0.2,0.4,0.3,0.7c0.1,0.3,0.2,0.5,0.3,0.8c0.1,0.2,0.1,0.5,0.2,0.7
		c0.1,0.2,0.1,0.5,0.2,0.7c0.1,0.3,0.1,0.6,0.2,0.9c0,0.2,0.1,0.4,0.1,0.6c0.1,0.5,0.1,1.1,0.1,1.6c0,0.5,0,1-0.1,1.5
		C46.7,20,46.3,21.5,45.8,22.9z M32,2.1c2.8,0,5.5,0.8,7.8,2.2C37.6,6,37,9,38.4,11.4l0.7,1.1c0.7,1.3,0.5,2.9-0.5,4
		c-2.1,2.1-2.1,5.6,0,7.7c0.3,0.3,0.7,0.6,1.1,0.9l0.5,0.3c1.2,0.7,2.5,0.9,3.9,0.6c-1.5,2-3.4,3.6-5.6,4.6c-1-2.7-3-4.9-5.6-6l0,0
		c-2.4-1.1-3.9-3.4-3.9-6.1c0-1.8-0.6-3.6-1.6-5.1l-0.5-0.7C25,10.4,22.3,9,19.4,9.1C22.2,4.7,26.9,2.1,32,2.1z M4.3,20.3
		c0-0.6,0.5-1.1,1.1-1.1h9.7c0.1,0.7,0.2,1.4,0.4,2.1H6.4v34.1h51.2V21.3h-9.1c0-0.2,0.1-0.3,0.1-0.5c0-0.1,0-0.1,0.1-0.2
		c0.1-0.5,0.2-0.9,0.2-1.4h9.7c0.6,0,1.1,0.5,1.1,1.1v37.3H4.3V20.3z M61.9,60.8c0,0.6-0.5,1.1-1.1,1.1H3.2c-0.6,0-1.1-0.5-1.1-1.1
		v-1.1h59.7V60.8z"/>
	<path d="M27.7,51.2h8.5v-4.3h4.5L32,36.8l-8.7,10.2h4.5V51.2z M32,40l4.1,4.8h-1.9v4.3h-4.3v-4.3h-1.9L32,40z"/>
</g>
</svg>
