<?xml version="1.0" encoding="utf-8"?>
<!-- Generator: Adobe Illustrator 21.0.0, SVG Export Plug-In . SVG Version: 6.00 Build 0)  -->
<svg version="1.1" id="Layer_3" xmlns="http://www.w3.org/2000/svg" xmlns:xlink="http://www.w3.org/1999/xlink" x="0px" y="0px"
	 viewBox="0 0 64 64" style="enable-background:new 0 0 64 64;" xml:space="preserve">
<path d="M61.5,57.1c-1.4-4-4.9-6.8-9.1-7.4l-8.3-1.1v-0.1h-0.2c4.1-1.8,7-5.7,7.3-10.3h0.1c2.3,0,4.1-1.9,4.1-4.1V22.8
	c0-3.4-2.4-6.4-5.6-7.2l-0.7-0.7c-2.9-3-6.8-4.6-11-4.6c-2.6,0-5.1,0.7-7.3,1.9V3.1c0-1.7-1.4-3.1-3.1-3.1H3.1C1.4,0,0,1.4,0,3.1
	v12.4c0,1.7,1.4,3.1,3.1,3.1h8.7l4.4,5.3c0.5,0.6,1.1,0.9,1.9,0.9c1.3,0,2.4-1.1,2.4-2.4v-3.8h3.9c-1.2,2.2-1.8,4.7-1.8,7.4v8.1
	c0,2.3,1.8,4.1,4.1,4.1h0.1c0.4,4.6,3.3,8.5,7.3,10.3h-0.2v0.1l-5.1,0.7v-2.6l-2.6-0.9c-0.2-0.7-0.5-1.4-0.8-2l1.2-2.5l-3.9-4
	L20,38.6c-0.6-0.3-1.3-0.6-2-0.8l-0.9-2.6h-5.6l-0.9,2.6c-0.7,0.2-1.4,0.5-2,0.8l-2.5-1.2l-3.9,4l1.2,2.5c-0.3,0.6-0.6,1.3-0.8,2
	L0,46.7v5.6l2.6,0.9c0.2,0.7,0.5,1.4,0.8,2l-1.2,2.5l3.9,4l2.5-1.2c0.6,0.3,1.3,0.6,2,0.8l0.9,2.6h2.3h2.5H64L61.5,57.1z M35.9,49.1
	c1,0.3,2,0.4,3.1,0.4s2.1-0.2,3.1-0.4v0L39,53.1L35.9,49.1L35.9,49.1z M37.2,54.2l-3.8,1.3L32,51l2.5-0.3L37.2,54.2z M43.5,50.6
	l2.5,0.3l-1.5,4.5l-3.8-1.3L43.5,50.6z M51.3,36.1V32c1.1,0,2.1,0.9,2.1,2.1C53.3,35.2,52.4,36.1,51.3,36.1z M18.5,16.5v5.8
	c0,0.3-0.5,0.5-0.7,0.2l-5-6.1H3.1c-0.6,0-1-0.5-1-1V3.1c0-0.6,0.5-1,1-1h24.6c0.6,0,1,0.5,1,1v10.3h0.1c-1.2,0.9-2.3,2-3.2,3.2
	v-0.1L18.5,16.5z M24.6,34.1c0-1.1,0.9-2.1,2.1-2.1v4.1C25.5,36.1,24.6,35.2,24.6,34.1z M26.7,26.8v3.1c-0.8,0-1.4,0.2-2.1,0.6V26
	c0-7.5,6-13.6,13.5-13.6c3.6,0,7,1.4,9.5,4l1.1,1.1l0.3,0.1c2.5,0.5,4.3,2.7,4.3,5.3v7.7c-0.6-0.4-1.3-0.6-2.1-0.6v-3.1h-1
	c-3.7,0-7.4-1.3-10.3-3.6l-1-0.8l-1,0.8c-2.9,2.3-6.6,3.6-10.3,3.6H26.7z M28.7,37.2v-8.3c3.7-0.2,7.3-1.5,10.3-3.8
	c3,2.3,6.5,3.6,10.3,3.8v8.3c0,5.7-4.6,10.3-10.3,10.3S28.7,42.9,28.7,37.2z M13,61.9l-0.8-2.3l-0.5-0.1c-0.9-0.2-1.7-0.6-2.5-1
	l-0.5-0.3l-2.2,1.1l-1.9-1.9l1-2.2l-0.3-0.5c-0.5-0.8-0.8-1.6-1-2.5l-0.1-0.5l-2.3-0.8v-2.7l2.3-0.8l0.1-0.5c0.2-0.9,0.6-1.7,1-2.5
	l0.3-0.5l-1-2.2l1.9-1.9l2.2,1.1l0.5-0.3c0.8-0.5,1.6-0.8,2.5-1l0.5-0.1l0.8-2.3h2.6l0.8,2.3l0.5,0.1c0.9,0.2,1.7,0.6,2.5,1l0.5,0.3
	l2.2-1.1l1.9,1.9l-1,2.2l0.3,0.5c0.5,0.8,0.8,1.6,1,2.5l0.1,0.5l2.3,0.8v1.4l-1.2,0.2c-1.1,0.1-2.1,0.4-3,0.8c0-0.3,0.1-0.7,0.1-1.1
	c0-4.6-3.7-8.3-8.2-8.3S6.2,45,6.2,49.5s3.7,8.3,8.2,8.3c0.6,0,1.3-0.1,1.9-0.2l-1.6,4.4L13,61.9z M17.6,54.8
	c-1,0.6-2.1,0.9-3.2,0.9c-3.4,0-6.2-2.8-6.2-6.2c0-3.4,2.8-6.2,6.2-6.2s6.2,2.8,6.2,6.2c0,0.9-0.2,1.8-0.6,2.6
	C19,52.9,18.2,53.8,17.6,54.8z M16.8,61.9l1.5-4.1c1.2-3.3,4-5.6,7.5-6l4.1-0.6l2.3,6.8l6.8-2.3l6.8,2.3l2.3-6.8l4.1,0.6
	c3.4,0.5,6.3,2.8,7.5,6l1.5,4.1H16.8z"/>
<ellipse cx="33.8" cy="32" rx="1" ry="1"/>
<ellipse cx="44.1" cy="32" rx="1" ry="1"/>
<path d="M46.1,37.2h-2.1c0,2.8-2.3,5.2-5.1,5.2s-5.1-2.3-5.1-5.2h-2.1c0,4,3.2,7.2,7.2,7.2S46.1,41.1,46.1,37.2z"/>
<path d="M7.2,6.2c-1.7,0-3.1,1.4-3.1,3.1s1.4,3.1,3.1,3.1s3.1-1.4,3.1-3.1S8.9,6.2,7.2,6.2z M7.2,10.3c-0.6,0-1-0.5-1-1
	c0-0.6,0.5-1,1-1s1,0.5,1,1C8.2,9.9,7.7,10.3,7.2,10.3z"/>
<path d="M15.4,6.2c-1.7,0-3.1,1.4-3.1,3.1s1.4,3.1,3.1,3.1c1.7,0,3.1-1.4,3.1-3.1S17.1,6.2,15.4,6.2z M15.4,10.3c-0.6,0-1-0.5-1-1
	c0-0.6,0.5-1,1-1s1,0.5,1,1C16.4,9.9,15.9,10.3,15.4,10.3z"/>
<path d="M26.7,9.3c0-1.7-1.4-3.1-3.1-3.1s-3.1,1.4-3.1,3.1s1.4,3.1,3.1,3.1S26.7,11,26.7,9.3z M23.6,10.3c-0.6,0-1-0.5-1-1
	c0-0.6,0.5-1,1-1c0.6,0,1,0.5,1,1C24.6,9.9,24.1,10.3,23.6,10.3z"/>
</svg>
