<?xml version="1.0" encoding="utf-8"?>
<!-- Generator: Adobe Illustrator 21.0.0, SVG Export Plug-In . SVG Version: 6.00 Build 0)  -->
<svg version="1.1" id="icon" xmlns="http://www.w3.org/2000/svg" xmlns:xlink="http://www.w3.org/1999/xlink" x="0px" y="0px"
	 viewBox="0 0 512 512" style="enable-background:new 0 0 512 512;" xml:space="preserve">
<style type="text/css">
	.st0{fill:#2285B6;}
</style>
<path class="st0" d="M183,462h-48.6c-4.2,0-7.7,3.4-7.7,7.7c0,4.2,3.4,7.7,7.7,7.7H183c4.2,0,7.7-3.4,7.7-7.7
	C190.7,465.5,187.2,462,183,462z"/>
<path class="st0" d="M189.2,235l-42.6,47.2c-17.8-21.2-17.8-22.4-22.2-22.6c-4.5-0.2-4,0.5-29,25.5c-3,3-3,7.9,0,10.9
	c47,47,44.2,45.4,48.6,45.4c2,0,4-0.8,5.4-2.3c78.9-78.9,75-73.6,74.9-78.2c0-4.3-0.7-3.9-24.2-26.3c-3.1-2.9-7.9-2.8-10.9,0.2
	C189.3,234.8,189.2,234.9,189.2,235z M144,322.8l-32.3-32.3l11.9-11.9c18.4,21.9,18.2,22.9,22.8,22.9c2.2,0,4.2-0.9,5.7-2.5
	l43.2-47.9l10.4,10L144,322.8z"/>
<path class="st0" d="M158.7,190c-53.5,0-96.9,43.4-96.9,96.9s43.4,96.9,96.9,96.9s96.9-43.4,96.9-96.9c0,0,0,0,0,0
	C255.6,233.4,212.2,190,158.7,190z M158.7,368.4c-45,0-81.6-36.5-81.6-81.6c0-45,36.5-81.6,81.6-81.6s81.6,36.5,81.6,81.6
	c0,0,0,0,0,0C240.2,331.9,203.7,368.4,158.7,368.4z"/>
<path class="st0" d="M442.7,127.3h-44.5c-4.2,0-7.7,3.4-7.7,7.7c0,4.2,3.4,7.7,7.7,7.7h44.5c4.2,0,7.7-3.4,7.7-7.7
	C450.4,130.7,446.9,127.3,442.7,127.3z"/>
<path class="st0" d="M366.1,127.3h-44.5c-4.2,0-7.7,3.4-7.7,7.7c0,4.2,3.4,7.7,7.7,7.7h44.5c4.2,0,7.7-3.4,7.7-7.7
	C373.8,130.7,370.3,127.3,366.1,127.3z"/>
<path class="st0" d="M286.2,127.3h-44.5c-4.2,0-7.7,3.4-7.7,7.7c0,4.2,3.4,7.7,7.7,7.7h44.5c4.2,0,7.7-3.4,7.7-7.7
	C293.9,130.7,290.4,127.3,286.2,127.3L286.2,127.3z"/>
<path class="st0" d="M435.1,189.1H447c19.8,0,35.8-16.1,35.9-35.8V35.9C482.8,16.1,466.8,0,447,0H240.6c-19.8,0-35.8,16.1-35.8,35.9
	v38.4H69c-22,0-39.9,17.9-39.9,39.9v358c0,22,17.9,39.9,39.9,39.9h179.4c22,0,39.9-17.9,39.9-39.9v-57.7h115.5
	c17.2,0,31.2-14,31.2-31.2V189.1z M419.7,305.7v22.6H288.3v-18.3c126.9,0,114.6,0,116.2,0C409.9,309.9,415.1,308.5,419.7,305.7
	L419.7,305.7z M44.5,142.6h160.3v10.7c0,19.8,16.1,35.8,35.8,35.8h32.3v242.1H44.5V142.6z M403.8,294.7H288.3V222h131.4v56.9
	C419.7,287.6,412.6,294.7,403.8,294.7L403.8,294.7z M419.7,206.6H288.3v-17.5h131.4L419.7,206.6z M447,173.8H240.6
	c-11.3,0-20.5-9.2-20.5-20.5v-51h247.3v51C467.5,164.6,458.3,173.8,447,173.8L447,173.8z M220.2,86.9V55.7h247.3v31.2H220.2z
	 M240.6,15.4H447c11.3,0,20.5,9.2,20.5,20.5v4.5H220.2v-4.5C220.2,24.5,229.3,15.4,240.6,15.4z M69,89.6h135.8v37.6H44.5v-13.1
	C44.5,100.6,55.5,89.6,69,89.6z M248.4,496.6H69c-13.5,0-24.5-11-24.5-24.5v-25.5h228.4v25.5C272.9,485.7,261.9,496.6,248.4,496.6z
	 M403.8,399H288.3v-55.3h131.4v39.4C419.7,391.9,412.6,399,403.8,399z"/>
</svg>
