<?xml version="1.0" encoding="utf-8"?>
<!-- Generator: Adobe Illustrator 21.0.0, SVG Export Plug-In . SVG Version: 6.00 Build 0)  -->
<svg version="1.1" id="Capa_1" xmlns="http://www.w3.org/2000/svg" xmlns:xlink="http://www.w3.org/1999/xlink" x="0px" y="0px"
	 viewBox="0 0 512 512" style="enable-background:new 0 0 512 512;" xml:space="preserve">
<style type="text/css">
	.st0{fill:#2285B6;}
</style>
<g>
	<path class="st0" d="M474.5,18.5h-437C16.8,18.5,0,35.3,0,56v330c0,20.7,16.8,37.5,37.5,37.5h160.1l-9,31.6
		c-3.6,12.7-17.8,23.4-31,23.4H101c-4.1,0-7.5,3.4-7.5,7.5s3.4,7.5,7.5,7.5h310c4.1,0,7.5-3.4,7.5-7.5s-3.4-7.5-7.5-7.5h-56.5
		c-13.2,0-27.4-10.7-31-23.4l-9-31.6h160.1c20.7,0,37.5-16.8,37.5-37.5V56C512,35.3,495.2,18.5,474.5,18.5z M37.5,33.5h437
		c12.4,0,22.5,10.1,22.5,22.5v262.5H15V56C15,43.6,25.1,33.5,37.5,33.5z M309,459.2c2.1,7.2,6.1,13.8,11.5,19.3H191.4
		c5.4-5.5,9.5-12.1,11.5-19.3l10.2-35.7h85.7L309,459.2z M474.5,408.5h-437C25.1,408.5,15,398.4,15,386v-52.5h482V386
		C497,398.4,486.9,408.5,474.5,408.5z"/>
	<path class="st0" d="M37.5,303.5h437c4.1,0,7.5-3.4,7.5-7.5V56c0-4.1-3.4-7.5-7.5-7.5h-437c-4.1,0-7.5,3.4-7.5,7.5v105
		c0,4.1,3.4,7.5,7.5,7.5s7.5-3.4,7.5-7.5V63.5h422v225H45V191c0-4.1-3.4-7.5-7.5-7.5S30,186.9,30,191v105
		C30,300.1,33.4,303.5,37.5,303.5z"/>
	<path class="st0" d="M256,348.5c-12.4,0-22.5,10.1-22.5,22.5s10.1,22.5,22.5,22.5c12.4,0,22.5-10.1,22.5-22.5
		S268.4,348.5,256,348.5z M256,378.5c-4.1,0-7.5-3.4-7.5-7.5s3.4-7.5,7.5-7.5c4.1,0,7.5,3.4,7.5,7.5S260.1,378.5,256,378.5z"/>
</g>
</svg>
