<?xml version="1.0" encoding="utf-8"?>
<!-- Generator: Adobe Illustrator 21.0.0, SVG Export Plug-In . SVG Version: 6.00 Build 0)  -->
<svg version="1.1" id="Layer_1" xmlns="http://www.w3.org/2000/svg" xmlns:xlink="http://www.w3.org/1999/xlink" x="0px" y="0px"
	 viewBox="0 0 480 480" style="enable-background:new 0 0 480 480;" xml:space="preserve">
<style type="text/css">
	.st0{fill:#2285B6;}
</style>
<path class="st0" d="M430.7,112.5c17.6-16.8,22.3-43.1,11.7-65c-10.6-21.9-34.2-34.4-58.3-31c-24.1,3.5-43.2,22.1-47.3,46.1
	c-4.1,24,7.9,47.9,29.5,59.1c-9,7.5-14.2,18.6-14.2,30.3v64h-24v-64c0-28.3-21.2-52.2-49.3-55.6c16.6-15.8,21.9-40.1,13.3-61.3
	C283.5,13.9,262.9,0,240.1,0c-22.9,0-43.5,13.9-52,35.2c-8.5,21.2-3.2,45.5,13.3,61.3c-28.1,3.4-49.3,27.2-49.3,55.6v64h-24v-64
	c0-11.7-5.2-22.8-14.2-30.3c21.6-11.2,33.5-35.1,29.5-59.1c-4.1-24-23.2-42.6-47.3-46.1c-24.1-3.5-47.7,9.1-58.3,31
	s-5.9,48.2,11.7,65c-28.1,3.4-49.3,27.2-49.3,55.6v120c0,21.6,12.5,41.3,32,50.5V480h16V343.4c2.6,0.4,56,0.6,56,0.6
	c4.4,0,8,3.6,8,8v128h64V328h56v136h-32v16h80v-16h-32V328h56v152h64V352c0-4.4,3.6-8,8-8c0,0,53.4-0.3,56-0.6V480h16V338.5
	c19.5-9.3,32-28.9,32-50.5v-120C480,139.7,458.8,115.9,430.7,112.5z M352,72.1c0-22.1,17.9-40,40-40c22.1,0,40,17.9,40,40
	s-17.9,40-40,40C369.9,112.1,352.1,94.2,352,72.1z M257.1,112.1l-17.1,25.6L223,112.1H257.1z M200.1,56.1c0-22.1,17.9-40,40-40
	s40,17.9,40,40s-17.9,40-40,40C218,96.1,200.1,78.2,200.1,56.1z M168.1,152.1c0.1-20.5,15.6-37.6,36-39.6l36,54l36-54
	c20.4,2,35.9,19.1,36,39.6v64h-32v48h-80v-48h-32V152.1z M48.1,72.1c0-22.1,17.9-40,40-40s40,17.9,40,40s-17.9,40-40,40
	C66,112.1,48.1,94.2,48.1,72.1z M160.1,464h-32V352c0-13.3-10.7-24-24-24h-48c-22.1,0-40-17.9-40-40v-120c0-22.1,17.9-40,40-40h32
	c13.3,0,24,10.7,24,24v80h72v32h-96c-4.4,0-8-3.6-8-8v-96h-16v96c0,13.3,10.7,24,24,24h32c22.1,0,40,17.9,40,40V464z M175.4,312
	c-1.7-12.2-7.5-23.4-16.2-32h161.7c-8.8,8.6-14.5,19.8-16.2,32H175.4z M464,288c0,22.1-17.9,40-40,40h-48c-13.3,0-24,10.7-24,24v112
	h-32V320c0-22.1,17.9-40,40-40h32c13.3,0,24-10.7,24-24v-96h-16v96c0,4.4-3.6,8-8,8h-96v-32h72v-80c0-13.3,10.7-24,24-24h32
	c22.1,0,40,17.9,40,40V288z"/>
</svg>
