<?xml version="1.0" encoding="utf-8"?>
<!-- Generator: Adobe Illustrator 21.0.0, SVG Export Plug-In . SVG Version: 6.00 Build 0)  -->
<svg version="1.1" id="Layer_1" xmlns="http://www.w3.org/2000/svg" xmlns:xlink="http://www.w3.org/1999/xlink" x="0px" y="0px"
	 viewBox="0 0 512 512" style="enable-background:new 0 0 512 512;" xml:space="preserve">
<style type="text/css">
	.st0{fill:#2285B6;}
</style>
<g id="_x39_29_x2C__Development_x2C__Web_Page_x2C__Mobile_x2C__App">
	<g>
		<path class="st0" d="M443,66h-77V55c0-21.5-17.5-39-39-39H185c-21.5,0-39,17.5-39,39v11H69c-23.7,0-43,19.3-43,43v244
			c0,23.7,19.3,43,43,43h150.8l-20,40H166c-16.5,0-30,13.5-30,30c0,16.5,13.5,30,30,30h180c16.5,0,30-13.5,30-30
			c0-16.5-13.5-30-30-30h-33.8l-20-40H443c23.7,0,43-19.3,43-43V109C486,85.3,466.7,66,443,66L443,66z M166,55c0-10.5,8.5-19,19-19
			h142c10.5,0,19,8.5,19,19v211H166V55z M69,86h77v180h-10c-5.5,0-10,4.5-10,10c0,5.5,4.5,10,10,10h240c5.5,0,10-4.5,10-10
			c0-5.5-4.5-10-10-10h-10V86h77c12.7,0,23,10.3,23,23v217H46V109C46,96.3,56.3,86,69,86L69,86z M356,466c0,5.5-4.5,10-10,10H166
			c-5.5,0-10-4.5-10-10c0-5.5,4.5-10,10-10h180C351.5,456,356,460.5,356,466z M289.8,436h-67.6l20-40h27.6L289.8,436z M443,376
			c-16.3,0-357.6,0-374,0c-12.7,0-23-10.3-23-23v-7h420v7C466,365.7,455.7,376,443,376z"/>
		<path class="st0" d="M66,146h40v20H66L66,146z"/>
		<path class="st0" d="M66,176h40v20H66L66,176z"/>
		<path class="st0" d="M66,206h60v20H66L66,206z"/>
		<path class="st0" d="M186,46h20v20h-20V46z"/>
		<path class="st0" d="M216,46h20v20h-20V46z"/>
		<path class="st0" d="M326,76H186c-5.5,0-10,4.5-10,10s4.5,10,10,10h140c5.5,0,10-4.5,10-10C336,80.5,331.5,76,326,76z"/>
		<path class="st0" d="M236,106h-50c-5.5,0-10,4.5-10,10v40c0,5.5,4.5,10,10,10h50c5.5,0,10-4.5,10-10v-40
			C246,110.5,241.5,106,236,106L236,106z M226,146h-30v-20h30V146z"/>
		<path class="st0" d="M326,106h-50c-5.5,0-10,4.5-10,10v40c0,5.5,4.5,10,10,10h50c5.5,0,10-4.5,10-10v-40
			C336,110.5,331.5,106,326,106z M316,146h-30v-20h30V146z"/>
		<path class="st0" d="M236,176h-50c-5.5,0-10,4.5-10,10v40c0,5.5,4.5,10,10,10h50c5.5,0,10-4.5,10-10v-40
			C246,180.5,241.5,176,236,176L236,176z M226,216h-30v-20h30V216z"/>
		<path class="st0" d="M326,176h-50c-5.5,0-10,4.5-10,10v40c0,5.5,4.5,10,10,10h50c5.5,0,10-4.5,10-10v-40
			C336,180.5,331.5,176,326,176z M316,216h-30v-20h30V216z"/>
		<path class="st0" d="M71,426c-13.8,0-25,11.2-25,25c0,13.8,11.2,25,25,25s25-11.2,25-25C96,437.2,84.8,426,71,426z M71,456
			c-2.8,0-5-2.3-5-5c0-2.8,2.2-5,5-5c2.8,0,5,2.2,5,5C76,453.8,73.8,456,71,456z"/>
		<path class="st0" d="M436,416c-16.5,0-30,13.5-30,30c0,16.5,13.5,30,30,30s30-13.5,30-30C466,429.5,452.5,416,436,416z M436,456
			c-5.5,0-10-4.5-10-10c0-5.5,4.5-10,10-10c5.5,0,10,4.5,10,10C446,451.5,441.5,456,436,456z"/>
	</g>
</g>
</svg>
