<?xml version="1.0" encoding="utf-8"?>
<!-- Generator: Adobe Illustrator 21.0.0, SVG Export Plug-In . SVG Version: 6.00 Build 0)  -->
<svg version="1.1" id="Layer_1" xmlns="http://www.w3.org/2000/svg" xmlns:xlink="http://www.w3.org/1999/xlink" x="0px" y="0px"
	 viewBox="0 0 512 512" style="enable-background:new 0 0 512 512;" xml:space="preserve">
<style type="text/css">
	.st0{fill:#2285B6;}
</style>
<g id="migrating">
	<path class="st0" d="M448,432h16c0-17.7-14.3-32-32-32v16C440.8,416,448,423.2,448,432z"/>
	<path class="st0" d="M168,216h16v16h-16V216z"/>
	<path class="st0" d="M168,264h16v16h-16V264z"/>
	<path class="st0" d="M168,312h16v16h-16V312z"/>
	<path class="st0" d="M496,272v-32c0-3.7-2.5-6.9-6.1-7.8l-10.3-2.6l5.5-9.1c1.9-3.1,1.4-7.2-1.2-9.8l-22.6-22.6
		c-2.6-2.6-6.6-3.1-9.8-1.2l-9.1,5.5l-2.6-10.3c-0.9-3.6-4.1-6.1-7.8-6.1h-32c-3.7,0-6.9,2.5-7.8,6.1l-2.6,10.3l-6-3.6
		c0.2-1.6,0.4-3.2,0.4-4.8c0-24.6-18.7-45.3-43.2-47.8c2-3.8,3.1-8,3.2-12.2c0-37.5-30.4-68-67.9-68c-17.4,0-34.1,6.6-46.8,18.6
		c-11.7-47.2-59.4-75.9-106.6-64.2S46.8,69.8,58.5,117c1.6,6.6,4,13,7.1,19H64c-26.5,0-48,21.5-48,48s21.5,48,48,48h32v51.8
		c-21.3,22.5-29.1,54.6-20.6,84.4c-35.3,2.6-61.8,33.2-59.2,68.5C18.6,470.1,46.5,496,80,496h352c35.3,0,64-28.7,64-64
		s-28.7-64-64-64h-7.1c6.2-10.7,10.6-22.5,12.9-34.6c0.9-1,1.6-2.1,2-3.4l2.6-10.3l9.1,5.5c3.1,1.9,7.2,1.4,9.8-1.2l22.6-22.6
		c2.6-2.6,3.1-6.6,1.2-9.8l-5.5-9.1l10.3-2.6C493.5,278.9,496,275.7,496,272L496,272z M32,184c0-17.7,14.3-32,32-32h16.1
		c4.4,0,8-3.6,8-8c0-1.7-0.6-3.4-1.6-4.8C62.6,107.4,69,62.3,100.7,38.4s76.9-17.5,100.8,14.3c9.1,12.1,14.1,26.7,14.4,41.8
		c0.1,4.4,3.8,7.9,8.2,7.8c2.8-0.1,5.4-1.6,6.8-4c14.2-25,45.9-33.7,70.8-19.5C318,88,328,105.3,328,124c-0.6,3.3-1.8,6.5-3.7,9.4
		c-1.5,2.5-2.7,5.2-3.8,7.9c-1.5,4.2,0.7,8.7,4.8,10.2c0.9,0.3,1.8,0.5,2.7,0.5h8c17.7,0,32,14.3,32,32c0,2.7-0.4,5.4-1.1,7.9
		l-11.6,11.6c-29.6-7.6-61.1-2.7-86.9,13.7c-4.4,2.8-8.5,5.8-12.5,9.2V200h24c4.4,0,8-3.6,8-8v-72h-16v64h-16v-8
		c0-20.5-35.9-30.6-72-31.8V96c0-4.4-3.6-8-8-8h-17.1c-4.4-17.1-21.9-27.4-39-23c-17.1,4.4-27.4,21.9-23,39
		c4.4,17.1,21.9,27.4,39,23c11.3-2.9,20.1-11.7,23-23h9.1v40.2c-36.1,1.3-72,11.4-72,31.8v40H64C46.3,216,32,201.7,32,184z M176,336
		c-42,0-64-11.9-64-16v-27.8c20.2,8.5,42.1,12.5,64,11.8c21.9,0.7,43.8-3.3,64-11.8V320C240,324.1,218,336,176,336z M176,160
		c42,0,64,11.9,64,16s-22,16-64,16s-64-11.9-64-16S134,160,176,160z M112,196.2c20.2,8.5,42.1,12.5,64,11.8
		c21.9,0.7,43.8-3.3,64-11.8V224c0,4.1-22,16-64,16s-64-11.9-64-16V196.2z M144,96c0,8.8-7.2,16-16,16s-16-7.2-16-16s7.2-16,16-16
		S144,87.2,144,96z M112,244.2c20.2,8.5,42.1,12.5,64,11.8c21.9,0.7,43.8-3.3,64-11.8V272c0,4.1-22,16-64,16s-64-11.9-64-16V244.2z
		 M432,384c26.5,0,48,21.5,48,48s-21.5,48-48,48H80c-26.5,0-48-21.5-48-48s21.5-48,48-48h6.7c4.4,0,8-3.6,8-8c0-1.1-0.2-2.2-0.7-3.2
		c-8.7-19.8-8-42.5,2-61.7v8.9c0,10.6,9.7,18.4,24,23.6V448H96v16h32c4.4,0,8-3.6,8-8V348.1c10.5,2.1,21.2,3.4,32,3.7V432
		c0,4.4,3.6,8,8,8h73.1c4.4,17.1,21.9,27.4,39,23s27.4-21.9,23-39s-21.9-27.4-39-23c-11.3,2.9-20.1,11.7-23,23H184v-72.2
		c36.1-1.3,72-11.4,72-31.8v-16h32v72c0,4.4,3.6,8,8,8h40v-16h-32v-72c0-4.4-3.6-8-8-8h-40v-39.3c6.1-7,13.2-13,21-18
		c20.5-12.8,45.1-17.5,68.9-13c0.1,1,0.5,1.9,1,2.8l5.5,9.1l-10.3,2.6c-3.6,0.9-6.1,4.1-6.1,7.8v32c0,3.7,2.5,6.9,6.1,7.8l10.3,2.6
		l-5.5,9.1c-1.9,3.1-1.4,7.2,1.2,9.8l22.6,22.6c2.6,2.6,6.6,3.1,9.8,1.2l9.1-5.5l2.6,10.3c0.9,3.6,4.1,6.1,7.8,6.1h20.8
		c-3.3,12.8-9.1,24.7-17.2,35.1c-2.7,3.5-2.1,8.5,1.4,11.2c1.4,1.1,3.1,1.7,4.9,1.7H432z M264,432c0-8.8,7.2-16,16-16s16,7.2,16,16
		s-7.2,16-16,16S264,440.8,264,432z M480,265.8l-14.8,3.7c-4.3,1.1-6.9,5.4-5.8,9.7c0.2,0.8,0.5,1.5,0.9,2.2l7.8,13l-13.8,13.8
		l-13-7.8c-3.8-2.3-8.7-1-11,2.7c-0.4,0.7-0.7,1.4-0.9,2.2l-3.7,14.8h-19.5l-3.7-14.8c-1.1-4.3-5.4-6.9-9.7-5.8
		c-0.8,0.2-1.5,0.5-2.2,0.9l-13,7.8l-13.8-13.8l7.8-13c2.3-3.8,1-8.7-2.7-11c-0.7-0.4-1.4-0.7-2.2-0.9l-14.8-3.7v-19.5l14.8-3.7
		c4.3-1.1,6.9-5.4,5.8-9.7c-0.2-0.8-0.5-1.5-0.9-2.2l-7.8-13l13.8-13.8l13,7.8c3.8,2.3,8.7,1,11-2.7c0.4-0.7,0.7-1.4,0.9-2.2
		l3.7-14.8h19.5l3.7,14.8c1.1,4.3,5.4,6.9,9.7,5.8c0.8-0.2,1.5-0.5,2.2-0.9l13-7.8l13.8,13.8l-7.8,13c-2.3,3.8-1,8.7,2.7,11
		c0.7,0.4,1.4,0.7,2.2,0.9l14.8,3.7L480,265.8z"/>
	<path class="st0" d="M416,224c-17.7,0-32,14.3-32,32s14.3,32,32,32s32-14.3,32-32S433.7,224,416,224z M416,272c-8.8,0-16-7.2-16-16
		c0-8.8,7.2-16,16-16s16,7.2,16,16C432,264.8,424.8,272,416,272z"/>
	<path class="st0" d="M272,88h16v16h-16V88z"/>
	<path class="st0" d="M352,368h16v16h-16V368z"/>
	<path class="st0" d="M64,448h16v16H64V448z"/>
</g>
</svg>
