<?xml version="1.0" encoding="utf-8"?>
<!-- Generator: Adobe Illustrator 21.0.0, SVG Export Plug-In . SVG Version: 6.00 Build 0)  -->
<svg version="1.1" id="Layer_1" xmlns="http://www.w3.org/2000/svg" xmlns:xlink="http://www.w3.org/1999/xlink" x="0px" y="0px"
	 viewBox="0 0 64 64" style="enable-background:new 0 0 64 64;" xml:space="preserve">
<g id="calculator_路_finance_路_business_路_calculation_路_money">
	<circle cx="28.8" cy="16" r="2.1"/>
	<circle cx="34.1" cy="16" r="2.1"/>
	<path d="M36.2,13.1l2.1-6.4c0.2-0.6-0.1-1.2-0.7-1.3c-0.1,0-0.2-0.1-0.3-0.1h-9.5l-0.2-1.2c-0.1-0.5-0.5-0.9-1.1-0.9h-2.1
		c-0.6,0-1.1,0.5-1.1,1.1s0.5,1.1,1.1,1.1h1.2l0.1,1.2v0l0.8,6.4c0.1,0.5,0.5,0.9,1.1,0.9h7.5C35.7,13.9,36.1,13.6,36.2,13.1z
		 M28.7,11.7l-0.5-4.3h7.7l-1.4,4.3H28.7z"/>
	<path d="M40.5,45.9h-2.1c-0.6,0-1.1-0.5-1.1-1.1c0-0.6-0.5-1.1-1.1-1.1s-1.1,0.5-1.1,1.1c0,1.8,1.4,3.2,3.2,3.2l0,1.1
		c0,0.6,0.5,1.1,1.1,1.1h0c0.6,0,1.1-0.5,1.1-1.1l0-1.1h0c1.8,0,3.2-1.4,3.2-3.2c0-1.8-1.4-3.2-3.2-3.2h-2.1c-0.6,0-1.1-0.5-1.1-1.1
		s0.5-1.1,1.1-1.1h2.1c0.6,0,1.1,0.5,1.1,1.1s0.5,1.1,1.1,1.1s1.1-0.5,1.1-1.1c0-1.8-1.4-3.2-3.2-3.2v-1.1c0-0.6-0.5-1.1-1.1-1.1
		s-1.1,0.5-1.1,1.1v1.1c-1.8,0-3.2,1.4-3.2,3.2c0,1.8,1.4,3.2,3.2,3.2h2.1c0.6,0,1.1,0.5,1.1,1.1C41.6,45.4,41.1,45.9,40.5,45.9z"/>
	<path d="M58.7,0H20.3c-0.3,0-0.6,0.1-0.8,0.3L8.8,11c-0.2,0.2-0.3,0.5-0.3,0.8v7.4H5.3c-2.9,0-5.3,2.4-5.3,5.3v34.1
		C0,61.6,2.4,64,5.3,64h21.3c2.5,0,4.7-1.8,5.2-4.3h21.4c0.6,0,1.1-0.5,1.1-1.1s-0.5-1.1-1.1-1.1H32v-7.3c4.2,4.1,10.9,4.1,15.1-0.1
		s4.1-10.9-0.1-15.1c-4.2-4.1-10.8-4.1-15,0V24.5c0-2.9-2.4-5.3-5.3-5.3h-16v-6.4h8.5c1.2,0,2.1-1,2.1-2.1V2.1h36.3v5.3
		c0,0.6,0.5,1.1,1.1,1.1s1.1-0.5,1.1-1.1V1.1C59.7,0.5,59.3,0,58.7,0z M32,38.6c2.3-4.1,7.4-5.7,11.6-3.4s5.7,7.4,3.4,11.6
		s-7.4,5.7-11.6,3.4c-1.4-0.8-2.6-2-3.4-3.4V38.6z M26.7,21.3c1.8,0,3.2,1.4,3.2,3.2v34.1c0,1.8-1.4,3.2-3.2,3.2H5.3
		c-1.8,0-3.2-1.4-3.2-3.2V24.5c0-1.8,1.4-3.2,3.2-3.2H26.7z M19.2,10.7h-7l7-7V10.7z"/>
	<path d="M51.2,5.3h-9.6c-0.6,0-1.1,0.5-1.1,1.1s0.5,1.1,1.1,1.1h9.6c0.6,0,1.1-0.5,1.1-1.1S51.8,5.3,51.2,5.3z"/>
	<path d="M52.3,10.7c0-0.6-0.5-1.1-1.1-1.1h-9.6c-0.6,0-1.1,0.5-1.1,1.1c0,0.6,0.5,1.1,1.1,1.1h9.6C51.8,11.7,52.3,11.3,52.3,10.7z"
		/>
	<path d="M50.1,13.9H39.5c-0.6,0-1.1,0.5-1.1,1.1c0,0.6,0.5,1.1,1.1,1.1h10.7c0.6,0,1.1-0.5,1.1-1.1C51.2,14.3,50.7,13.9,50.1,13.9z
		"/>
	<path d="M51.2,19.2c0-0.6-0.5-1.1-1.1-1.1H39.5c-0.6,0-1.1,0.5-1.1,1.1s0.5,1.1,1.1,1.1h10.7C50.7,20.3,51.2,19.8,51.2,19.2z"/>
	<path d="M46.9,22.4H35.2c-0.6,0-1.1,0.5-1.1,1.1s0.5,1.1,1.1,1.1h11.7c0.6,0,1.1-0.5,1.1-1.1S47.5,22.4,46.9,22.4z"/>
	<path d="M46.9,26.7H35.2c-0.6,0-1.1,0.5-1.1,1.1s0.5,1.1,1.1,1.1h11.7c0.6,0,1.1-0.5,1.1-1.1S47.5,26.7,46.9,26.7z"/>
	<path d="M58.7,10.7c-2.9,0-5.3,2.4-5.3,5.3v5.3c-1.8,0-3.2,1.4-3.2,3.2v8.5c0,0.6,0.5,1.1,1.1,1.1s1.1-0.5,1.1-1.1v-8.5
		c0-0.6,0.5-1.1,1.1-1.1v26.7c0,0.6,0.5,1.1,1.1,1.1v3.2c0,0.6,0.5,1.1,1.1,1.1h0.2l1.9,7.7c0.1,0.6,0.7,0.9,1.3,0.8
		c0.4-0.1,0.7-0.4,0.8-0.8l1.9-7.7h0.2c0.6,0,1.1-0.5,1.1-1.1v-3.2c0.6,0,1.1-0.5,1.1-1.1V16C64,13.1,61.6,10.7,58.7,10.7z
		 M58.7,58.5l-0.8-3.1h1.5L58.7,58.5z M60.8,53.3h-4.3v-2.1h4.3V53.3z M61.9,49.1h-6.4V23.5h6.4V49.1z M61.9,21.3h-6.4v-2.1h6.4
		V21.3z M61.9,17.1h-6.4V16c0-1.8,1.4-3.2,3.2-3.2c1.8,0,3.2,1.4,3.2,3.2V17.1z"/>
	<path d="M26.7,23.5H5.3c-0.6,0-1.1,0.5-1.1,1.1v8.5c0,0.6,0.5,1.1,1.1,1.1h21.3c0.6,0,1.1-0.5,1.1-1.1v-8.5
		C27.7,23.9,27.3,23.5,26.7,23.5z M25.6,32H6.4v-6.4h19.2V32z"/>
	<path d="M9.6,36.3H5.3c-0.6,0-1.1,0.5-1.1,1.1v4.3c0,0.6,0.5,1.1,1.1,1.1h4.3c0.6,0,1.1-0.5,1.1-1.1v-4.3
		C10.7,36.7,10.2,36.3,9.6,36.3z M8.5,40.5H6.4v-2.1h2.1V40.5z"/>
	<path d="M9.6,44.8H5.3c-0.6,0-1.1,0.5-1.1,1.1v4.3c0,0.6,0.5,1.1,1.1,1.1h4.3c0.6,0,1.1-0.5,1.1-1.1v-4.3
		C10.7,45.3,10.2,44.8,9.6,44.8z M8.5,49.1H6.4v-2.1h2.1V49.1z"/>
	<path d="M9.6,53.3H5.3c-0.6,0-1.1,0.5-1.1,1.1v4.3c0,0.6,0.5,1.1,1.1,1.1h4.3c0.6,0,1.1-0.5,1.1-1.1v-4.3
		C10.7,53.8,10.2,53.3,9.6,53.3z M8.5,57.6H6.4v-2.1h2.1V57.6z"/>
	<path d="M18.1,36.3h-4.3c-0.6,0-1.1,0.5-1.1,1.1v4.3c0,0.6,0.5,1.1,1.1,1.1h4.3c0.6,0,1.1-0.5,1.1-1.1v-4.3
		C19.2,36.7,18.7,36.3,18.1,36.3z M17.1,40.5h-2.1v-2.1h2.1V40.5z"/>
	<path d="M18.1,44.8h-4.3c-0.6,0-1.1,0.5-1.1,1.1v4.3c0,0.6,0.5,1.1,1.1,1.1h4.3c0.6,0,1.1-0.5,1.1-1.1v-4.3
		C19.2,45.3,18.7,44.8,18.1,44.8z M17.1,49.1h-2.1v-2.1h2.1V49.1z"/>
	<path d="M18.1,53.3h-4.3c-0.6,0-1.1,0.5-1.1,1.1v4.3c0,0.6,0.5,1.1,1.1,1.1h4.3c0.6,0,1.1-0.5,1.1-1.1v-4.3
		C19.2,53.8,18.7,53.3,18.1,53.3z M17.1,57.6h-2.1v-2.1h2.1V57.6z"/>
	<path d="M26.7,36.3h-4.3c-0.6,0-1.1,0.5-1.1,1.1v4.3c0,0.6,0.5,1.1,1.1,1.1h4.3c0.6,0,1.1-0.5,1.1-1.1v-4.3
		C27.7,36.7,27.3,36.3,26.7,36.3z M25.6,40.5h-2.1v-2.1h2.1V40.5z"/>
	<path d="M26.7,44.8h-4.3c-0.6,0-1.1,0.5-1.1,1.1v4.3c0,0.6,0.5,1.1,1.1,1.1h4.3c0.6,0,1.1-0.5,1.1-1.1v-4.3
		C27.7,45.3,27.3,44.8,26.7,44.8z M25.6,49.1h-2.1v-2.1h2.1V49.1z"/>
	<path d="M26.7,53.3h-4.3c-0.6,0-1.1,0.5-1.1,1.1v4.3c0,0.6,0.5,1.1,1.1,1.1h4.3c0.6,0,1.1-0.5,1.1-1.1v-4.3
		C27.7,53.8,27.3,53.3,26.7,53.3z M25.6,57.6h-2.1v-2.1h2.1V57.6z"/>
</g>
</svg>
