<?xml version="1.0"?>
<svg xmlns="http://www.w3.org/2000/svg" id="Layer_1_copy" data-name="Layer 1 copy" viewBox="0 0 64 64" width="512" height="512"><path fill="#1668ac" stroke="#1668ac" d="M34.29,20.94H29.62A3.67,3.67,0,0,0,26,24.6V28H24a1,1,0,0,0-1,1v9.17a5.09,5.09,0,0,0,4.87,4.92h8.25A5.09,5.09,0,0,0,41,38.19V29a1,1,0,0,0-1-1H38V24.69A3.8,3.8,0,0,0,34.29,20.94ZM28,24.6a1.67,1.67,0,0,1,1.67-1.67h4.67A1.82,1.82,0,0,1,36,24.69V28H28ZM39,38.19a3.09,3.09,0,0,1-2.87,2.92H27.87A3.09,3.09,0,0,1,25,38.19V30H39Z"/><path fill="#1668ac" stroke="#1668ac" d="M32,30.9a3.63,3.63,0,0,0-3.62,3.62A3.47,3.47,0,0,0,31,37.87V39a1,1,0,0,0,2,0V37.87a3.47,3.47,0,0,0,2.63-3.35A3.63,3.63,0,0,0,32,30.9ZM32,36a1.53,1.53,0,0,1-1.62-1.5,1.63,1.63,0,0,1,3.25,0A1.53,1.53,0,0,1,32,36Z"/><path fill="#1668ac" stroke="#1668ac" d="M59,44.38a1,1,0,0,0,1-1V36.9a5,5,0,0,0,0-9.8V9.9A5,5,0,1,0,54.1,4H36.9a5,5,0,0,0-9.8,0H9.9A5,5,0,1,0,4,9.9v4.35a1,1,0,0,0,2,0V9.9A5,5,0,0,0,9.9,6H27.1A5,5,0,0,0,31,9.9V16a15.62,15.62,0,0,0-8.35,3,1,1,0,0,0,1.18,1.61A13.71,13.71,0,0,1,32,18h.12a14,14,0,0,1,9.64,24A13.75,13.75,0,0,1,32,46h-.12a14,14,0,0,1-11.5-21.7,1,1,0,0,0-1.67-1.1A16,16,0,0,0,16.14,31H9.9A5,5,0,0,0,6,27.1V18a1,1,0,0,0-2,0v9.1a5,5,0,0,0,0,9.8V54.1A5,5,0,1,0,9.9,60H27.1a5,5,0,0,0,9.8,0H54.1A5,5,0,1,0,60,54.1v-7a1,1,0,0,0-2,0v7A5,5,0,0,0,54.1,58H36.9A5,5,0,0,0,33,54.1V48A15.72,15.72,0,0,0,43.16,43.4,15.91,15.91,0,0,0,47.85,33H54.1A5,5,0,0,0,58,36.9v6.48A1,1,0,0,0,59,44.38ZM31,47.95V54.1A5,5,0,0,0,27.1,58H9.9A5,5,0,0,0,6,54.1V36.9A5,5,0,0,0,9.9,33h6.25A16,16,0,0,0,31,47.95ZM2,32a3,3,0,1,1,3,3A3,3,0,0,1,2,32ZM5,62a3,3,0,1,1,3-3A3,3,0,0,1,5,62Zm54-6a3,3,0,1,1-3,3A3,3,0,0,1,59,56ZM35,59a3,3,0,1,1-3-3A3,3,0,0,1,35,59ZM59,2a3,3,0,1,1-3,3A3,3,0,0,1,59,2ZM5,8A3,3,0,1,1,8,5,3,3,0,0,1,5,8ZM29,5a3,3,0,1,1,3,3A3,3,0,0,1,29,5Zm4,11.05V9.9A5,5,0,0,0,36.9,6H54.1A5,5,0,0,0,58,9.9V27.1A5,5,0,0,0,54.1,31H47.85A16,16,0,0,0,33,16.05ZM56,32a3,3,0,1,1,3,3A3,3,0,0,1,56,32Z"/></svg>

