<?xml version="1.0"?>
<svg xmlns="http://www.w3.org/2000/svg" height="512" viewBox="0 0 64 64" width="512" fill="#1668ac">
  <g id="optimize">
    <path d="m52 42h4v2h-4z"/>
    <path d="m52 38h4v2h-4z"/>
    <path d="m52 34h4v2h-4z"/>
    <path d="m52 30h4v2h-4z"/>
    <path d="m8 42h4v2h-4z"/>
    <path d="m8 38h4v2h-4z"/>
    <path d="m8 34h4v2h-4z"/>
    <path d="m8 30h4v2h-4z"/>
    <path d="m51 52h4a1 1 0 0 0 1-1v-4a1 1 0 0 0 -1-1h-4a1 1 0 0 0 -1 1v4a1 1 0 0 0 1 1zm1-4h2v2h-2z"/>
    <path d="m13 46h-4a1 1 0 0 0 -1 1v4a1 1 0 0 0 1 1h4a1 1 0 0 0 1-1v-4a1 1 0 0 0 -1-1zm-1 4h-2v-2h2z"/>
    <path d="m51 28h4a1 1 0 0 0 1-1v-4a1 1 0 0 0 -1-1h-4a1 1 0 0 0 -1 1v4a1 1 0 0 0 1 1zm1-4h2v2h-2z"/>
    <path d="m13 22h-4a1 1 0 0 0 -1 1v4a1 1 0 0 0 1 1h4a1 1 0 0 0 1-1v-4a1 1 0 0 0 -1-1zm-1 4h-2v-2h2z"/>
    <path d="m61.76 54.35a1.011 1.011 0 0 0 -.76-.35h-1v-33a3.009 3.009 0 0 0 -3-3h-20.87l-1.41-1.8 2.4-.31a1 1 0 0 0 .88-.99v-3.8a1 1 0 0 0 -.88-.99l-2.4-.31 1.49-1.91a1.006 1.006 0 0 0 -.08-1.32l-2.7-2.7a1.006 1.006 0 0 0 -1.32-.08l-1.91 1.49-.31-2.4a1 1 0 0 0 -.99-.88h-3.8a1 1 0 0 0 -.99.88l-.31 2.4-1.91-1.49a1.006 1.006 0 0 0 -1.32.08l-2.7 2.7a1.006 1.006 0 0 0 -.08 1.32l1.49 1.91-2.4.31a1 1 0 0 0 -.88.99v3.8a1 1 0 0 0 .88.99l2.4.31-1.41 1.8h-10.87a3.009 3.009 0 0 0 -3 3v33h-1a1.011 1.011 0 0 0 -.76.35 1.039 1.039 0 0 0 -.23.81l.73 4.33a2.978 2.978 0 0 0 2.95 2.51h52.62a2.978 2.978 0 0 0 2.95-2.51l.73-4.33a1.039 1.039 0 0 0 -.23-.81zm-43.76-40.33v-2.04l2.38-.3a1.019 1.019 0 0 0 .83-.69 4.26 4.26 0 0 1 .28-.7.982.982 0 0 0 -.11-1.04l-1.47-1.89 1.45-1.45 1.89 1.47a.982.982 0 0 0 1.04.11 4.26 4.26 0 0 1 .7-.28 1.019 1.019 0 0 0 .69-.83l.3-2.38h2.04l.3 2.38a1.019 1.019 0 0 0 .69.83 4.26 4.26 0 0 1 .7.28.98.98 0 0 0 1.04-.11l1.89-1.47 1.45 1.45-1.47 1.89a.982.982 0 0 0 -.11 1.04 4.26 4.26 0 0 1 .28.7 1.019 1.019 0 0 0 .83.69l2.38.3v2.04l-2.38.3a1.019 1.019 0 0 0 -.83.69 4.26 4.26 0 0 1 -.28.7.982.982 0 0 0 .11 1.04l1.47 1.89-1.45 1.45-1.64-1.28v-5.81a4 4 0 0 0 -8 0v5.81l-1.64 1.28-1.45-1.45 1.47-1.89a.982.982 0 0 0 .11-1.04 4.26 4.26 0 0 1 -.28-.7 1.019 1.019 0 0 0 -.83-.69zm19 21.98v-6a2 2 0 0 1 4 0v8h2v-6a2 2 0 0 1 4 0v6.7l-7.53 11.3h-15.9l-6.43-11.03 5.86-11.47v7.5h2v-22a2 2 0 0 1 4 0v22h2v-7a2 2 0 0 1 4 0v8zm-31-15a1 1 0 0 1 1-1h11.45l2.12 2.13a1.006 1.006 0 0 0 1.32.08l1.11-.86v1.75l-7.89 15.44a.967.967 0 0 0 .03.96l6.99 12a1 1 0 0 0 .86.5h17.02a1.008 1.008 0 0 0 .83-.45l7.99-12a.967.967 0 0 0 .17-.55v-7a4 4 0 0 0 -4-4 3.932 3.932 0 0 0 -2.24.69 4 4 0 0 0 -3.76-2.69 3.932 3.932 0 0 0 -2.24.69 4 4 0 0 0 -3.76-2.69 3.906 3.906 0 0 0 -2 .56v-3.21l1.11.86a.981.981 0 0 0 .61.21 1.024 1.024 0 0 0 .71-.29l2.12-2.13h21.45a1 1 0 0 1 1 1v33h-22a1 1 0 0 0 -1 1v1h-6v-1a1 1 0 0 0 -1-1h-22zm53.29 38.17a.989.989 0 0 1 -.98.83h-52.62a.989.989 0 0 1 -.98-.83l-.53-3.17h22.82v1a1 1 0 0 0 1 1h8a1 1 0 0 0 1-1v-1h22.82z"/>
    <path d="m48 6v-4h-2v3h-8v2h9a1 1 0 0 0 1-1z"/>
    <path d="m56 7a1 1 0 0 0 -1 1v4h-15v2h16a1 1 0 0 0 1-1v-4h5v-2z"/>
    <path d="m11 7h5v-2h-4v-3h-2v4a1 1 0 0 0 1 1z"/>
    <path d="m6 13a1 1 0 0 0 1 1h7v-2h-6v-5a1 1 0 0 0 -1-1h-5v2h4z"/>
  </g>
</svg>
