<?xml version="1.0" encoding="utf-8"?>
<!-- Generator: Adobe Illustrator 21.0.0, SVG Export Plug-In . SVG Version: 6.00 Build 0)  -->
<svg version="1.1" id="_x32_9" xmlns="http://www.w3.org/2000/svg" xmlns:xlink="http://www.w3.org/1999/xlink" x="0px" y="0px"
	 viewBox="0 0 512 512" style="enable-background:new 0 0 512 512;" xml:space="preserve">
<style type="text/css">
	.st0{fill:#2285B6;}
</style>
<g>
	<path class="st0" d="M32,120h48c4.4,0,8,3.6,8,8s-3.6,8-8,8H48c-13.2,0-24,10.8-24,24s10.8,24,24,24h88.8c3.7,18.2,19.9,32,39.2,32
		s35.5-13.8,39.2-32h97.6c3.7,18.2,19.9,32,39.2,32s35.5-13.8,39.2-32h85.7c15,0,27.1-12.2,27.1-27.1c0-4.5-1.1-9-3.3-13l-38.8-71.2
		C456.2,62.4,445.5,56,433.8,56H360V24c0-8.8-7.2-16-16-16H96C82.8,8,72,18.8,72,32s10.8,24,24,24h16c4.4,0,8,3.6,8,8s-3.6,8-8,8H32
		C18.8,72,8,82.8,8,96S18.8,120,32,120z M176,200c-13.2,0-24-10.8-24-24s10.8-24,24-24s24,10.8,24,24S189.2,200,176,200z M352,200
		c-13.2,0-24-10.8-24-24s10.8-24,24-24s24,10.8,24,24S365.2,200,352,200z M469.4,120H408v-16h52.7L469.4,120z M433.8,72
		c5.9,0,11.2,3.2,14,8.3L452,88h-44c-8.8,0-16,7.2-16,16v16c0,8.8,7.2,16,16,16h70.2l8.5,15.6c0.9,1.6,1.4,3.5,1.4,5.3
		c0,6.1-5,11.1-11.1,11.1h-85.7c-3.2-15.6-15.5-28-31.2-31.2V72H433.8z M32,88h80c13.2,0,24-10.8,24-24s-10.8-24-24-24H96
		c-4.4,0-8-3.6-8-8s3.6-8,8-8h248v112.8c-15.6,3.2-28,15.5-31.2,31.2h-97.6c-3.7-18.2-19.9-32-39.2-32s-35.5,13.8-39.2,32H48
		c-4.4,0-8-3.6-8-8s3.6-8,8-8h32c13.2,0,24-10.8,24-24s-10.8-24-24-24H32c-4.4,0-8-3.6-8-8S27.6,88,32,88L32,88z"/>
	<path class="st0" d="M457,215c20,20,31,46.6,31,74.9c0,73.9-60.1,134.1-134.1,134.1H312v42.2L224.1,416l87.9-50.2V408h41.9
		C419,408,472,355,472,289.9c0-24-9.4-46.6-26.3-63.6l-11.3,11.3c14,14,21.7,32.5,21.7,52.3c0,56.3-45.8,102.1-102.1,102.1H328
		v-53.8l-80,45.7V280c0-8.8-7.2-16-16-16H24c-8.8,0-16,7.2-16,16v208c0,8.8,7.2,16,16,16h208c8.8,0,16-7.2,16-16v-39.9l80,45.7V440
		h25.9c82.7,0,150.1-67.3,150.1-150.1c0-32.6-12.7-63.2-35.7-86.2L457,215z M104,280h48v48h-48V280z M232,488H24V280h64v48
		c0,8.8,7.2,16,16,16h48c8.8,0,16-7.2,16-16v-48h64v113.1L191.9,416l40.1,22.9V488z"/>
	<path class="st0" d="M264,288c0,13.2,10.8,24,24,24s24-10.8,24-24s-10.8-24-24-24S264,274.8,264,288z M296,288c0,4.4-3.6,8-8,8
		s-8-3.6-8-8s3.6-8,8-8S296,283.6,296,288z"/>
	<path class="st0" d="M328,288c0,13.2,10.8,24,24,24s24-10.8,24-24s-10.8-24-24-24S328,274.8,328,288z M360,288c0,4.4-3.6,8-8,8
		s-8-3.6-8-8s3.6-8,8-8S360,283.6,360,288z"/>
	<path class="st0" d="M392,288c0,13.2,10.8,24,24,24s24-10.8,24-24s-10.8-24-24-24S392,274.8,392,288z M416,280c4.4,0,8,3.6,8,8
		s-3.6,8-8,8s-8-3.6-8-8S411.6,280,416,280z"/>
</g>
</svg>
