<?xml version="1.0" encoding="UTF-8"?>
<svg xmlns="http://www.w3.org/2000/svg" xmlns:xlink="http://www.w3.org/1999/xlink" width="64pt" height="64pt" viewBox="0 0 64 64" version="1.1">
<g id="surface1">
<path style=" stroke:none;fill-rule:nonzero;fill:rgb(8.627451%,40.784314%,67.45098%);fill-opacity:1;" d="M 48 16.816406 L 48 19 L 50 19 L 50 17 L 52 17 L 52 14 C 52 12.347656 50.652344 11 49 11 C 48.449219 11 48 10.550781 48 10 L 48 9 L 49 9 C 49.550781 9 50 9.449219 50 10 L 50 11 L 52 11 L 52 10 C 52 8.699219 51.160156 7.597656 50 7.183594 L 50 5 L 48 5 L 48 7 L 46 7 L 46 10 C 46 11.652344 47.347656 13 49 13 C 49.550781 13 50 13.449219 50 14 L 50 15 L 49 15 C 48.449219 15 48 14.550781 48 14 L 48 13 L 46 13 L 46 14 C 46 15.300781 46.839844 16.402344 48 16.816406 Z M 48 16.816406 "/>
<path style=" stroke:none;fill-rule:nonzero;fill:rgb(8.627451%,40.784314%,67.45098%);fill-opacity:1;" d="M 62.628906 16.84375 C 62.871094 16.5 63 16.097656 63 15.679688 L 63 13 C 63 11.898438 62.101562 11 61 11 L 59.949219 11 C 59.441406 5.402344 54.726562 1 49 1 C 43.273438 1 38.558594 5.402344 38.050781 11 L 37 11 C 35.898438 11 35 11.898438 35 13 L 29 13 L 29 8 C 29 6.347656 27.652344 5 26 5 L 4 5 C 2.347656 5 1 6.347656 1 8 L 1 28 C 1 29.300781 1.839844 30.402344 3 30.816406 L 3 53.183594 C 1.839844 53.597656 1 54.699219 1 56 C 1 59.859375 4.140625 63 8 63 L 56 63 C 59.859375 63 63 59.859375 63 56 C 63 54.699219 62.160156 53.597656 61 53.183594 L 61 19.121094 Z M 49 3 C 53.964844 3 58 7.039062 58 12 C 58 16.960938 53.964844 21 49 21 C 44.035156 21 40 16.960938 40 12 C 40 7.039062 44.035156 3 49 3 Z M 37 13 L 38.050781 13 C 38.558594 18.597656 43.273438 23 49 23 C 54.726562 23 59.441406 18.597656 59.949219 13 L 61 13 L 61 15.679688 L 51.484375 29 L 46.515625 29 L 37 15.679688 Z M 9 31 L 15 31 L 15 37 L 37 37 L 37 21 L 29 21 L 29 19 L 36.914062 19 L 45 30.320312 L 45 39.585938 C 45 40.113281 45.214844 40.628906 45.585938 41 L 48.878906 44.292969 C 49.328125 44.742188 49.949219 45 50.585938 45 C 51.917969 45 53 43.917969 53 42.585938 L 53 30.320312 L 55 27.519531 L 55 49 L 9 49 Z M 29 28 L 29 23 L 35 23 L 35 35 L 17 35 L 17 31 L 26 31 C 27.652344 31 29 29.652344 29 28 Z M 51 31 L 51 42.585938 C 51 42.925781 50.53125 43.117188 50.292969 42.878906 L 47 39.585938 L 47 31 Z M 35 15 L 35 15.679688 C 35 16.097656 35.128906 16.5 35.371094 16.84375 L 35.484375 17 L 29 17 L 29 15 Z M 3 8 C 3 7.449219 3.449219 7 4 7 L 26 7 C 26.550781 7 27 7.449219 27 8 L 27 28 C 27 28.550781 26.550781 29 26 29 L 4 29 C 3.449219 29 3 28.550781 3 28 Z M 56 61 L 8 61 C 5.242188 61 3 58.757812 3 56 C 3 55.449219 3.449219 55 4 55 L 21.101562 55 C 21.566406 57.277344 23.585938 59 26 59 L 38 59 C 40.414062 59 42.433594 57.277344 42.898438 55 L 60 55 C 60.550781 55 61 55.449219 61 56 C 61 58.757812 58.757812 61 56 61 Z M 23.183594 55 L 40.816406 55 C 40.402344 56.160156 39.300781 57 38 57 L 26 57 C 24.699219 57 23.597656 56.160156 23.183594 55 Z M 59 53 L 5 53 L 5 31 L 7 31 L 7 49 C 7 50.101562 7.898438 51 9 51 L 55 51 C 56.101562 51 57 50.101562 57 49 L 57 24.71875 L 59 21.921875 Z M 59 53 "/>
<path style=" stroke:none;fill-rule:nonzero;fill:rgb(8.627451%,40.784314%,67.45098%);fill-opacity:1;" d="M 49 57 L 51 57 L 51 59 L 49 59 Z M 53 57 L 55 57 L 55 59 L 53 59 Z M 7 9.324219 L 7 26.675781 L 23.109375 18 Z M 9 12.675781 L 18.890625 18 L 9 23.324219 Z M 11 47 L 19 47 L 19 39 L 11 39 Z M 13 41 L 17 41 L 17 45 L 13 45 Z M 21 47 L 29 47 L 29 39 L 21 39 Z M 23 41 L 27 41 L 27 45 L 23 45 Z M 31 39 L 37 39 L 37 41 L 31 41 Z M 39 39 L 43 39 L 43 41 L 39 41 Z M 31 43 L 43 43 L 43 45 L 31 45 Z M 31 43 "/>
</g>
</svg>
