<?xml version="1.0" encoding="utf-8"?>
<!-- Generator: Adobe Illustrator 21.0.0, SVG Export Plug-In . SVG Version: 6.00 Build 0)  -->
<svg version="1.1" id="Layer_1" xmlns="http://www.w3.org/2000/svg" xmlns:xlink="http://www.w3.org/1999/xlink" x="0px" y="0px"
	 viewBox="0 0 64 64" style="enable-background:new 0 0 64 64;" xml:space="preserve">
<g id="website_support">
	<path d="M60.8,0H3.2C1.4,0,0,1.4,0,3.2v39.5c0,1.8,1.4,3.2,3.2,3.2h11.1c0,0.1,0,0.3,0,0.4l-2.7,4.5c-0.8,1.3-0.6,2.9,0.5,3.9
		l3.7,3.7c1,1,2.7,1.2,3.9,0.5l4.5-2.7c0.2-0.1,0.4-0.1,0.6,0c0.2,0.1,0.3,0.2,0.4,0.4l1.3,5.1c0.4,1.4,1.6,2.4,3.1,2.4h5.2
		c1.5,0,2.7-1,3.1-2.4l1.3-5.1c0.1-0.2,0.2-0.3,0.4-0.4c0.2-0.1,0.4-0.1,0.5,0l4.5,2.7c1.3,0.8,2.9,0.5,3.9-0.5l3.7-3.7
		c1-1,1.2-2.7,0.5-3.9l-2.7-4.5c-0.1-0.1-0.1-0.3,0-0.4h11.1c1.8,0,3.2-1.4,3.2-3.2V3.2C64,1.4,62.6,0,60.8,0L60.8,0z M55.5,41
		c0,0.5-0.3,0.9-0.8,1l-5.1,1.3c-0.8,0.2-1.5,0.8-1.9,1.6c-0.3,0.8-0.3,1.7,0.2,2.4l2.7,4.5c0.3,0.4,0.2,1-0.2,1.3l-3.7,3.7
		c-0.3,0.4-0.9,0.4-1.3,0.2L41,54.3c-1.3-0.8-3-0.3-3.8,1c-0.1,0.2-0.2,0.4-0.3,0.7l-1.3,5.1c-0.1,0.5-0.5,0.8-1,0.8h-5.2
		c-0.5,0-0.9-0.3-1-0.8L27.1,56c-0.2-0.8-0.8-1.5-1.6-1.9c-0.3-0.1-0.7-0.2-1.1-0.2c-0.5,0-1,0.1-1.4,0.4L18.5,57
		c-0.4,0.3-1,0.2-1.3-0.2l-3.7-3.7c-0.4-0.3-0.4-0.9-0.2-1.3l2.7-4.5c0.8-1.3,0.3-3-1-3.8c-0.2-0.1-0.4-0.2-0.7-0.3L9.3,42
		c-0.5-0.1-0.8-0.5-0.8-1v-5.2c0-0.5,0.3-0.9,0.8-1l5.1-1.3c0.8-0.2,1.5-0.8,1.9-1.6c0.3-0.8,0.3-1.7-0.2-2.4l-2.7-4.5
		c-0.3-0.4-0.2-1,0.2-1.3l3.7-3.7c0.3-0.4,0.9-0.4,1.3-0.2l4.5,2.7c1.3,0.8,3,0.3,3.8-1c0.1-0.2,0.2-0.4,0.3-0.7l1.3-5.1
		c0.1-0.5,0.5-0.8,1-0.8h5.2c0.5,0,0.9,0.3,1,0.8l1.3,5.1c0.2,0.8,0.8,1.5,1.6,1.9c0.8,0.3,1.7,0.3,2.4-0.2l4.5-2.7
		c0.4-0.3,1-0.2,1.3,0.2l3.7,3.7c0.4,0.3,0.4,0.9,0.2,1.3l-2.7,4.5c-0.8,1.3-0.3,3,1,3.8c0.2,0.1,0.4,0.2,0.7,0.3l5.1,1.3
		c0.5,0.1,0.8,0.5,0.8,1L55.5,41z M61.9,42.7c0,0.6-0.5,1.1-1.1,1.1h-4.7c1-0.6,1.5-1.6,1.5-2.7v-5.2c0-1.5-1-2.7-2.4-3.1l-5.1-1.3
		c-0.1,0-0.3-0.1-0.4-0.3c0,0,0-0.1,0-0.1c-0.1-0.2-0.1-0.4,0-0.5l2.7-4.5c0.8-1.3,0.6-2.9-0.5-3.9l-3.7-3.7c-1-1-2.7-1.2-3.9-0.5
		l-4.5,2.7c-0.2,0.1-0.4,0.1-0.6,0c-0.2-0.1-0.3-0.2-0.4-0.4l-1.3-5.1c-0.4-1.4-1.6-2.4-3.1-2.4h-5.2c-1.5,0-2.7,1-3.1,2.4L25,20.3
		c-0.1,0.2-0.2,0.3-0.4,0.4c-0.2,0.1-0.4,0.1-0.5,0L19.6,18c-1.3-0.8-2.9-0.5-3.9,0.5l-3.7,3.7c-1,1-1.2,2.7-0.5,3.9l2.7,4.5
		c0.1,0.2,0.1,0.4,0,0.6c-0.1,0.2-0.2,0.3-0.4,0.4l-5.1,1.3c-1.4,0.4-2.4,1.6-2.4,3.1V41c0,1.1,0.6,2.2,1.5,2.7H3.2
		c-0.6,0-1.1-0.5-1.1-1.1v-32h59.7V42.7z M61.9,8.5H2.1V3.2c0-0.6,0.5-1.1,1.1-1.1h57.6c0.6,0,1.1,0.5,1.1,1.1V8.5z"/>
	<path d="M4.3,4.3h2.1v2.1H4.3V4.3z"/>
	<path d="M8.5,4.3h2.1v2.1H8.5V4.3z"/>
	<path d="M12.8,4.3h2.1v2.1h-2.1V4.3z"/>
	<path d="M32,25.6c-7.1,0-12.8,5.7-12.8,12.8S24.9,51.2,32,51.2s12.8-5.7,12.8-12.8C44.8,31.3,39.1,25.6,32,25.6z M32,49.1
		c-5.9,0-10.7-4.8-10.7-10.7S26.1,27.7,32,27.7c5.9,0,10.7,4.8,10.7,10.7C42.7,44.3,37.9,49.1,32,49.1z"/>
	<path d="M30.9,37.3h2.1v2.1h-2.1V37.3z"/>
	<path d="M35.2,37.3h2.1v2.1h-2.1V37.3z"/>
	<path d="M26.7,37.3h2.1v2.1h-2.1V37.3z"/>
</g>
</svg>
