<?xml version="1.0" encoding="utf-8"?>
<!-- Generator: Adobe Illustrator 21.0.0, SVG Export Plug-In . SVG Version: 6.00 Build 0)  -->
<svg version="1.1" id="Layer_1" xmlns="http://www.w3.org/2000/svg" xmlns:xlink="http://www.w3.org/1999/xlink" x="0px" y="0px"
	 viewBox="0 0 512 512" style="enable-background:new 0 0 512 512;" xml:space="preserve">
<style type="text/css">
	.st0{fill:#2285B6;}
</style>
<g id="Outline">
	<g id="website-web-management">
		<path class="st0" d="M273.5,224.6l-21.5,2.9c-4.6-5.7-9.7-10.9-15.5-15.5l2.9-21.5l-39.2-16.2l-13.2,17.2
			c-7.3-0.8-14.6-0.8-21.9,0l-13.2-17.2l-39.2,16.2l2.9,21.5c-5.7,4.6-10.9,9.7-15.5,15.5l-21.5-2.9l-16.2,39.2l17.2,13.2
			c-0.8,7.3-0.8,14.6,0,21.9l-17.2,13.2l16.2,39.2l21.5-2.9c4.6,5.7,9.7,10.9,15.5,15.5l-2.9,21.5l39.2,16.2l13.2-17.2
			c7.3,0.8,14.6,0.8,21.9,0l13.2,17.2l39.2-16.2l-2.9-21.5c5.7-4.6,10.9-9.7,15.5-15.5l21.5,2.9l16.2-39.2l-17.2-13.2
			c0.8-7.3,0.8-14.6,0-21.9l17.2-13.2L273.5,224.6z M256,274.8c1.4,8.7,1.4,17.6,0,26.4l-0.8,4.7l15,11.5l-6.8,16.5l-18.7-2.5
			l-2.8,3.9c-5.2,7.2-11.4,13.5-18.6,18.6l-3.9,2.8l2.5,18.7l-16.5,6.8l-11.5-15l-4.7,0.8c-8.7,1.4-17.6,1.4-26.4,0l-4.7-0.8
			l-11.5,15l-16.5-6.8l2.5-18.7l-3.9-2.8c-7.2-5.2-13.5-11.4-18.6-18.6l-2.8-3.9l-18.7,2.5l-6.8-16.5l15-11.5l-0.8-4.7
			c-1.4-8.7-1.4-17.6,0-26.4l0.8-4.7l-15-11.5l6.8-16.5l18.7,2.5l2.8-3.9c5.2-7.2,11.4-13.5,18.6-18.6l3.9-2.8l-2.5-18.7l16.5-6.8
			l11.5,15l4.7-0.8c8.7-1.4,17.6-1.4,26.4,0l4.7,0.8l11.5-15l16.5,6.8l-2.5,18.7l3.9,2.8c7.2,5.2,13.5,11.4,18.6,18.6l2.8,3.9
			l18.7-2.5l6.8,16.5l-15,11.5L256,274.8z"/>
		<path class="st0" d="M176,240c-26.5,0-48,21.5-48,48s21.5,48,48,48s48-21.5,48-48C224,261.5,202.5,240,176,240z M176,320
			c-17.7,0-32-14.3-32-32s14.3-32,32-32s32,14.3,32,32C208,305.7,193.7,320,176,320z"/>
		<path class="st0" d="M456,80H56c-22.1,0-40,17.9-40,40v272c0,22.1,17.9,40,40,40h400c22.1,0,40-17.9,40-40V120
			C496,97.9,478.1,80,456,80z M56,96h400c13.2,0,24,10.8,24,24v24H32v-24C32,106.8,42.8,96,56,96z M456,416H56
			c-13.2,0-24-10.8-24-24V160h448v232C480,405.2,469.2,416,456,416z"/>
		<path class="st0" d="M64,112h16v16H64V112z"/>
		<path class="st0" d="M96,112h16v16H96V112z"/>
		<path class="st0" d="M128,112h16v16h-16V112z"/>
		<path class="st0" d="M256,112h192v16H256V112z"/>
		<path class="st0" d="M416,184c0-4.4-3.6-8-8-8h-32c-4.4,0-8,3.6-8,8v16h-64v16h64v16c0,4.4,3.6,8,8,8h32c4.4,0,8-3.6,8-8v-16h32
			v-16h-32V184z M400,224h-16v-32h16V224z"/>
		<path class="st0" d="M368,264c0-4.4-3.6-8-8-8h-32c-4.4,0-8,3.6-8,8v16h-16v16h16v16c0,4.4,3.6,8,8,8h32c4.4,0,8-3.6,8-8v-16h80
			v-16h-80V264z M352,304h-16v-32h16V304z"/>
		<path class="st0" d="M400,344c0-4.4-3.6-8-8-8h-32c-4.4,0-8,3.6-8,8v16h-48v16h48v16c0,4.4,3.6,8,8,8h32c4.4,0,8-3.6,8-8v-16h48
			v-16h-48V344z M384,384h-16v-32h16V384z"/>
	</g>
</g>
</svg>
