<?xml version="1.0" encoding="UTF-8"?>
<svg xmlns="http://www.w3.org/2000/svg" xmlns:xlink="http://www.w3.org/1999/xlink" width="64pt" height="64pt" viewBox="0 0 64 64" version="1.1">
<g id="surface1">
<path style=" stroke:none;fill-rule:nonzero;fill:rgb(8.627451%,40.784314%,67.45098%);fill-opacity:1;" d="M 61.933594 8.773438 L 2.066406 8.773438 C 0.925781 8.773438 0 9.699219 0 10.839844 L 0 53.160156 C 0 54.300781 0.925781 55.226562 2.066406 55.226562 L 61.933594 55.226562 C 63.074219 55.226562 64 54.300781 64 53.160156 L 64 10.839844 C 64 9.699219 63.074219 8.773438 61.933594 8.773438 Z M 61.933594 10.839844 L 61.933594 19.097656 L 2.066406 19.097656 L 2.066406 10.839844 Z M 2.066406 53.160156 L 2.066406 21.160156 L 61.933594 21.160156 L 61.933594 53.160156 Z M 2.066406 53.160156 "/>
<path style=" stroke:none;fill-rule:nonzero;fill:rgb(8.627451%,40.784314%,67.45098%);fill-opacity:1;" d="M 6.195312 18.066406 C 7.902344 18.066406 9.289062 16.679688 9.289062 14.96875 C 9.289062 13.257812 7.902344 11.871094 6.195312 11.871094 C 4.484375 11.871094 3.097656 13.257812 3.097656 14.96875 C 3.097656 16.679688 4.484375 18.066406 6.195312 18.066406 Z M 6.195312 13.933594 C 6.761719 13.933594 7.226562 14.398438 7.226562 14.96875 C 7.226562 15.539062 6.761719 16 6.195312 16 C 5.625 16 5.160156 15.539062 5.160156 14.96875 C 5.160156 14.398438 5.625 13.933594 6.195312 13.933594 Z M 13.417969 18.066406 C 15.128906 18.066406 16.515625 16.679688 16.515625 14.96875 C 16.515625 13.257812 15.128906 11.871094 13.417969 11.871094 C 11.710938 11.871094 10.324219 13.257812 10.324219 14.96875 C 10.324219 16.679688 11.710938 18.066406 13.417969 18.066406 Z M 13.417969 13.933594 C 13.988281 13.933594 14.453125 14.398438 14.453125 14.96875 C 14.453125 15.539062 13.988281 16 13.417969 16 C 12.847656 16 12.386719 15.539062 12.386719 14.96875 C 12.386719 14.398438 12.847656 13.933594 13.417969 13.933594 Z M 20.644531 18.066406 C 22.355469 18.066406 23.742188 16.679688 23.742188 14.96875 C 23.742188 13.257812 22.355469 11.871094 20.644531 11.871094 C 18.933594 11.871094 17.546875 13.257812 17.546875 14.96875 C 17.546875 16.679688 18.933594 18.066406 20.644531 18.066406 Z M 20.644531 13.933594 C 21.214844 13.933594 21.675781 14.398438 21.675781 14.96875 C 21.675781 15.539062 21.214844 16 20.644531 16 C 20.074219 16 19.613281 15.539062 19.613281 14.96875 C 19.613281 14.398438 20.074219 13.933594 20.644531 13.933594 Z M 58.839844 14.96875 L 59.871094 14.96875 C 60.441406 14.96875 60.902344 14.503906 60.902344 13.933594 C 60.902344 13.367188 60.441406 12.902344 59.871094 12.902344 L 58.839844 12.902344 C 58.269531 12.902344 57.804688 13.367188 57.804688 13.933594 C 57.804688 14.503906 58.269531 14.96875 58.839844 14.96875 Z M 47.484375 14.96875 L 54.710938 14.96875 C 55.28125 14.96875 55.742188 14.503906 55.742188 13.933594 C 55.742188 13.367188 55.28125 12.902344 54.710938 12.902344 L 47.484375 12.902344 C 46.914062 12.902344 46.453125 13.367188 46.453125 13.933594 C 46.453125 14.503906 46.914062 14.96875 47.484375 14.96875 Z M 45.15625 29.761719 C 44.960938 29.542969 44.679688 29.417969 44.386719 29.417969 L 38.195312 29.417969 L 38.195312 28.386719 C 38.191406 25.539062 35.882812 23.230469 33.03125 23.226562 L 30.96875 23.226562 C 28.117188 23.230469 25.808594 25.539062 25.804688 28.386719 L 25.804688 29.417969 L 19.613281 29.417969 C 19.320312 29.417969 19.039062 29.542969 18.84375 29.761719 C 18.648438 29.980469 18.554688 30.273438 18.585938 30.566406 L 20.652344 49.144531 C 20.710938 49.667969 21.152344 50.066406 21.675781 50.066406 L 42.324219 50.066406 C 42.847656 50.066406 43.289062 49.667969 43.347656 49.144531 L 45.414062 30.566406 C 45.445312 30.273438 45.351562 29.980469 45.15625 29.761719 Z M 27.871094 28.386719 C 27.871094 26.675781 29.257812 25.289062 30.96875 25.289062 L 33.03125 25.289062 C 34.742188 25.289062 36.128906 26.675781 36.128906 28.386719 L 36.128906 29.417969 L 27.871094 29.417969 Z M 41.394531 48 L 22.605469 48 L 20.765625 31.484375 L 43.234375 31.484375 Z M 41.394531 48 "/>
</g>
</svg>
