<?xml version="1.0" encoding="utf-8"?>
<!-- Generator: Adobe Illustrator 21.0.0, SVG Export Plug-In . SVG Version: 6.00 Build 0)  -->
<svg version="1.1" id="Capa_1" xmlns="http://www.w3.org/2000/svg" xmlns:xlink="http://www.w3.org/1999/xlink" x="0px" y="0px"
	 viewBox="0 0 64 62.8" style="enable-background:new 0 0 64 62.8;" xml:space="preserve">
<style type="text/css">
	.st0{fill:url(#SVGID_1_);}
	.st1{fill:url(#SVGID_2_);}
	.st2{fill:url(#SVGID_3_);}
	.st3{fill:url(#SVGID_4_);}
</style>
<g>
	<linearGradient id="SVGID_1_" gradientUnits="userSpaceOnUse" x1="4.737" y1="54.2636" x2="59.263" y2="-0.2623">
		<stop  offset="0" style="stop-color:#008DD2"/>
		<stop  offset="1" style="stop-color:#2E4183"/>
	</linearGradient>
	<path class="st0" d="M56.4,0H7.6C3.4,0,0,3.4,0,7.6v38.5c0,4.2,3.4,7.6,7.6,7.6H20V59h-6c-1,0-1.9,0.8-1.9,1.9c0,1,0.8,1.9,1.9,1.9
		h36c1,0,1.9-0.8,1.9-1.9c0-1-0.8-1.9-1.9-1.9h-6v-5.3h12.3c4.2,0,7.6-3.4,7.6-7.6V7.6C64,3.4,60.6,0,56.4,0z M40.3,59H23.7v-5.3
		h16.6V59z M60.3,46.1c0,2.1-1.7,3.9-3.9,3.9c-2.9,0-46,0-48.7,0c-2.1,0-3.9-1.7-3.9-3.9v-0.4h56.5V46.1z M60.3,42H3.8V7.6
		c0-2.1,1.7-3.9,3.9-3.9h48.7c2.1,0,3.9,1.7,3.9,3.9V42z"/>
	<linearGradient id="SVGID_2_" gradientUnits="userSpaceOnUse" x1="19.2176" y1="27.7042" x2="37.6944" y2="9.2274">
		<stop  offset="0" style="stop-color:#008DD2"/>
		<stop  offset="1" style="stop-color:#2E4183"/>
	</linearGradient>
	<path class="st1" d="M41.8,14.5H23.9V9.9C23.9,8.8,23,8,22,8h-5.9c-1,0-1.9,0.8-1.9,1.9c0,1,0.8,1.9,1.9,1.9h4.1v15.7
		c0,1.5,1.3,2.8,2.8,2.8h16.2c1.3,0,2.4-0.9,2.7-2.1L44.5,18C45,16.2,43.6,14.5,41.8,14.5z M38.4,26.5H23.9c0-2.8,0-6.5,0-8.3h16.7
		L38.4,26.5z"/>
	<linearGradient id="SVGID_3_" gradientUnits="userSpaceOnUse" x1="22.4242" y1="37.9508" x2="26.5758" y2="33.7992">
		<stop  offset="0" style="stop-color:#008DD2"/>
		<stop  offset="1" style="stop-color:#2E4183"/>
	</linearGradient>
	<path class="st2" d="M26,34h-3c-1,0-1.9,0.8-1.9,1.9c0,1,0.8,1.9,1.9,1.9h3c1,0,1.9-0.8,1.9-1.9C27.9,34.8,27,34,26,34z"/>
	<linearGradient id="SVGID_4_" gradientUnits="userSpaceOnUse" x1="35.4242" y1="37.9508" x2="39.5758" y2="33.7992">
		<stop  offset="0" style="stop-color:#008DD2"/>
		<stop  offset="1" style="stop-color:#2E4183"/>
	</linearGradient>
	<path class="st3" d="M39,34h-3c-1,0-1.9,0.8-1.9,1.9c0,1,0.8,1.9,1.9,1.9h3c1,0,1.9-0.8,1.9-1.9C40.9,34.8,40,34,39,34z"/>
</g>
</svg>
