<?xml version="1.0" encoding="utf-8"?>
<!-- Generator: Adobe Illustrator 21.0.0, SVG Export Plug-In . SVG Version: 6.00 Build 0)  -->
<svg version="1.1" id="Layer_1" xmlns="http://www.w3.org/2000/svg" xmlns:xlink="http://www.w3.org/1999/xlink" x="0px" y="0px"
	 viewBox="0 0 64 64" style="enable-background:new 0 0 64 64;" xml:space="preserve">
<g id="graduate-avatar-laptop-education">
	<path d="M62.9,57.6h-1.4c0.2-0.7,0.3-1.4,0.3-2.1c0-2-0.8-3.8-2.1-5.2v-8.7c0-2.5-1.8-4.7-4.3-5.2v-3.3c0-1.8-1.4-3.2-3.2-3.2H41
		c1.7-2.1,2.7-4.7,2.7-7.5v-1.2c2.3-0.6,3.6-2.9,3.1-5.2c-0.4-1.5-1.6-2.7-3.2-3.1L43,7.6l2.9-0.8v3.9H48V5.3c0-0.5-0.3-0.9-0.8-1
		L32.3,0C32.1,0,31.9,0,31.7,0L16.8,4.3c-0.6,0.2-0.9,0.8-0.7,1.3c0.1,0.3,0.4,0.6,0.7,0.7L21,7.6l-0.7,5.3
		c-2.3,0.5-3.7,2.8-3.2,5.1c0.4,1.6,1.5,2.8,3.1,3.2v1.2c0,2.7,1,5.4,2.7,7.5H11.7c-1.8,0-3.2,1.4-3.2,3.2v3.3
		c-2.5,0.5-4.3,2.7-4.3,5.2v8.7c-1.4,1.4-2.1,3.3-2.1,5.2c0,0.7,0.1,1.4,0.3,2.1H1.1c-0.6,0-1.1,0.5-1.1,1.1v4.3
		C0,63.5,0.5,64,1.1,64h61.9c0.6,0,1.1-0.5,1.1-1.1v-4.3C64,58.1,63.5,57.6,62.9,57.6z M43.7,15.2c1,0.6,1.4,1.9,0.8,2.9
		c-0.2,0.3-0.5,0.6-0.8,0.8V15.2z M20.3,18.9c-1-0.6-1.4-1.9-0.8-2.9c0.2-0.3,0.5-0.6,0.8-0.8V18.9z M55.5,38.6
		c1.3,0.5,2.1,1.7,2.1,3v7.1c-0.7-0.3-1.4-0.5-2.1-0.6V38.6z M55.5,50.2c2.5,0.5,4.3,2.7,4.3,5.2c0,0.7-0.2,1.5-0.4,2.1h-1.9
		c0.1-0.3,0.2-0.7,0.2-1.1v-1.1c0-1.2-1-2.1-2.1-2.1V50.2z M20.9,5.3L32,2.2l11.1,3.2L32,8.5L20.9,5.3z M41.5,12.8H22.5l0.6-4.6
		l8.6,2.5c0.2,0.1,0.4,0.1,0.6,0l8.6-2.5L41.5,12.8z M22.4,22.4v-7.5h19.2v7.5c0,2.5-1,5-2.8,6.8c-0.2,0.2-0.5,0.5-0.8,0.7H26
		C23.7,28,22.4,25.3,22.4,22.4z M10.7,33.1c0-0.6,0.5-1.1,1.1-1.1h40.5c0.6,0,1.1,0.5,1.1,1.1v20.3H10.7V33.1z M55.5,55.5v1.1
		c0,0.6-0.5,1.1-1.1,1.1H9.6c-0.6,0-1.1-0.5-1.1-1.1v-1.1H55.5z M6.4,41.6c0-1.4,0.9-2.6,2.1-3v9.5c-0.7,0.1-1.5,0.3-2.1,0.6V41.6z
		 M8.5,50.2v3.1c-1.2,0-2.1,1-2.1,2.1v1.1c0,0.4,0.1,0.7,0.2,1.1H4.7c-1.2-2.7,0.1-5.8,2.8-7C7.8,50.4,8.2,50.3,8.5,50.2z
		 M61.9,61.9H2.1v-2.1h59.7V61.9z"/>
	<path d="M32,46.9c2.4,0,4.3-1.9,4.3-4.3h-2.1c0,1.2-1,2.1-2.1,2.1c-1.2,0-2.1-1-2.1-2.1s1-2.1,2.1-2.1v-2.1c-2.4,0-4.3,1.9-4.3,4.3
		C27.7,45,29.6,46.9,32,46.9z"/>
	<path d="M27.7,22.4c0.6,0,1.1-0.5,1.1-1.1v-2.1c0-0.6-0.5-1.1-1.1-1.1s-1.1,0.5-1.1,1.1v2.1C26.7,21.9,27.1,22.4,27.7,22.4z"/>
	<path d="M36.3,18.1c-0.6,0-1.1,0.5-1.1,1.1v2.1c0,0.6,0.5,1.1,1.1,1.1s1.1-0.5,1.1-1.1v-2.1C37.3,18.6,36.9,18.1,36.3,18.1z"/>
	<path d="M32,26.7c-2.1,0-3.2-0.8-3.2-1.1h-2.1c0,1.8,2.3,3.2,5.3,3.2s5.3-1.4,5.3-3.2h-2.1C35.2,25.9,34.1,26.7,32,26.7z"/>
</g>
</svg>
