<?xml version="1.0" encoding="utf-8"?>
<!-- Generator: Adobe Illustrator 21.0.0, SVG Export Plug-In . SVG Version: 6.00 Build 0)  -->
<svg version="1.1" id="Layer_1" xmlns="http://www.w3.org/2000/svg" xmlns:xlink="http://www.w3.org/1999/xlink" x="0px" y="0px"
	 viewBox="0 0 64 64" style="enable-background:new 0 0 64 64;" xml:space="preserve">
<style type="text/css">
	.st0{fill:url(#SVGID_1_);}
	.st1{fill:url(#SVGID_2_);}
	.st2{fill:url(#SVGID_3_);}
	.st3{fill:url(#SVGID_4_);}
	.st4{fill:url(#SVGID_5_);}
	.st5{fill:url(#SVGID_6_);}
	.st6{fill:url(#SVGID_7_);}
	.st7{fill:url(#SVGID_8_);}
	.st8{fill:url(#SVGID_9_);}
	.st9{fill:url(#SVGID_10_);}
	.st10{fill:url(#SVGID_11_);}
	.st11{fill:url(#SVGID_12_);}
	.st12{fill:url(#SVGID_13_);}
	.st13{fill:url(#SVGID_14_);}
	.st14{fill:url(#SVGID_15_);}
</style>
<g>
	<linearGradient id="SVGID_1_" gradientUnits="userSpaceOnUse" x1="14.9333" y1="32" x2="49.0667" y2="32">
		<stop  offset="0" style="stop-color:#008DD2"/>
		<stop  offset="1" style="stop-color:#2E4183"/>
	</linearGradient>
	<path class="st0" d="M47.6,48.2l-4.9-3.9V33.1h6.4v-2.1h-6.4V19.7l4.9-3.9l-1.3-1.7L42.7,17v-2c0-0.6-0.5-1.1-1.1-1.1H22.4
		c-0.6,0-1.1,0.5-1.1,1.1v2l-3.6-2.9l-1.3,1.7l4.9,3.9v11.2h-6.4v2.1h6.4v11.2l-4.9,3.9l1.3,1.7l3.6-2.9v2c0,0.6,0.5,1.1,1.1,1.1
		h19.2c0.6,0,1.1-0.5,1.1-1.1v-2l3.6,2.9L47.6,48.2z M40.5,48H23.5v-6.4h17.1V48z M40.5,39.5H23.5v-6.4h17.1V39.5z M40.5,30.9H23.5
		v-6.4h17.1V30.9z M40.5,22.4H23.5V16h17.1V22.4z"/>
	<linearGradient id="SVGID_2_" gradientUnits="userSpaceOnUse" x1="25.6" y1="19.2" x2="27.7333" y2="19.2">
		<stop  offset="0" style="stop-color:#008DD2"/>
		<stop  offset="1" style="stop-color:#2E4183"/>
	</linearGradient>
	<rect x="25.6" y="18.1" class="st1" width="2.1" height="2.1"/>
	<linearGradient id="SVGID_3_" gradientUnits="userSpaceOnUse" x1="29.8667" y1="19.2" x2="38.4" y2="19.2">
		<stop  offset="0" style="stop-color:#008DD2"/>
		<stop  offset="1" style="stop-color:#2E4183"/>
	</linearGradient>
	<rect x="29.9" y="18.1" class="st2" width="8.5" height="2.1"/>
	<linearGradient id="SVGID_4_" gradientUnits="userSpaceOnUse" x1="25.6" y1="27.7333" x2="27.7333" y2="27.7333">
		<stop  offset="0" style="stop-color:#008DD2"/>
		<stop  offset="1" style="stop-color:#2E4183"/>
	</linearGradient>
	<rect x="25.6" y="26.7" class="st3" width="2.1" height="2.1"/>
	<linearGradient id="SVGID_5_" gradientUnits="userSpaceOnUse" x1="29.8667" y1="27.7333" x2="38.4" y2="27.7333">
		<stop  offset="0" style="stop-color:#008DD2"/>
		<stop  offset="1" style="stop-color:#2E4183"/>
	</linearGradient>
	<rect x="29.9" y="26.7" class="st4" width="8.5" height="2.1"/>
	<linearGradient id="SVGID_6_" gradientUnits="userSpaceOnUse" x1="25.6" y1="36.2667" x2="27.7333" y2="36.2667">
		<stop  offset="0" style="stop-color:#008DD2"/>
		<stop  offset="1" style="stop-color:#2E4183"/>
	</linearGradient>
	<rect x="25.6" y="35.2" class="st5" width="2.1" height="2.1"/>
	<linearGradient id="SVGID_7_" gradientUnits="userSpaceOnUse" x1="29.8667" y1="36.2667" x2="38.4" y2="36.2667">
		<stop  offset="0" style="stop-color:#008DD2"/>
		<stop  offset="1" style="stop-color:#2E4183"/>
	</linearGradient>
	<rect x="29.9" y="35.2" class="st6" width="8.5" height="2.1"/>
	<linearGradient id="SVGID_8_" gradientUnits="userSpaceOnUse" x1="25.6" y1="44.8" x2="27.7333" y2="44.8">
		<stop  offset="0" style="stop-color:#008DD2"/>
		<stop  offset="1" style="stop-color:#2E4183"/>
	</linearGradient>
	<rect x="25.6" y="43.7" class="st7" width="2.1" height="2.1"/>
	<linearGradient id="SVGID_9_" gradientUnits="userSpaceOnUse" x1="29.8667" y1="44.8" x2="38.4" y2="44.8">
		<stop  offset="0" style="stop-color:#008DD2"/>
		<stop  offset="1" style="stop-color:#2E4183"/>
	</linearGradient>
	<rect x="29.9" y="43.7" class="st8" width="8.5" height="2.1"/>
	<linearGradient id="SVGID_10_" gradientUnits="userSpaceOnUse" x1="44.8" y1="6.9333" x2="57.6" y2="6.9333">
		<stop  offset="0" style="stop-color:#008DD2"/>
		<stop  offset="1" style="stop-color:#2E4183"/>
	</linearGradient>
	<path class="st9" d="M46.9,9.6h3.2v2.1H48v2.1h6.4v-2.1h-2.1V9.6h3.2c1.2,0,2.1-1,2.1-2.1V2.1c0-1.2-1-2.1-2.1-2.1h-8.5
		c-1.2,0-2.1,1-2.1,2.1v5.3C44.8,8.6,45.8,9.6,46.9,9.6z M46.9,2.1h8.5l0,5.3h-8.5V2.1z"/>
	<linearGradient id="SVGID_11_" gradientUnits="userSpaceOnUse" x1="6.4" y1="6.9333" x2="19.2" y2="6.9333">
		<stop  offset="0" style="stop-color:#008DD2"/>
		<stop  offset="1" style="stop-color:#2E4183"/>
	</linearGradient>
	<path class="st10" d="M8.5,9.6h3.2v2.1H9.6v2.1H16v-2.1h-2.1V9.6h3.2c1.2,0,2.1-1,2.1-2.1V2.1c0-1.2-1-2.1-2.1-2.1H8.5
		C7.4,0,6.4,1,6.4,2.1v5.3C6.4,8.6,7.4,9.6,8.5,9.6z M8.5,2.1h8.5l0,5.3H8.5V2.1z"/>
	<linearGradient id="SVGID_12_" gradientUnits="userSpaceOnUse" x1="0" y1="32.5333" x2="12.8" y2="32.5333">
		<stop  offset="0" style="stop-color:#008DD2"/>
		<stop  offset="1" style="stop-color:#2E4183"/>
	</linearGradient>
	<path class="st11" d="M3.2,37.3v2.1h6.4v-2.1H7.5v-2.1h3.2c1.2,0,2.1-1,2.1-2.1v-5.3c0-1.2-1-2.1-2.1-2.1H2.1c-1.2,0-2.1,1-2.1,2.1
		v5.3c0,1.2,1,2.1,2.1,2.1h3.2v2.1H3.2z M2.1,33.1v-5.3h8.5l0,5.3H2.1z"/>
	<linearGradient id="SVGID_13_" gradientUnits="userSpaceOnUse" x1="51.2" y1="33.6" x2="64" y2="33.6">
		<stop  offset="0" style="stop-color:#008DD2"/>
		<stop  offset="1" style="stop-color:#2E4183"/>
	</linearGradient>
	<path class="st12" d="M61.9,26.7h-8.5c-1.2,0-2.1,1-2.1,2.1v5.3c0,1.2,1,2.1,2.1,2.1h3.2v2.1h-2.1v2.1h6.4v-2.1h-2.1v-2.1h3.2
		c1.2,0,2.1-1,2.1-2.1v-5.3C64,27.6,63,26.7,61.9,26.7z M53.3,34.1v-5.3h8.5l0,5.3H53.3z"/>
	<linearGradient id="SVGID_14_" gradientUnits="userSpaceOnUse" x1="44.8" y1="57.0667" x2="57.6" y2="57.0667">
		<stop  offset="0" style="stop-color:#008DD2"/>
		<stop  offset="1" style="stop-color:#2E4183"/>
	</linearGradient>
	<path class="st13" d="M55.5,50.1h-8.5c-1.2,0-2.1,1-2.1,2.1v5.3c0,1.2,1,2.1,2.1,2.1h3.2v2.1H48V64h6.4v-2.1h-2.1v-2.1h3.2
		c1.2,0,2.1-1,2.1-2.1v-5.3C57.6,51.1,56.6,50.1,55.5,50.1z M46.9,57.6v-5.3h8.5l0,5.3H46.9z"/>
	<linearGradient id="SVGID_15_" gradientUnits="userSpaceOnUse" x1="6.4" y1="57.0667" x2="19.2" y2="57.0667">
		<stop  offset="0" style="stop-color:#008DD2"/>
		<stop  offset="1" style="stop-color:#2E4183"/>
	</linearGradient>
	<path class="st14" d="M17.1,50.1H8.5c-1.2,0-2.1,1-2.1,2.1v5.3c0,1.2,1,2.1,2.1,2.1h3.2v2.1H9.6V64H16v-2.1h-2.1v-2.1h3.2
		c1.2,0,2.1-1,2.1-2.1v-5.3C19.2,51.1,18.2,50.1,17.1,50.1z M8.5,57.6v-5.3h8.5l0,5.3H8.5z"/>
</g>
</svg>
