<?xml version="1.0"?>
<svg xmlns="http://www.w3.org/2000/svg" height="512" viewBox="0 0 64 64" width="512" fill="#1668ac">
  <g id="network">
    <path d="m6 44h2v2h-2z"/>
    <path d="m10 44h2v2h-2z"/>
    <path d="m14 44h2v2h-2z"/>
    <path d="m31 38a1 1 0 0 0 1-1v-8a1 1 0 0 0 -1-1h-28a1 1 0 0 0 -1 1v8a1 1 0 0 0 1 1h2v2h-2a1 1 0 0 0 -1 1v8a1 1 0 0 0 1 1h2v2h-2a1 1 0 0 0 -1 1v8a1 1 0 0 0 1 1h28a1 1 0 0 0 1-1v-8a1 1 0 0 0 -1-1h-2v-2h2a1 1 0 0 0 1-1v-8a1 1 0 0 0 -1-1h-2v-2zm-1 16v6h-26v-6zm-23-2v-2h2v2zm4 0v-2h12v2zm14 0v-2h2v2zm5-10v6h-26v-6zm-23-2v-2h2v2zm4 0v-2h12v2zm14 0v-2h2v2zm-21-4v-6h26v6z"/>
    <path d="m6 32h2v2h-2z"/>
    <path d="m10 32h2v2h-2z"/>
    <path d="m14 32h2v2h-2z"/>
    <path d="m6 56h2v2h-2z"/>
    <path d="m10 56h2v2h-2z"/>
    <path d="m14 56h2v2h-2z"/>
    <path d="m58.41 13.02a7.927 7.927 0 0 0 .59-3.02 7.995 7.995 0 0 0 -15.47-2.84 5.988 5.988 0 0 0 -9.53 4.84 6.634 6.634 0 0 0 .08 1h-.08a4 4 0 0 0 0 8h24a4 4 0 0 0 .41-7.98zm-.41 5.98h-24a2 2 0 0 1 0-4h1.42a1.013 1.013 0 0 0 .84-.45 1.034 1.034 0 0 0 .08-.95 3.867 3.867 0 0 1 -.34-1.6 3.99 3.99 0 0 1 7.25-2.31 1.007 1.007 0 0 0 1.81-.46 5.994 5.994 0 0 1 11.94.77 5.938 5.938 0 0 1 -1.08 3.43 1 1 0 0 0 -.07 1.03 1.02 1.02 0 0 0 .89.54h1.26a2 2 0 0 1 0 4z"/>
    <path d="m41 33v-10h-2v9h-5v2h6a1 1 0 0 0 1-1z"/>
    <path d="m61.65 52.37a1 1 0 0 0 -.77-.37h-.88v-11a1 1 0 0 0 -1-1h-20a1 1 0 0 0 -1 1v11h-.88a1 1 0 0 0 -.77.37.989.989 0 0 0 -.2.84l.87 4a1 1 0 0 0 .98.79h22a1 1 0 0 0 .98-.79l.87-4a.989.989 0 0 0 -.2-.84zm-21.65-10.37h18v10h-7a1 1 0 0 0 -1 1h-2a1 1 0 0 0 -1-1h-7zm19.2 14h-20.4l-.43-2h7.63a1 1 0 0 0 1 1h4a1 1 0 0 0 1-1h7.63z"/>
    <path d="m55 23h2v15h-2z"/>
    <path d="m13 2h-8a3.009 3.009 0 0 0 -3 3v16a3.009 3.009 0 0 0 3 3h8a3.009 3.009 0 0 0 3-3v-16a3.009 3.009 0 0 0 -3-3zm-2 2a1 1 0 0 1 -1 1h-2a1 1 0 0 1 -1-1zm3 17a1 1 0 0 1 -1 1h-8a1 1 0 0 1 -1-1v-16a1 1 0 0 1 1-1 3.009 3.009 0 0 0 3 3h2a3.009 3.009 0 0 0 3-3 1 1 0 0 1 1 1z"/>
    <path d="m18 13h11v2h-11z"/>
  </g>
</svg>
