<?xml version="1.0" encoding="utf-8"?>
<!-- Generator: Adobe Illustrator 21.0.0, SVG Export Plug-In . SVG Version: 6.00 Build 0)  -->
<svg version="1.1" id="Capa_1" xmlns="http://www.w3.org/2000/svg" xmlns:xlink="http://www.w3.org/1999/xlink" x="0px" y="0px"
	 viewBox="0 0 64 64" style="enable-background:new 0 0 64 64;" xml:space="preserve">
<g>
	<g>
		<path d="M16.6,10.4c-0.7,0-1.3,0.6-1.3,1.3s0.6,1.3,1.3,1.3c0.7,0,1.3-0.6,1.3-1.3S17.3,10.4,16.6,10.4z"/>
	</g>
</g>
<g>
	<g>
		<path d="M32,0C14.8,0,0,14.7,0,32c0,17.3,14.7,32,32,32c17.2,0,32-14.7,32-32C64,14.7,49.3,0,32,0z M32,61.5
			C16,61.5,2.5,48,2.5,32S16,2.5,32,2.5S61.5,16,61.5,32S48,61.5,32,61.5z"/>
	</g>
</g>
<g>
	<g>
		<path d="M32,5.4c-4,0-8.2,0.9-11.6,2.5c-0.6,0.3-0.9,1-0.6,1.7c0.3,0.6,1,0.9,1.7,0.6c3.1-1.5,6.9-2.3,10.6-2.3
			c13.1,0,24.1,11,24.1,24.1S45.1,56.1,32,56.1S7.9,45.1,7.9,32c0-6,2.2-11.9,6-16.2c0.5-0.5,0.4-1.3-0.1-1.8
			c-0.5-0.5-1.3-0.4-1.8,0.1C7.8,18.9,5.4,25.4,5.4,32c0,14.5,12.1,26.6,26.6,26.6c14.5,0,26.6-12.1,26.6-26.6
			C58.6,17.5,46.5,5.4,32,5.4z"/>
	</g>
</g>
<g>
	<g>
		<path d="M47,25.8h-8.8V17c0-0.7-0.6-1.3-1.3-1.3H27c-0.7,0-1.3,0.6-1.3,1.3v8.8H17c-0.7,0-1.3,0.6-1.3,1.3v10
			c0,0.7,0.6,1.3,1.3,1.3h8.8V47c0,0.7,0.6,1.3,1.3,1.3h10c0.7,0,1.3-0.6,1.3-1.3v-8.8H47c0.7,0,1.3-0.6,1.3-1.3V27
			C48.3,26.3,47.7,25.8,47,25.8z M45.8,35.8H37c-0.7,0-1.3,0.6-1.3,1.3v8.8h-7.5V37c0-0.7-0.6-1.3-1.3-1.3h-8.8v-7.5H27
			c0.7,0,1.3-0.6,1.3-1.3v-8.8h7.5V27c0,0.7,0.6,1.3,1.3,1.3h8.8V35.8z"/>
	</g>
</g>
</svg>
