<svg id="Layer_3" enable-background="new 0 0 64 64" height="512" viewBox="0 0 64 64" width="512" xmlns="http://www.w3.org/2000/svg"><g><path fill="#1668ac" stroke="#1668ac" d="m29 29h6v2h-6z"/><path fill="#1668ac" stroke="#1668ac" d="m18 5h-4c-2.757 0-5 2.243-5 5v3h-3c-.553 0-1 .448-1 1v4c0 .552.447 1 1 1h3v5c0 .552.447 1 1 1h4c.553 0 1-.448 1-1v-5h3c.553 0 1-.448 1-1v-4c0-.552-.447-1-1-1h-3v-2h3c.553 0 1-.448 1-1v-4c0-.552-.447-1-1-1zm-1 4h-2c-1.103 0-2 .897-2 2v3c0 .552.447 1 1 1h3v2h-3c-.553 0-1 .448-1 1v5h-2v-5c0-.552-.447-1-1-1h-3v-2h3c.553 0 1-.448 1-1v-4c0-1.654 1.346-3 3-3h3z"/><path fill="#1668ac" stroke="#1668ac" d="m60 5h-20c-1.654 0-3 1.346-3 3v17h-14v-21c0-1.654-1.346-3-3-3h-16c-1.654 0-3 1.346-3 3v22c0 1.654 1.346 3 3 3h2.586l3.707 3.707c.191.191.447.293.707.293.129 0 .259-.025.383-.076.374-.155.617-.52.617-.924v-3h2.678c-.441.93-.678 1.952-.678 3v5h-10c-1.654 0-3 1.346-3 3v14c0 1.654 1.346 3 3 3h10v6h2v-6h6c1.654 0 3-1.346 3-3v-3.5l3.6-2.7c.252-.188.4-.485.4-.8s-.148-.611-.4-.8l-3.6-2.7v-3.5c0-1.654-1.346-3-3-3h-6v-2h29v1c0 .404.243.77.617.924.124.052.254.076.383.076.26 0 .516-.102.707-.293l1.293-1.293v5.586h-6c-1.654 0-3 1.346-3 3v3.5l-3.6 2.7c-.252.189-.4.486-.4.8s.148.611.4.8l3.6 2.7v3.5c0 1.654 1.346 3 3 3h6v2h2v-2h8c1.654 0 3-1.346 3-3v-14c0-1.654-1.346-3-3-3h-8v-7.586l2.414-2.414h7.586c1.654 0 3-1.346 3-3v-20c0-1.654-1.346-3-3-3zm-37 35v4c0 .314.148.611.4.8l2.933 2.2-2.933 2.2c-.252.189-.4.486-.4.8v4c0 .552-.448 1-1 1h-18c-.552 0-1-.448-1-1v-14c0-.552.448-1 1-1h18c.552 0 1 .448 1 1zm36 4v14c0 .552-.448 1-1 1h-16c-.552 0-1-.448-1-1v-4c0-.314-.148-.611-.4-.8l-2.933-2.2 2.933-2.2c.252-.188.4-.485.4-.8v-4c0-.552.448-1 1-1h16c.552 0 1 .448 1 1zm-48-17c-.553 0-1 .448-1 1v1.586l-2.293-2.293c-.187-.188-.441-.293-.707-.293h-3c-.552 0-1-.449-1-1v-22c0-.551.448-1 1-1h16c.552 0 1 .449 1 1v22c0 .551-.448 1-1 1zm5 6v-1c0-1.092.373-2.135 1.026-3h2.974c1.302 0 2.402-.839 2.816-2h14.184v1c0 1.654 1.346 3 3 3h5v2zm45-5c0 .551-.448 1-1 1h-8c-.266 0-.52.105-.707.293l-4.293 4.293v-3.586c0-.552-.447-1-1-1h-6c-.552 0-1-.449-1-1v-20c0-.551.448-1 1-1h20c.552 0 1 .449 1 1z"/><path fill="#1668ac" stroke="#1668ac" d="m54 9h-8c-2.757 0-5 2.243-5 5v8c0 2.757 2.243 5 5 5h8c2.757 0 5-2.243 5-5v-8c0-2.757-2.243-5-5-5zm3 13c0 1.654-1.346 3-3 3h-8c-1.654 0-3-1.346-3-3v-8c0-1.654 1.346-3 3-3h8c1.654 0 3 1.346 3 3z"/><path fill="#1668ac" stroke="#1668ac" d="m50 15c-2.206 0-4 1.794-4 4s1.794 4 4 4 4-1.794 4-4-1.794-4-4-4zm0 6c-1.103 0-2-.897-2-2s.897-2 2-2 2 .897 2 2-.897 2-2 2z"/><path fill="#1668ac" stroke="#1668ac" d="m53 13h2v2h-2z"/><path fill="#1668ac" stroke="#1668ac" d="m6 53h14c.553 0 1-.447 1-1v-10c0-.553-.447-1-1-1h-14c-.553 0-1 .447-1 1v10c0 .553.447 1 1 1zm1-2v-6.827l5.35 4.585c.186.162.419.242.65.242s.464-.08.65-.241l5.35-4.586v6.827zm1.703-8h8.594l-4.297 3.683z"/><path fill="#1668ac" stroke="#1668ac" d="m45.516 56.875c.15.083.317.125.484.125.185 0 .368-.051.53-.152l8-5c.292-.183.47-.503.47-.848s-.178-.665-.47-.848l-8-5c-.31-.194-.699-.203-1.015-.027-.318.177-.515.512-.515.875v10c0 .363.197.698.516.875zm1.484-9.07 5.113 3.195-5.113 3.195z"/></g></svg>


