<?xml version="1.0" encoding="UTF-8"?>
<svg xmlns="http://www.w3.org/2000/svg" xmlns:xlink="http://www.w3.org/1999/xlink" width="64pt" height="64pt" viewBox="0 0 64 64" version="1.1">
<g id="surface1">
<path style=" stroke:none;fill-rule:nonzero;fill:rgb(8.627451%,40.784314%,67.45098%);fill-opacity:1;" d="M 44.941406 8.003906 L 27.3125 8.003906 C 26.621094 8.003906 26.0625 8.5625 26.0625 9.253906 C 26.0625 9.945312 26.621094 10.503906 27.3125 10.503906 L 44.941406 10.503906 C 45.632812 10.503906 46.191406 9.945312 46.191406 9.253906 C 46.191406 8.5625 45.632812 8.003906 44.941406 8.003906 Z M 12.804688 8.003906 C 12.476562 8.003906 12.15625 8.136719 11.921875 8.371094 C 11.691406 8.601562 11.554688 8.925781 11.554688 9.253906 C 11.554688 9.582031 11.691406 9.90625 11.921875 10.136719 C 12.15625 10.371094 12.476562 10.503906 12.804688 10.503906 C 13.132812 10.503906 13.457031 10.371094 13.6875 10.136719 C 13.921875 9.90625 14.054688 9.582031 14.054688 9.253906 C 14.054688 8.925781 13.921875 8.601562 13.6875 8.371094 C 13.457031 8.136719 13.132812 8.003906 12.804688 8.003906 Z M 6.738281 8.003906 C 6.410156 8.003906 6.085938 8.136719 5.855469 8.371094 C 5.621094 8.601562 5.488281 8.925781 5.488281 9.253906 C 5.488281 9.582031 5.621094 9.90625 5.855469 10.136719 C 6.085938 10.371094 6.410156 10.503906 6.738281 10.503906 C 7.066406 10.503906 7.386719 10.371094 7.621094 10.136719 C 7.851562 9.90625 7.988281 9.582031 7.988281 9.253906 C 7.988281 8.925781 7.851562 8.601562 7.621094 8.371094 C 7.386719 8.136719 7.066406 8.003906 6.738281 8.003906 Z M 18.875 8.003906 C 18.546875 8.003906 18.222656 8.136719 17.992188 8.371094 C 17.757812 8.601562 17.625 8.925781 17.625 9.253906 C 17.625 9.582031 17.757812 9.90625 17.992188 10.136719 C 18.222656 10.371094 18.546875 10.503906 18.875 10.503906 C 19.203125 10.503906 19.527344 10.371094 19.757812 10.136719 C 19.992188 9.90625 20.125 9.582031 20.125 9.253906 C 20.125 8.925781 19.992188 8.601562 19.757812 8.371094 C 19.527344 8.136719 19.203125 8.003906 18.875 8.003906 Z M 18.875 8.003906 "/>
<path style=" stroke:none;fill-rule:nonzero;fill:rgb(8.627451%,40.784314%,67.45098%);fill-opacity:1;" d="M 62.632812 53.441406 L 54.378906 45.1875 C 55.40625 43.15625 55.984375 40.863281 55.984375 38.433594 C 55.984375 36.101562 55.449219 33.890625 54.5 31.921875 L 54.5 3.753906 C 54.5 3.0625 53.9375 2.503906 53.25 2.503906 L 1.25 2.503906 C 0.558594 2.503906 0 3.0625 0 3.753906 L 0 49.253906 C 0 49.941406 0.558594 50.503906 1.25 50.503906 L 9.089844 50.503906 C 9.78125 50.503906 10.339844 49.941406 10.339844 49.253906 C 10.339844 48.5625 9.78125 48.003906 9.089844 48.003906 L 2.5 48.003906 L 2.5 16.003906 L 52 16.003906 L 52 28.253906 C 49.25 25.277344 45.320312 23.410156 40.960938 23.410156 C 32.675781 23.410156 25.933594 30.148438 25.933594 38.433594 C 25.933594 42.066406 27.230469 45.402344 29.382812 48.003906 L 20.339844 48.003906 C 19.652344 48.003906 19.089844 48.5625 19.089844 49.253906 C 19.089844 49.941406 19.652344 50.503906 20.339844 50.503906 L 32.015625 50.503906 C 34.515625 52.359375 37.613281 53.460938 40.960938 53.460938 C 43.375 53.460938 45.660156 52.886719 47.6875 51.867188 L 55.945312 60.128906 C 56.859375 61.042969 58.054688 61.496094 59.257812 61.496094 C 60.46875 61.496094 61.683594 61.03125 62.609375 60.105469 C 64.453125 58.261719 64.464844 55.273438 62.632812 53.441406 Z M 2.5 13.503906 L 2.5 5.003906 L 52 5.003906 L 52 13.503906 Z M 28.433594 38.433594 C 28.433594 31.527344 34.054688 25.910156 40.960938 25.910156 C 47.867188 25.910156 53.484375 31.527344 53.484375 38.433594 C 53.484375 45.34375 47.867188 50.960938 40.960938 50.960938 C 34.054688 50.960938 28.433594 45.34375 28.433594 38.433594 Z M 60.84375 58.339844 C 59.972656 59.207031 58.570312 59.21875 57.714844 58.363281 L 49.875 50.523438 C 51.074219 49.632812 52.140625 48.574219 53.03125 47.375 L 60.867188 55.210938 C 61.722656 56.066406 61.710938 57.46875 60.84375 58.339844 Z M 60.84375 58.339844 "/>
<path style=" stroke:none;fill-rule:nonzero;fill:rgb(8.627451%,40.784314%,67.45098%);fill-opacity:1;" d="M 10.25 41.753906 L 19.183594 41.753906 C 21.527344 41.753906 23.433594 39.847656 23.433594 37.503906 C 23.433594 35.160156 21.527344 33.253906 19.183594 33.253906 L 10.25 33.253906 C 7.90625 33.253906 6 35.160156 6 37.503906 C 6 39.847656 7.90625 41.753906 10.25 41.753906 Z M 10.25 35.753906 L 19.183594 35.753906 C 20.148438 35.753906 20.933594 36.539062 20.933594 37.503906 C 20.933594 38.46875 20.148438 39.253906 19.183594 39.253906 L 10.25 39.253906 C 9.285156 39.253906 8.5 38.46875 8.5 37.503906 C 8.5 36.539062 9.285156 35.753906 10.25 35.753906 Z M 8.121094 29.769531 L 20.039062 29.769531 C 20.730469 29.769531 21.289062 29.210938 21.289062 28.519531 C 21.289062 27.828125 20.730469 27.269531 20.039062 27.269531 L 8.121094 27.269531 C 7.433594 27.269531 6.871094 27.828125 6.871094 28.519531 C 6.871094 29.210938 7.433594 29.769531 8.121094 29.769531 Z M 8.121094 23.769531 L 20.339844 23.769531 C 21.03125 23.769531 21.589844 23.210938 21.589844 22.519531 C 21.589844 21.828125 21.03125 21.269531 20.339844 21.269531 L 8.121094 21.269531 C 7.433594 21.269531 6.871094 21.828125 6.871094 22.519531 C 6.871094 23.210938 7.433594 23.769531 8.121094 23.769531 Z M 30.207031 23.769531 C 30.898438 23.769531 31.457031 23.210938 31.457031 22.519531 C 31.457031 21.828125 30.898438 21.269531 30.207031 21.269531 L 26.371094 21.269531 C 25.683594 21.269531 25.121094 21.828125 25.121094 22.519531 C 25.121094 23.210938 25.683594 23.769531 26.371094 23.769531 Z M 49.984375 38.433594 C 49.984375 37.746094 49.425781 37.183594 48.734375 37.183594 L 40.246094 37.183594 C 39.710938 35.449219 38.09375 34.183594 36.183594 34.183594 C 33.839844 34.183594 31.933594 36.089844 31.933594 38.433594 C 31.933594 40.777344 33.839844 42.683594 36.183594 42.683594 C 38.09375 42.683594 39.710938 41.421875 40.246094 39.683594 L 42.484375 39.683594 L 42.484375 40.710938 C 42.484375 41.398438 43.046875 41.960938 43.734375 41.960938 C 44.425781 41.960938 44.984375 41.398438 44.984375 40.710938 L 44.984375 39.683594 L 47.484375 39.683594 L 47.484375 40.125 C 47.484375 40.8125 48.046875 41.375 48.734375 41.375 C 49.425781 41.375 49.984375 40.8125 49.984375 40.125 Z M 36.183594 40.183594 C 35.21875 40.183594 34.433594 39.398438 34.433594 38.433594 C 34.433594 37.46875 35.21875 36.683594 36.183594 36.683594 C 37.148438 36.683594 37.933594 37.46875 37.933594 38.433594 C 37.933594 39.398438 37.148438 40.183594 36.183594 40.183594 Z M 14.714844 48.003906 C 14.386719 48.003906 14.066406 48.136719 13.832031 48.367188 C 13.597656 48.601562 13.464844 48.921875 13.464844 49.253906 C 13.464844 49.582031 13.597656 49.902344 13.832031 50.136719 C 14.0625 50.367188 14.386719 50.503906 14.714844 50.503906 C 15.046875 50.503906 15.367188 50.367188 15.601562 50.136719 C 15.832031 49.902344 15.96875 49.582031 15.96875 49.253906 C 15.96875 48.921875 15.832031 48.601562 15.601562 48.367188 C 15.367188 48.136719 15.046875 48.003906 14.714844 48.003906 Z M 14.714844 48.003906 "/>
</g>
</svg>
