<?xml version="1.0" encoding="UTF-8"?>
<svg xmlns="http://www.w3.org/2000/svg" xmlns:xlink="http://www.w3.org/1999/xlink" width="64pt" height="64pt" viewBox="0 0 64 64" version="1.1">
<g id="surface1">
<path style=" stroke:none;fill-rule:nonzero;fill:rgb(8.627451%,40.784314%,67.45098%);fill-opacity:1;" d="M 59 43.519531 L 59 23.820312 L 56.289062 16.585938 C 56.054688 15.96875 55.582031 15.484375 55 15.222656 L 55 4 C 55 2.347656 53.652344 1 52 1 L 4 1 C 2.347656 1 1 2.347656 1 4 L 1 44 C 1 45.085938 1.585938 46.03125 2.453125 46.558594 C 1.535156 48.164062 1 50.019531 1 52 C 1 58.066406 5.933594 63 12 63 L 20 63 C 24.933594 63 29.253906 59.679688 30.578125 55 L 33.421875 55 C 34.746094 59.679688 39.066406 63 44 63 L 52 63 C 58.0625 63 63 58.066406 63 52 C 63 48.59375 61.441406 45.539062 59 43.519531 Z M 55 41.425781 L 55 25 L 57 25 L 57 42.214844 C 56.367188 41.890625 55.699219 41.625 55 41.425781 Z M 51 25 L 53 25 L 53 41.050781 C 52.671875 41.019531 52.339844 41 52 41 L 51 41 Z M 56.558594 23 L 51.441406 23 L 53.585938 17.285156 C 53.714844 16.941406 54.285156 16.941406 54.414062 17.285156 Z M 4 3 L 52 3 C 52.550781 3 53 3.449219 53 4 L 53 9 L 3 9 L 3 4 C 3 3.449219 3.449219 3 4 3 Z M 3 44 L 3 11 L 53 11 L 53 15.222656 C 52.417969 15.484375 51.945312 15.964844 51.710938 16.585938 L 49 23.820312 L 49 41 L 44 41 C 40.640625 41 37.570312 42.542969 35.53125 45 L 28.46875 45 C 26.429688 42.542969 23.355469 41 20 41 L 12 41 C 8.632812 41 5.617188 42.523438 3.601562 44.914062 C 3.246094 44.757812 3 44.410156 3 44 Z M 41 49 L 40.011719 49 C 40.9375 47.765625 42.40625 47 44 47 L 52 47 C 54.757812 47 57 49.242188 57 52 C 57 54.757812 54.757812 57 52 57 L 44 57 C 42.40625 57 40.9375 56.234375 40.011719 55 L 41 55 C 42.101562 55 43 54.101562 43 53 L 43 51 C 43 49.898438 42.101562 49 41 49 Z M 41 51 L 41 53 L 23 53 L 23 51 Z M 23 55 L 23.988281 55 C 23.0625 56.234375 21.59375 57 20 57 L 12 57 C 9.242188 57 7 54.757812 7 52 C 7 49.242188 9.242188 47 12 47 L 20 47 C 21.59375 47 23.0625 47.765625 23.988281 49 L 23 49 C 21.898438 49 21 49.898438 21 51 L 21 53 C 21 54.101562 21.898438 55 23 55 Z M 30.578125 49 C 30.382812 48.300781 30.117188 47.632812 29.792969 47 L 34.203125 47 C 33.882812 47.632812 33.617188 48.300781 33.417969 49 Z M 20 61 L 12 61 C 7.039062 61 3 56.964844 3 52 C 3 47.035156 7.039062 43 12 43 L 20 43 C 23.839844 43 27.226562 45.460938 28.480469 49 L 26.296875 49 C 25.148438 46.585938 22.710938 45 20 45 L 12 45 C 8.140625 45 5 48.140625 5 52 C 5 55.859375 8.140625 59 12 59 L 20 59 C 22.710938 59 25.148438 57.414062 26.296875 55 L 28.480469 55 C 27.226562 58.539062 23.839844 61 20 61 Z M 52 61 L 44 61 C 40.160156 61 36.773438 58.539062 35.519531 55 L 37.703125 55 C 38.851562 57.414062 41.289062 59 44 59 L 52 59 C 55.859375 59 59 55.859375 59 52 C 59 48.140625 55.859375 45 52 45 L 44 45 C 41.289062 45 38.851562 46.585938 37.703125 49 L 35.519531 49 C 36.773438 45.460938 40.15625 43 44 43 L 52 43 C 56.960938 43 61 47.035156 61 52 C 61 56.964844 56.960938 61 52 61 Z M 52 61 "/>
<path style=" stroke:none;fill-rule:nonzero;fill:rgb(8.627451%,40.784314%,67.45098%);fill-opacity:1;" d="M 9 5 L 11 5 L 11 7 L 9 7 Z M 13 5 L 15 5 L 15 7 L 13 7 Z M 5 5 L 7 5 L 7 7 L 5 7 Z M 21 13 L 5 13 L 5 25 L 21 25 Z M 19 23 L 7 23 L 7 15 L 19 15 Z M 21 27 L 5 27 L 5 39 L 21 39 Z M 19 37 L 7 37 L 7 29 L 19 29 Z M 23 13 L 25 13 L 25 15 L 23 15 Z M 27 13 L 47 13 L 47 15 L 27 15 Z M 23 17 L 47 17 L 47 19 L 23 19 Z M 23 21 L 27 21 L 27 23 L 23 23 Z M 29 21 L 47 21 L 47 23 L 29 23 Z M 45 35 L 47 35 L 47 37 L 45 37 Z M 23 35 L 43 35 L 43 37 L 23 37 Z M 23 31 L 47 31 L 47 33 L 23 33 Z M 43 27 L 47 27 L 47 29 L 43 29 Z M 23 27 L 41 27 L 41 29 L 23 29 Z M 23 27 "/>
</g>
</svg>
