<?xml version="1.0" encoding="utf-8"?>
<!-- Generator: Adobe Illustrator 21.0.0, SVG Export Plug-In . SVG Version: 6.00 Build 0)  -->
<svg version="1.1" id="Layer_1" xmlns="http://www.w3.org/2000/svg" xmlns:xlink="http://www.w3.org/1999/xlink" x="0px" y="0px"
	 viewBox="0 0 64 64" style="enable-background:new 0 0 64 64;" xml:space="preserve">
<path d="M60.9,57.9c-1.7,0-3.1,1.4-3.1,3c0,1.7,1.4,3,3.1,3s3.1-1.4,3.1-3C64,59.3,62.6,57.9,60.9,57.9z M60.9,62c-0.6,0-1-0.5-1-1
	s0.5-1,1-1c0.6,0,1,0.5,1,1S61.5,62,60.9,62z"/>
<path d="M6.2,3c0-1.7-1.4-3-3.1-3S0,1.4,0,3s1.4,3,3.1,3S6.2,4.7,6.2,3z M2.1,3c0-0.6,0.5-1,1-1s1,0.5,1,1s-0.5,1-1,1S2.1,3.6,2.1,3
	z"/>
<path d="M55.5,40.3l-2-4c0.4-0.9,0.8-1.7,1.1-2.6l4.3-1.4V20.6l-4.3-1.4c-0.3-0.9-0.7-1.7-1.1-2.6l2-4l-8.4-8.2l-4.1,2
	c-0.9-0.4-1.8-0.8-2.6-1.1L38.9,1H27.1l-1.4,4.2c-0.9,0.3-1.8,0.7-2.6,1.1l-4.1-2l-8.4,8.2l2,4c-0.4,0.9-0.8,1.7-1.1,2.6l-4.3,1.4
	v11.6l4.3,1.4c0.3,0.9,0.7,1.7,1.1,2.6l-1.3,2.4H5.2v20.3h7.2v-3h7.8l3.1,3h5.6v1c0,2.2,1.9,4.1,4.1,4.1s4.1-1.8,4.1-4.1v-1h7.2
	c1.7,0,3.1-1.4,3.1-3c0-0.8-0.3-1.5-0.8-2c0.5-0.5,0.8-1.2,0.8-2s-0.3-1.5-0.8-2c0.4-0.4,0.7-1,0.8-1.6L55.5,40.3z M14.7,35.8
	c-0.6-1.1-1-2.2-1.4-3.2L13.2,32l-3.9-1.3v-8.7l3.9-1.3l0.2-0.5c0.3-1.1,0.8-2.2,1.4-3.2l0.2-0.5L13.1,13l6.2-6.1l3.7,1.8l0.5-0.2
	c1.1-0.6,2.2-1,3.3-1.4l0.5-0.2L28.6,3h8.8l1.3,3.8L39.3,7c1.1,0.3,2.2,0.8,3.3,1.4L43,8.6l3.7-1.8l6.2,6.1l-1.8,3.6l0.2,0.5
	c0.6,1.1,1,2.2,1.4,3.2l0.2,0.5l3.9,1.3v8.7L52.9,32l-0.2,0.5c-0.3,1.1-0.8,2.2-1.4,3.2l-0.2,0.5l1.8,3.6l-6.1,6
	c-0.1-0.1-0.1-0.1-0.2-0.2c0.5-0.5,0.8-1.2,0.8-2c0-1.6-1.2-2.9-2.8-3c4.4-3.5,6.9-8.6,6.9-14.3c0-10.1-8.3-18.3-18.6-18.3
	s-18.6,8.2-18.6,18.3c0,5.5,2.6,10.8,6.9,14.2h-8.8l2.4-4.4L14.7,35.8z M45.4,51.8c0,0.6-0.5,1-1,1h-8.3c-0.6,0-1-0.5-1-1s0.5-1,1-1
	h8.3C45,50.8,45.4,51.2,45.4,51.8z M30.5,26.4h5l1.6-1.6v-4.5c1.1,0,2.1,0.9,2.1,2V27l-3.5,3.5h-5.3L26.8,27v-4.7c0-1.1,0.9-2,2.1-2
	v4.5L30.5,26.4z M31,32.5h4.1v4.1H31V32.5z M37.2,31.9l4.1-4.1v-5.5c0-2.2-1.9-4.1-4.1-4.1h-2.1V24l-0.4,0.4h-3.3L31,24v-5.7h-2.1
	c-2.3,0-4.1,1.8-4.1,4.1v5.5l4.1,4.1v4.7h-2.5l-0.1,0.1c-3.5-2.2-5.7-6.1-5.7-10.2c0-6.7,5.6-12.2,12.4-12.2s12.4,5.5,12.4,12.2
	c0,4.1-2.1,7.9-5.6,10.2h-2.7V31.9z M47.5,26.4c0-7.8-6.5-14.2-14.5-14.2s-14.5,6.4-14.5,14.2c0,4.7,2.4,9.1,6.3,11.7l-1.5,1.5
	c-4.3-3.1-6.8-7.9-6.8-13.2c0-9,7.4-16.3,16.5-16.3s16.5,7.3,16.5,16.3c0,5-2.3,9.7-6.2,12.7c-0.1-0.7-0.5-1.4-1-1.8
	C45.6,34.6,47.5,30.7,47.5,26.4z M44.4,42.7c0.6,0,1,0.5,1,1s-0.5,1-1,1h-8.3c-0.6,0-1-0.5-1-1s0.5-1,1-1H44.4z M36.1,48.8
	c-0.6,0-1-0.5-1-1s0.5-1,1-1h8.3c0.6,0,1,0.5,1,1s-0.5,1-1,1H36.1z M10.3,56.9H7.2V40.6h3.1V56.9z M24.2,56.9l-3.1-3h-8.7V42.7h10.8
	l4.1-4.1h13c0.6,0,1,0.5,1,1c0,0.6-0.5,1-1,1H29.5L25.1,45l1.5,1.4l2.4-2.3v12.8H24.2z M33,62c-1.1,0-2.1-0.9-2.1-2V42.7h2.3
	c-0.1,0.3-0.2,0.7-0.2,1c0,0.8,0.3,1.5,0.8,2c-0.5,0.5-0.8,1.2-0.8,2s0.3,1.5,0.8,2c-0.5,0.5-0.8,1.2-0.8,2s0.3,1.5,0.8,2
	c-0.5,0.5-0.8,1.2-0.8,2c0,1.3,0.9,2.4,2.1,2.9v1.2C35.1,61.1,34.2,62,33,62z M44.4,56.9h-8.3c-0.6,0-1-0.5-1-1s0.5-1,1-1h8.3
	c0.6,0,1,0.5,1,1S45,56.9,44.4,56.9z"/>
<path d="M2.1,9.1h2.1v2H2.1V9.1z"/>
<path d="M2.1,14.2h2.1v2H2.1V14.2z"/>
<path d="M2.1,19.3h2.1v2H2.1V19.3z"/>
<path d="M59.9,42.7h2.1v2h-2.1V42.7z"/>
<path d="M59.9,47.7h2.1v2h-2.1V47.7z"/>
<path d="M59.9,52.8h2.1v2h-2.1V52.8z"/>
</svg>
