<?xml version="1.0" encoding="utf-8"?>
<!-- Generator: Adobe Illustrator 21.0.0, SVG Export Plug-In . SVG Version: 6.00 Build 0)  -->
<svg version="1.1" id="Capa_1" xmlns="http://www.w3.org/2000/svg" xmlns:xlink="http://www.w3.org/1999/xlink" x="0px" y="0px"
	 viewBox="0 0 64 64" style="enable-background:new 0 0 64 64;" xml:space="preserve">
<path d="M62.1,53.8h-2.2V19.6c0-2.8-2.3-5.1-5.1-5.1h-3.2V0.9c0-0.5-0.4-0.9-0.9-0.9H13.4c-0.5,0-0.9,0.4-0.9,0.9v13.6H9.2
	c-2.8,0-5.1,2.3-5.1,5.1v3.2c0,0.5,0.4,0.9,0.9,0.9S6,23.3,6,22.7v-3.2c0-1.8,1.4-3.2,3.2-3.2h3.2v2.3H9.2c-0.5,0-0.9,0.4-0.9,0.9
	v34.3H6V26.5c0-0.5-0.4-0.9-0.9-0.9S4.1,26,4.1,26.5v27.4H1.9c-1.1,0-1.9,0.9-1.9,1.9v3.3C0,61.8,2.2,64,4.9,64h54.1
	c2.7,0,4.9-2.2,4.9-4.9v-3.3C64,54.7,63.1,53.8,62.1,53.8z M54.8,16.4c1.8,0,3.2,1.4,3.2,3.2v34.3h-2.3V19.6c0-0.5-0.4-0.9-0.9-0.9
	h-3.2v-2.3H54.8z M26.7,55.7h10.6v2.2c0,0.1,0,0.1-0.1,0.1H26.8c-0.1,0-0.1,0-0.1-0.1L26.7,55.7z M51.6,20.5h2.3v33.3h-2.3V20.5z
	 M14.3,1.9h35.4v51.9H14.3V1.9z M10.2,20.5h2.3v33.3h-2.3V20.5z M16.6,62.1h-6.4v-2.3h6.4L16.6,62.1L16.6,62.1z M62.1,59.1
	c0,1.7-1.4,3.1-3.1,3.1H18.4v-3.2c0-0.5-0.4-0.9-0.9-0.9H9.2c-0.5,0-0.9,0.4-0.9,0.9v3.2H4.9c-1.7,0-3.1-1.4-3.1-3.1v-3.3
	c0,0,0-0.1,0.1-0.1h22.9v2.2c0,1.1,0.9,2,2,2h10.4c1.1,0,2-0.9,2-2v-2.2h22.9c0,0,0.1,0,0.1,0.1V59.1z"/>
<path d="M17.5,37.1h4.1c0.5,0,0.9-0.4,0.9-0.9V32c0-0.5-0.4-0.9-0.9-0.9h-4.1c-0.5,0-0.9,0.4-0.9,0.9v4.1
	C16.6,36.7,17,37.1,17.5,37.1z M18.4,32.9h2.3v2.3h-2.3V32.9z"/>
<path d="M46.5,31.1h-4.1c-0.5,0-0.9,0.4-0.9,0.9v4.1c0,0.5,0.4,0.9,0.9,0.9h4.1c0.5,0,0.9-0.4,0.9-0.9V32
	C47.4,31.5,47,31.1,46.5,31.1z M45.6,35.2h-2.3v-2.3h2.3V35.2z"/>
<path d="M29.9,31.1c-0.5,0-0.9,0.4-0.9,0.9v4.1c0,0.5,0.4,0.9,0.9,0.9h4.1c0.5,0,0.9-0.4,0.9-0.9V32c0-0.5-0.4-0.9-0.9-0.9H29.9z
	 M33.1,35.2h-2.3v-2.3h2.3V35.2z"/>
<path d="M43.3,26.9V14.4c0-1.1-0.9-1.9-1.9-1.9H22.6c-1.1,0-1.9,0.9-1.9,1.9v12.5c0,1.1,0.9,1.9,1.9,1.9h18.7
	C42.4,28.8,43.3,27.9,43.3,26.9z M22.6,26.9V14.4c0,0,0-0.1,0.1-0.1h18.7c0,0,0.1,0,0.1,0.1v12.5c0,0,0,0.1-0.1,0.1L22.6,26.9
	C22.6,26.9,22.6,26.9,22.6,26.9z"/>
<path d="M36.6,19.8l-6.2-3.1c-0.3-0.1-0.6-0.1-0.9,0c-0.3,0.2-0.4,0.5-0.4,0.8v6.2c0,0.3,0.2,0.6,0.4,0.8c0.2,0.1,0.3,0.1,0.5,0.1
	c0.1,0,0.3,0,0.4-0.1l6.2-3.1c0.3-0.2,0.5-0.5,0.5-0.8C37.1,20.3,36.9,19.9,36.6,19.8L36.6,19.8z M30.9,22.2V19l3.2,1.6L30.9,22.2z"
	/>
<path d="M17.5,10.2h29c0.5,0,0.9-0.4,0.9-0.9V5.1c0-0.5-0.4-0.9-0.9-0.9h-29c-0.5,0-0.9,0.4-0.9,0.9v4.1C16.6,9.7,17,10.2,17.5,10.2
	z M18.4,6h27.1v2.3H18.4V6z"/>
<path d="M17.5,41.2h6.2c0.5,0,0.9-0.4,0.9-0.9s-0.4-0.9-0.9-0.9h-6.2c-0.5,0-0.9,0.4-0.9,0.9S17,41.2,17.5,41.2z"/>
<path d="M17.5,45.4h29c0.5,0,0.9-0.4,0.9-0.9s-0.4-0.9-0.9-0.9h-29c-0.5,0-0.9,0.4-0.9,0.9S17,45.4,17.5,45.4z"/>
<path d="M17.5,49.5h29c0.5,0,0.9-0.4,0.9-0.9s-0.4-0.9-0.9-0.9h-29c-0.5,0-0.9,0.4-0.9,0.9S17,49.5,17.5,49.5z"/>
</svg>
