<?xml version="1.0" encoding="utf-8"?>
<!-- Generator: Adobe Illustrator 21.0.0, SVG Export Plug-In . SVG Version: 6.00 Build 0)  -->
<svg version="1.1" id="Layer_1" xmlns="http://www.w3.org/2000/svg" xmlns:xlink="http://www.w3.org/1999/xlink" x="0px" y="0px"
	 viewBox="0 0 62.7 64" style="enable-background:new 0 0 62.7 64;" xml:space="preserve">
<style type="text/css">
	.st0{fill:url(#SVGID_1_);}
	.st1{fill:url(#SVGID_2_);}
	.st2{fill:url(#SVGID_3_);}
	.st3{fill:url(#SVGID_4_);}
	.st4{fill:url(#SVGID_5_);}
	.st5{fill:url(#SVGID_6_);}
	.st6{fill:url(#SVGID_7_);}
	.st7{fill:url(#SVGID_8_);}
	.st8{fill:url(#SVGID_9_);}
	.st9{fill:url(#SVGID_10_);}
	.st10{fill:url(#SVGID_11_);}
	.st11{fill:url(#SVGID_12_);}
</style>
<g>
	<linearGradient id="SVGID_1_" gradientUnits="userSpaceOnUse" x1="42.9194" y1="51.0672" x2="54.9969" y2="38.9898">
		<stop  offset="0" style="stop-color:#008DD2"/>
		<stop  offset="1" style="stop-color:#2E4183"/>
	</linearGradient>
	<path class="st0" d="M56.6,46.9l-0.7-0.3c0.2-1,0.2-2,0-3l0.7-0.3c0.7-0.3,1-1,0.7-1.7h0.1c0,0,0-0.1,0-0.1
		c-0.3-0.7-1.1-0.9-1.7-0.6l-0.7,0.3c-0.5-0.8-1.2-1.6-2.1-2.1l0.3-0.7c0-0.1,0.1-0.1,0.1-0.2c0.2-0.7-0.1-1.4-0.8-1.7
		s-1.4,0.1-1.7,0.8l-0.3,0.7c-1-0.2-2-0.2-2.9,0l-0.3-0.7c-0.3-0.7-1-1-1.7-0.7c-0.7,0.3-1,1-0.7,1.7l0.3,0.7
		c-0.8,0.5-1.5,1.2-2.1,2.1l-0.7-0.3c-0.7-0.3-1.4,0-1.7,0.7c-0.3,0.7,0,1.4,0.7,1.7l0.7,0.3c-0.2,1-0.2,2,0,2.9l-0.7,0.3
		c-0.5,0.2-0.8,0.7-0.8,1.2c0,0.7,0.6,1.3,1.3,1.3c0.2,0,0.3,0,0.5-0.1l0.7-0.3c0.5,0.8,1.2,1.5,2.1,2.1l-0.3,0.7c0,0,0,0,0,0
		c-0.3,0.7,0,1.4,0.7,1.7c0.2,0.1,0.3,0.1,0.5,0.1c0.5,0,1-0.3,1.2-0.8l0.3-0.7c0.5,0.1,1,0.2,1.5,0.2c0.5,0,1-0.1,1.4-0.2l0.3,0.7
		c0.2,0.5,0.7,0.8,1.2,0.8c0.2,0,0.3,0,0.5-0.1c0,0,0,0,0,0c0.7-0.3,1-1,0.7-1.7L52.8,51c0.8-0.5,1.5-1.2,2.1-2.1l0.8,0.3
		c0.2,0.1,0.3,0.1,0.5,0.1c0.5,0,1-0.3,1.2-0.8C57.6,47.9,57.3,47.1,56.6,46.9z M53.1,46.8c-0.5,1.1-1.3,2-2.5,2.4
		c-1.1,0.4-2.3,0.4-3.4-0.1c-2.3-1-3.4-3.6-2.4-5.9c0.5-1.1,1.3-2,2.5-2.4c0.5-0.2,1.1-0.3,1.7-0.3c0.6,0,1.3,0.1,1.8,0.4
		C53.1,41.9,54.1,44.5,53.1,46.8z"/>
	<linearGradient id="SVGID_2_" gradientUnits="userSpaceOnUse" x1="54.2601" y1="6.4746" x2="56.7603" y2="3.9744">
		<stop  offset="0" style="stop-color:#008DD2"/>
		<stop  offset="1" style="stop-color:#2E4183"/>
	</linearGradient>
	<path class="st1" d="M56.2,3.9h-1.3c-0.7,0-1.3,0.6-1.3,1.3s0.6,1.3,1.3,1.3h1.3c0.7,0,1.3-0.6,1.3-1.3S56.9,3.9,56.2,3.9z"/>
	<linearGradient id="SVGID_3_" gradientUnits="userSpaceOnUse" x1="47.403" y1="28.3521" x2="54.4746" y2="21.2805">
		<stop  offset="0" style="stop-color:#008DD2"/>
		<stop  offset="1" style="stop-color:#2E4183"/>
	</linearGradient>
	<path class="st2" d="M56.2,23.5H45.7c-0.7,0-1.3,0.6-1.3,1.3c0,0.7,0.6,1.3,1.3,1.3h10.4c0.7,0,1.3-0.6,1.3-1.3
		C57.5,24.1,56.9,23.5,56.2,23.5z"/>
	<linearGradient id="SVGID_4_" gradientUnits="userSpaceOnUse" x1="27.4846" y1="11.046" x2="39.1277" y2="-0.597">
		<stop  offset="0" style="stop-color:#008DD2"/>
		<stop  offset="1" style="stop-color:#2E4183"/>
	</linearGradient>
	<path class="st3" d="M43.1,3.9H23.5c-0.7,0-1.3,0.6-1.3,1.3s0.6,1.3,1.3,1.3h19.6c0.7,0,1.3-0.6,1.3-1.3S43.8,3.9,43.1,3.9z"/>
	<linearGradient id="SVGID_5_" gradientUnits="userSpaceOnUse" x1="42.505" y1="24.7603" x2="52.8419" y2="14.4234">
		<stop  offset="0" style="stop-color:#008DD2"/>
		<stop  offset="1" style="stop-color:#2E4183"/>
	</linearGradient>
	<path class="st4" d="M56.2,18.3h-17c-0.7,0-1.3,0.6-1.3,1.3c0,0.7,0.6,1.3,1.3,1.3h17c0.7,0,1.3-0.6,1.3-1.3
		C57.5,18.9,56.9,18.3,56.2,18.3z"/>
	<linearGradient id="SVGID_6_" gradientUnits="userSpaceOnUse" x1="47.7295" y1="6.4746" x2="50.2297" y2="3.9744">
		<stop  offset="0" style="stop-color:#008DD2"/>
		<stop  offset="1" style="stop-color:#2E4183"/>
	</linearGradient>
	<path class="st5" d="M49.6,3.9h-1.3c-0.7,0-1.3,0.6-1.3,1.3s0.6,1.3,1.3,1.3h1.3c0.7,0,1.3-0.6,1.3-1.3S50.4,3.9,49.6,3.9z"/>
	<linearGradient id="SVGID_7_" gradientUnits="userSpaceOnUse" x1="47.6137" y1="46.4206" x2="50.3482" y2="43.6862">
		<stop  offset="0" style="stop-color:#008DD2"/>
		<stop  offset="1" style="stop-color:#2E4183"/>
	</linearGradient>
	<path class="st6" d="M48.2,43.3c-1,0.4-1.5,1.5-1,2.5c0.4,1,1.5,1.4,2.5,1.1c1-0.4,1.5-1.5,1.1-2.5C50.4,43.3,49.2,42.9,48.2,43.3z
		"/>
	<linearGradient id="SVGID_8_" gradientUnits="userSpaceOnUse" x1="23.3517" y1="19.7503" x2="28.8932" y2="14.2089">
		<stop  offset="0" style="stop-color:#008DD2"/>
		<stop  offset="1" style="stop-color:#2E4183"/>
	</linearGradient>
	<path class="st7" d="M26.1,20.9c2.2,0,3.9-1.8,3.9-3.9s-1.8-3.9-3.9-3.9s-3.9,1.8-3.9,3.9S24,20.9,26.1,20.9z M26.1,15.7
		c0.7,0,1.3,0.6,1.3,1.3c0,0.7-0.6,1.3-1.3,1.3c-0.7,0-1.3-0.6-1.3-1.3C24.8,16.3,25.4,15.7,26.1,15.7z"/>
	<linearGradient id="SVGID_9_" gradientUnits="userSpaceOnUse" x1="23.8928" y1="27.046" x2="28.3521" y2="22.5866">
		<stop  offset="0" style="stop-color:#008DD2"/>
		<stop  offset="1" style="stop-color:#2E4183"/>
	</linearGradient>
	<path class="st8" d="M23.5,26.1h5.2c0.7,0,1.3-0.6,1.3-1.3c0-0.7-0.6-1.3-1.3-1.3h-5.2c-0.7,0-1.3,0.6-1.3,1.3
		C22.2,25.5,22.8,26.1,23.5,26.1z"/>
	<linearGradient id="SVGID_10_" gradientUnits="userSpaceOnUse" x1="42.505" y1="19.5358" x2="52.8419" y2="9.1989">
		<stop  offset="0" style="stop-color:#008DD2"/>
		<stop  offset="1" style="stop-color:#2E4183"/>
	</linearGradient>
	<path class="st9" d="M56.2,13.1h-17c-0.7,0-1.3,0.6-1.3,1.3s0.6,1.3,1.3,1.3h17c0.7,0,1.3-0.6,1.3-1.3S56.9,13.1,56.2,13.1z"/>
	<linearGradient id="SVGID_11_" gradientUnits="userSpaceOnUse" x1="24.5458" y1="51.2093" x2="27.6991" y2="48.056">
		<stop  offset="0" style="stop-color:#008DD2"/>
		<stop  offset="1" style="stop-color:#2E4183"/>
	</linearGradient>
	<path class="st10" d="M27.4,48.3h-2.6c-0.7,0-1.3,0.6-1.3,1.3s0.6,1.3,1.3,1.3h2.6c0.7,0,1.3-0.6,1.3-1.3S28.1,48.3,27.4,48.3z"/>
	<linearGradient id="SVGID_12_" gradientUnits="userSpaceOnUse" x1="6.8917" y1="59.4535" x2="63.3719" y2="2.9733">
		<stop  offset="0" style="stop-color:#008DD2"/>
		<stop  offset="1" style="stop-color:#2E4183"/>
	</linearGradient>
	<path class="st11" d="M62.7,34v-30c0-2.2-1.8-3.9-3.9-3.9H20.9C18.7,0,17,1.8,17,3.9V17H3.9C1.8,17,0,18.7,0,20.9v30
		c0,2.2,1.8,3.9,3.9,3.9h15.7v6.5H17c-0.7,0-1.3,0.6-1.3,1.3S16.3,64,17,64h18.3c0.7,0,1.3-0.6,1.3-1.3s-0.6-1.3-1.3-1.3h-2.6v-6.5
		h6.8c4.6,4.5,11.7,5.2,17.1,1.6c6.3-4.2,8-12.7,3.9-19C61.8,36.9,62.7,35.5,62.7,34z M19.6,3.9c0-0.7,0.6-1.3,1.3-1.3h37.9
		c0.7,0,1.3,0.6,1.3,1.3v3.9H19.6V3.9z M39.4,35.3c-0.1,0-0.1,0-0.2,0h-3.9V10.4h24.8V34c0,0.7-0.5,1.2-1.1,1.3
		c-0.1,0-0.2,0-0.3,0.1v-0.1C53.3,30,44.7,30,39.4,35.3z M19.6,10.4h13.1v24.8H20.9c-0.7,0-1.3-0.6-1.3-1.3V10.4z M2.6,20.9
		c0-0.7,0.6-1.3,1.3-1.3H17V34c0,2.2,1.8,3.9,3.9,3.9h16.4c-1.2,2-1.9,4.2-2,6.5H2.6V20.9z M30,61.4h-7.8v-6.5H30V61.4z M3.9,52.2
		c-0.4,0-0.7-0.2-0.9-0.4c-0.2-0.2-0.4-0.6-0.4-0.9V47h32.8c0.3,1.9,0.9,3.6,1.9,5.2H3.9z M49.3,56.5c-6.1,0.2-11.3-4.6-11.5-10.7
		c0,0,0,0,0,0c0,0,0,0,0-0.1c0-0.2,0-0.4,0-0.6c0-6.1,5-11.1,11.1-11.1s11.1,5,11.1,11.1V45C60.3,51.1,55.5,56.3,49.3,56.5z"/>
</g>
</svg>
