<?xml version="1.0" encoding="utf-8"?>
<!-- Generator: Adobe Illustrator 21.0.0, SVG Export Plug-In . SVG Version: 6.00 Build 0)  -->
<svg version="1.1" id="Layer_1" xmlns="http://www.w3.org/2000/svg" xmlns:xlink="http://www.w3.org/1999/xlink" x="0px" y="0px"
	 viewBox="0 0 64 64" style="enable-background:new 0 0 64 64;" xml:space="preserve">
<g id="setting">
	<path d="M63.7,55.8c-0.2-0.2-0.5-0.4-0.8-0.4h-1.1V20.3c0-1.8-1.4-3.2-3.2-3.2h-1.1v-1c0-0.5-0.4-1-0.9-1.1l-2.6-0.3l1.6-2
		c0.3-0.4,0.3-1-0.1-1.4l-2.9-2.9c-0.4-0.4-1-0.4-1.4-0.1l-2,1.6L49,7.3c-0.1-0.5-0.5-0.9-1.1-0.9h-4.1c-0.5,0-1,0.4-1.1,0.9
		l-0.3,2.6l-2-1.6C40,8,39.4,8,39,8.4l-2.9,2.9c-0.4,0.4-0.4,1-0.1,1.4l1.6,2L35.1,15c-0.5,0.1-0.9,0.5-0.9,1.1v1H5.3
		c-1.8,0-3.2,1.4-3.2,3.2v35.2H1.1c-0.3,0-0.6,0.1-0.8,0.4C0.1,56.1,0,56.4,0,56.7l0.8,4.6C1,62.9,2.4,64,3.9,64h56.1
		c1.6,0,2.9-1.1,3.1-2.7l0.8-4.6C64,56.4,63.9,56.1,63.7,55.8L63.7,55.8z M36.3,17l2.5-0.3c0.4-0.1,0.7-0.3,0.9-0.7
		c0.1-0.3,0.2-0.5,0.3-0.8c0.2-0.4,0.1-0.8-0.1-1.1l-1.6-2l1.5-1.5l2,1.6c0.3,0.3,0.8,0.3,1.1,0.1c0.2-0.1,0.5-0.2,0.8-0.3
		c0.4-0.1,0.7-0.5,0.7-0.9l0.3-2.5H47l0.3,2.5c0.1,0.4,0.3,0.7,0.7,0.9c0.3,0.1,0.5,0.2,0.8,0.3c0.4,0.2,0.8,0.1,1.1-0.1l2-1.6
		l1.5,1.5l-1.6,2c-0.3,0.3-0.3,0.8-0.1,1.1c0.1,0.2,0.2,0.5,0.3,0.8c0.1,0.4,0.5,0.7,0.9,0.7l2.5,0.3v2.2l-2.5,0.3
		c-0.4,0.1-0.7,0.3-0.9,0.7c-0.1,0.3-0.2,0.5-0.3,0.8c-0.2,0.4-0.1,0.8,0.1,1.1l1.6,2l-1.5,1.5l-2-1.6c-0.3-0.3-0.8-0.3-1.1-0.1
		c-0.2,0.1-0.5,0.2-0.8,0.3c-0.4,0.1-0.7,0.5-0.7,0.9L47,27.7h-2.2l-0.3-2.5c-0.1-0.4-0.3-0.7-0.7-0.9c-0.3-0.1-0.5-0.2-0.8-0.3
		c-0.4-0.2-0.8-0.1-1.1,0.1l-2,1.6l-1.5-1.5l1.6-2c0.3-0.3,0.3-0.8,0.1-1.1c-0.1-0.2-0.2-0.5-0.3-0.8c-0.1-0.4-0.5-0.7-0.9-0.7
		l-2.5-0.3V17z M4.3,20.3c0-0.6,0.5-1.1,1.1-1.1h28.8v1c0,0.5,0.4,1,0.9,1.1l2.6,0.3l-1.6,2c-0.3,0.4-0.3,1,0.1,1.4l2.9,2.9
		c0.4,0.4,1,0.4,1.4,0.1l2-1.6l0.3,2.6c0.1,0.5,0.5,0.9,1.1,0.9h4.1c0.5,0,1-0.4,1.1-0.9l0.3-2.6l2,1.6c0.4,0.3,1,0.3,1.4-0.1
		l2.9-2.9c0.4-0.4,0.4-1,0.1-1.4l-1.6-2l2.6-0.3c0.5-0.1,0.9-0.5,0.9-1.1v-1h1.1c0.6,0,1.1,0.5,1.1,1.1v35.2H36.3
		c-0.6,0-1.1,0.5-1.1,1.1v1.1h-6.4v-1.1c0-0.6-0.5-1.1-1.1-1.1H4.3L4.3,20.3z M61.1,61c-0.1,0.5-0.5,0.9-1,0.9H3.9
		c-0.5,0-1-0.4-1-0.9l-0.6-3.4h24.3v1.1c0,0.6,0.5,1.1,1.1,1.1h8.5c0.6,0,1.1-0.5,1.1-1.1v-1.1h24.3L61.1,61z"/>
	<path d="M28.9,36.4l-2.6-0.3l1.6-2c0.3-0.4,0.3-1-0.1-1.4L25,29.7c-0.4-0.4-1-0.4-1.4-0.1l-2,1.6l-0.3-2.6
		c-0.1-0.5-0.5-0.9-1.1-0.9h-4.1c-0.5,0-1,0.4-1.1,0.9l-0.3,2.6l-2-1.6c-0.4-0.3-1-0.3-1.4,0.1l-2.9,2.9C8,33,8,33.6,8.3,34l1.6,2
		l-2.6,0.3c-0.5,0.1-0.9,0.5-0.9,1.1v4.1c0,0.5,0.4,1,0.9,1.1l2.6,0.3l-1.6,2c-0.3,0.4-0.3,1,0.1,1.4l2.9,2.9c0.4,0.4,1,0.4,1.4,0.1
		l2-1.6l0.3,2.6c0.1,0.5,0.5,0.9,1.1,0.9h4.1c0.5,0,1-0.4,1.1-0.9l0.3-2.6l2,1.6c0.4,0.3,1,0.3,1.4-0.1l2.9-2.9
		c0.4-0.4,0.4-1,0.1-1.4l-1.6-2l2.6-0.3c0.5-0.1,0.9-0.5,0.9-1.1v-4.1C29.9,36.9,29.5,36.4,28.9,36.4z M27.7,40.6l-2.5,0.3
		c-0.4,0.1-0.7,0.3-0.9,0.7c-0.1,0.3-0.2,0.5-0.3,0.8c-0.2,0.4-0.1,0.8,0.1,1.1l1.6,2L24.1,47l-2-1.6c-0.3-0.3-0.8-0.3-1.1-0.1
		c-0.2,0.1-0.5,0.2-0.8,0.3c-0.4,0.1-0.7,0.5-0.7,0.9l-0.3,2.5H17l-0.3-2.5c-0.1-0.4-0.3-0.7-0.7-0.9c-0.3-0.1-0.5-0.2-0.8-0.3
		c-0.4-0.2-0.8-0.1-1.1,0.1l-2,1.6l-1.5-1.5l1.6-2c0.3-0.3,0.3-0.8,0.1-1.1c-0.1-0.2-0.2-0.5-0.3-0.8c-0.1-0.4-0.5-0.7-0.9-0.7
		l-2.5-0.3v-2.2l2.5-0.3c0.4-0.1,0.7-0.3,0.9-0.7c0.1-0.3,0.2-0.5,0.3-0.8c0.2-0.4,0.1-0.8-0.1-1.1l-1.6-2l1.5-1.5l2,1.6
		c0.3,0.3,0.8,0.3,1.1,0.1c0.2-0.1,0.5-0.2,0.8-0.3c0.4-0.1,0.7-0.5,0.7-0.9l0.3-2.5h2.2l0.3,2.5c0.1,0.4,0.3,0.7,0.7,0.9
		c0.3,0.1,0.5,0.2,0.8,0.3c0.4,0.2,0.8,0.1,1.1-0.1l2-1.6l1.5,1.5l-1.6,2c-0.3,0.3-0.3,0.8-0.1,1.1c0.1,0.2,0.2,0.5,0.3,0.8
		c0.1,0.4,0.5,0.7,0.9,0.7l2.5,0.3V40.6z"/>
	<path d="M18.1,34.1c-2.9,0-5.3,2.4-5.3,5.3s2.4,5.3,5.3,5.3s5.3-2.4,5.3-5.3C23.5,36.5,21.1,34.1,18.1,34.1z M18.1,42.7
		c-1.8,0-3.2-1.4-3.2-3.2s1.4-3.2,3.2-3.2c1.8,0,3.2,1.4,3.2,3.2S19.9,42.7,18.1,42.7z"/>
	<path d="M45.9,23.5c2.9,0,5.3-2.4,5.3-5.3s-2.4-5.3-5.3-5.3s-5.3,2.4-5.3,5.3C40.5,21.1,42.9,23.5,45.9,23.5z M45.9,14.9
		c1.8,0,3.2,1.4,3.2,3.2c0,1.8-1.4,3.2-3.2,3.2c-1.8,0-3.2-1.4-3.2-3.2C42.7,16.4,44.1,14.9,45.9,14.9z"/>
	<path d="M17.1,21.3h2.1v4.3h-2.1V21.3z"/>
	<path d="M19.2,2.1h25.6v2.1h2.1V1.1c0-0.6-0.5-1.1-1.1-1.1H18.1c-0.6,0-1.1,0.5-1.1,1.1v13.9h2.1V2.1z"/>
	<path d="M46.9,39.5V32h-2.1v6.4H32v2.1h13.9C46.5,40.5,46.9,40.1,46.9,39.5z"/>
	<path d="M44.8,46.9h12.8v2.1H44.8V46.9z"/>
	<path d="M36.3,46.9h6.4v2.1h-6.4V46.9z"/>
	<path d="M36.3,51.2h21.3v2.1H36.3V51.2z"/>
	<path d="M36.3,42.7h21.3v2.1H36.3V42.7z"/>
</g>
</svg>
