<?xml version="1.0" encoding="UTF-8"?>
<svg xmlns="http://www.w3.org/2000/svg" xmlns:xlink="http://www.w3.org/1999/xlink" width="64pt" height="64pt" viewBox="0 0 64 64" version="1.1">
<g id="surface1">
<path style=" stroke:none;fill-rule:nonzero;fill:rgb(8.627451%,40.784314%,67.45098%);fill-opacity:1;" d="M 60.054688 5.011719 L 3.945312 5.011719 C 1.769531 5.011719 0 6.777344 0 8.953125 L 0 47.03125 C 0 49.203125 1.769531 50.972656 3.945312 50.972656 L 22.921875 50.972656 L 22.152344 57.113281 L 18.972656 57.113281 C 18.457031 57.113281 18.035156 57.535156 18.035156 58.050781 C 18.035156 58.570312 18.457031 58.988281 18.972656 58.988281 L 45.027344 58.988281 C 45.542969 58.988281 45.964844 58.570312 45.964844 58.050781 C 45.964844 57.535156 45.542969 57.113281 45.027344 57.113281 L 41.847656 57.113281 L 41.078125 50.972656 L 60.054688 50.972656 C 62.230469 50.972656 64 49.203125 64 47.03125 L 64 8.953125 C 64 6.777344 62.230469 5.011719 60.054688 5.011719 Z M 24.042969 57.113281 L 24.8125 50.972656 L 28.261719 50.972656 L 28.601562 52.328125 C 28.992188 53.890625 30.390625 54.980469 32 54.980469 C 33.609375 54.980469 35.007812 53.890625 35.398438 52.328125 L 35.738281 50.972656 L 39.1875 50.972656 L 39.957031 57.113281 Z M 30.195312 50.972656 L 33.804688 50.972656 L 33.582031 51.871094 C 33.398438 52.597656 32.75 53.105469 32 53.105469 C 31.25 53.105469 30.601562 52.597656 30.417969 51.871094 Z M 62.125 47.03125 C 62.125 48.171875 61.195312 49.097656 60.054688 49.097656 L 3.945312 49.097656 C 2.804688 49.097656 1.875 48.171875 1.875 47.03125 L 1.875 8.953125 C 1.875 7.8125 2.804688 6.886719 3.945312 6.886719 L 60.054688 6.886719 C 61.195312 6.886719 62.125 7.8125 62.125 8.953125 Z M 62.125 47.03125 "/>
<path style=" stroke:none;fill-rule:nonzero;fill:rgb(8.627451%,40.784314%,67.45098%);fill-opacity:1;" d="M 53.042969 9.019531 L 4.945312 9.019531 C 4.425781 9.019531 4.007812 9.4375 4.007812 9.957031 L 4.007812 46.027344 C 4.007812 46.546875 4.425781 46.964844 4.945312 46.964844 L 6.949219 46.964844 C 7.46875 46.964844 7.886719 46.546875 7.886719 46.027344 C 7.886719 45.511719 7.46875 45.089844 6.949219 45.089844 L 5.882812 45.089844 L 5.882812 10.894531 L 53.042969 10.894531 C 53.558594 10.894531 53.980469 10.472656 53.980469 9.957031 C 53.980469 9.4375 53.558594 9.019531 53.042969 9.019531 Z M 59.054688 9.019531 L 57.050781 9.019531 C 56.53125 9.019531 56.113281 9.4375 56.113281 9.957031 C 56.113281 10.472656 56.53125 10.894531 57.050781 10.894531 L 58.117188 10.894531 L 58.117188 45.089844 L 10.957031 45.089844 C 10.441406 45.089844 10.019531 45.511719 10.019531 46.027344 C 10.019531 46.546875 10.441406 46.964844 10.957031 46.964844 L 59.054688 46.964844 C 59.570312 46.964844 59.992188 46.546875 59.992188 46.027344 L 59.992188 9.957031 C 59.992188 9.4375 59.570312 9.019531 59.054688 9.019531 Z M 59.054688 9.019531 "/>
<path style=" stroke:none;fill-rule:nonzero;fill:rgb(8.627451%,40.784314%,67.45098%);fill-opacity:1;" d="M 44.761719 19.398438 C 44.59375 19.183594 44.339844 19.050781 44.066406 19.039062 L 22.023438 18.039062 C 22.003906 18.035156 21.988281 18.035156 21.972656 18.035156 C 21.839844 17.609375 21.566406 17.238281 21.191406 16.988281 L 18.492188 15.1875 C 18.0625 14.902344 17.480469 15.015625 17.191406 15.449219 C 16.90625 15.878906 17.019531 16.460938 17.453125 16.746094 L 20.152344 18.546875 C 20.164062 18.554688 20.171875 18.570312 20.179688 18.582031 L 23.617188 30.617188 C 23.722656 30.992188 23.898438 31.332031 24.125 31.621094 L 22.867188 34.136719 C 22.566406 34.742188 22.597656 35.449219 22.953125 36.027344 C 23.082031 36.234375 23.246094 36.414062 23.433594 36.554688 C 23.1875 36.984375 23.046875 37.480469 23.046875 38.011719 C 23.046875 39.632812 24.367188 40.953125 25.988281 40.953125 C 27.609375 40.953125 28.929688 39.632812 28.929688 38.011719 C 28.929688 37.636719 28.859375 37.277344 28.730469 36.945312 L 37.277344 36.945312 C 37.148438 37.277344 37.074219 37.636719 37.074219 38.011719 C 37.074219 39.632812 38.394531 40.953125 40.015625 40.953125 C 41.636719 40.953125 42.957031 39.632812 42.957031 38.011719 C 42.957031 37.542969 42.847656 37.097656 42.648438 36.703125 C 42.839844 36.53125 42.957031 36.285156 42.957031 36.007812 C 42.957031 35.488281 42.539062 35.070312 42.019531 35.070312 L 24.601562 35.070312 C 24.589844 35.070312 24.566406 35.070312 24.546875 35.039062 C 24.53125 35.007812 24.539062 34.988281 24.546875 34.976562 L 25.703125 32.660156 C 25.941406 32.71875 26.1875 32.753906 26.4375 32.753906 C 26.554688 32.753906 26.671875 32.746094 26.789062 32.730469 L 39.960938 31.183594 C 41.664062 30.980469 43.03125 29.71875 43.367188 28.039062 L 44.945312 20.160156 C 44.996094 19.890625 44.929688 19.613281 44.761719 19.398438 Z M 40.015625 36.945312 C 40.605469 36.945312 41.082031 37.425781 41.082031 38.011719 C 41.082031 38.601562 40.605469 39.078125 40.015625 39.078125 C 39.429688 39.078125 38.949219 38.601562 38.949219 38.011719 C 38.949219 37.425781 39.429688 36.945312 40.015625 36.945312 Z M 25.988281 36.945312 C 26.574219 36.945312 27.054688 37.425781 27.054688 38.011719 C 27.054688 38.601562 26.574219 39.078125 25.988281 39.078125 C 25.398438 39.078125 24.921875 38.601562 24.921875 38.011719 C 24.921875 37.425781 25.398438 36.945312 25.988281 36.945312 Z M 23.6875 24.046875 L 22.515625 19.9375 L 26.261719 20.105469 L 26.914062 24.046875 Z M 26.570312 30.871094 C 26.046875 30.929688 25.5625 30.609375 25.417969 30.101562 L 24.226562 25.921875 L 27.222656 25.921875 L 28.007812 30.699219 Z M 32.066406 30.222656 L 29.875 30.480469 L 29.121094 25.921875 L 32.066406 25.921875 Z M 32.066406 24.046875 L 28.8125 24.046875 L 28.175781 20.195312 L 32.066406 20.371094 Z M 36.8125 29.664062 L 33.941406 30.003906 L 33.941406 25.921875 L 37.152344 25.921875 Z M 37.320312 24.046875 L 33.941406 24.046875 L 33.941406 20.457031 L 37.628906 20.625 Z M 41.527344 27.671875 C 41.351562 28.550781 40.632812 29.214844 39.742188 29.320312 L 38.714844 29.441406 L 39.035156 25.921875 L 41.878906 25.921875 Z M 42.253906 24.046875 L 39.203125 24.046875 L 39.503906 20.707031 L 42.890625 20.863281 Z M 42.253906 24.046875 "/>
</g>
</svg>
