<?xml version="1.0" encoding="utf-8"?>
<!-- Generator: Adobe Illustrator 21.0.0, SVG Export Plug-In . SVG Version: 6.00 Build 0)  -->
<svg version="1.1" id="Layer_1" xmlns="http://www.w3.org/2000/svg" xmlns:xlink="http://www.w3.org/1999/xlink" x="0px" y="0px"
	 viewBox="0 0 64 64" style="enable-background:new 0 0 64 64;" xml:space="preserve">
<path d="M48.5,24.5c5,0,9.1-4.1,9.1-9.1s-4.1-9.1-9.1-9.1s-9.1,4.1-9.1,9.1S43.5,24.5,48.5,24.5z M48.5,8.5c3.8,0,6.9,3.1,6.9,6.9
	s-3.1,6.9-6.9,6.9s-6.9-3.1-6.9-6.9S44.7,8.5,48.5,8.5z"/>
<path d="M48.5,17.1c0.9,0,1.6-0.7,1.6-1.6c0-0.1,0-0.2,0-0.3l2-2.8l-1.7-1.2l-2,2.8c-0.8,0.1-1.4,0.8-1.4,1.6
	C46.9,16.3,47.7,17.1,48.5,17.1z"/>
<path d="M1.1,64h8.5c0.6,0,1.1-0.5,1.1-1.1v-6.4c0-0.6-0.5-1.1-1.1-1.1H1.1c-0.6,0-1.1,0.5-1.1,1.1v6.4C0,63.5,0.5,64,1.1,64z
	 M2.1,57.6h6.4v4.3H2.1V57.6z"/>
<path d="M19.2,64h8.5c0.6,0,1.1-0.5,1.1-1.1v-8.5c0-0.6-0.5-1.1-1.1-1.1h-8.5c-0.6,0-1.1,0.5-1.1,1.1v8.5C18.1,63.5,18.6,64,19.2,64
	z M20.3,55.5h6.4v6.4h-6.4V55.5z"/>
<path d="M45.9,64c0.6,0,1.1-0.5,1.1-1.1V44.8c0-0.6-0.5-1.1-1.1-1.1h-8.5c-0.6,0-1.1,0.5-1.1,1.1v18.1c0,0.6,0.5,1.1,1.1,1.1H45.9z
	 M38.4,45.9h6.4v16h-6.4V45.9z"/>
<path d="M54.4,34.1c-0.6,0-1.1,0.5-1.1,1.1v27.7c0,0.6,0.5,1.1,1.1,1.1h8.5c0.6,0,1.1-0.5,1.1-1.1V35.2c0-0.6-0.5-1.1-1.1-1.1H54.4z
	 M61.9,61.9h-6.4V36.3h6.4V61.9z"/>
<path d="M17.1,44.1c5.5,0,10-4.5,10-10s-4.5-10-10-10s-10,4.5-10,10S11.6,44.1,17.1,44.1z M20.3,41.3c-1,0.4-2.1,0.7-3.2,0.7
	c-1.1,0-2.2-0.3-3.2-0.7v-5c0-0.6,0.5-1.1,1.1-1.1c0.4,0,0.8-0.2,1-0.6c0.2-0.4,0.1-0.8-0.1-1.1c-0.2-0.2-0.3-0.5-0.3-1
	c0-0.5,0.2-1,0.6-1.3c0.4-0.3,0.9-0.4,1.4-0.3c0.5,0.1,1,0.6,1.1,1.1c0.2,0.7,0,1.1-0.3,1.4c-0.2,0.3-0.3,0.8-0.1,1.1
	c0.2,0.4,0.6,0.6,1,0.6c0.6,0,1.1,0.5,1.1,1.1V41.3z M17.1,26.3c4.3,0,7.8,3.5,7.8,7.8c0,2.3-1,4.3-2.5,5.7v-3.6
	c0-1.2-0.7-2.3-1.7-2.8c0.2-0.6,0.2-1.3,0-2c-0.4-1.2-1.4-2.2-2.6-2.5c-1.1-0.3-2.3,0-3.2,0.7c-0.9,0.7-1.4,1.8-1.4,2.9
	c0,0.3,0,0.6,0.1,0.9c-1,0.5-1.7,1.6-1.7,2.8v3.6c-1.5-1.4-2.5-3.5-2.5-5.7C9.2,29.8,12.8,26.3,17.1,26.3z"/>
<path d="M0.7,37.8l3,1l0.6,1.4l-1.3,2.7c-0.2,0.3-0.1,0.8,0.1,1.1c1.1,1.6,2.5,2.9,4,4c0.3,0.2,0.7,0.3,1.1,0.1l2.7-1.3l1.4,0.6l1,3
	c0.1,0.4,0.6,0.7,1,0.7h5.3c0.5,0,0.9-0.3,1-0.7l1-3c0.5-0.2,1-0.4,1.5-0.6l2.6,1.3c0.3,0.2,0.8,0.1,1.1-0.1c1.6-1.1,2.9-2.5,4-4
	c0.2-0.3,0.3-0.7,0.1-1.1l-1.3-2.6c0.2-0.5,0.4-1,0.6-1.5l3-1c0.4-0.1,0.7-0.6,0.7-1v-5.3c0-0.5-0.3-0.9-0.7-1l-3-1
	c-0.2-0.5-0.4-1-0.6-1.5l1.3-2.6c0.2-0.4,0.1-0.8-0.1-1.1c-1.1-1.6-2.5-2.9-4-4c-0.3-0.2-0.7-0.3-1.1-0.1l-2.6,1.3
	c-0.5-0.2-1-0.4-1.5-0.6l-1-3c-0.1-0.4-0.6-0.7-1-0.7h-5.3c-0.5,0-0.9,0.3-1,0.7l-1,3L11,21.4l-2.7-1.3C7.9,20,7.5,20,7.2,20.2
	c-1.6,1.1-2.9,2.5-4,4c-0.2,0.3-0.3,0.7-0.1,1.1L4.3,28l-0.6,1.4l-3,1C0.3,30.6,0,31,0,31.5v5.3C0,37.3,0.3,37.7,0.7,37.8z
	 M2.1,32.2l2.7-0.9c0.3-0.1,0.5-0.3,0.6-0.6l1-2.3c0.1-0.3,0.1-0.6,0-0.9L5.3,25c0.8-1,1.7-1.9,2.7-2.7l2.5,1.2
	c0.3,0.1,0.6,0.1,0.9,0l2.3-1c0.3-0.1,0.5-0.4,0.6-0.6l0.9-2.8H19l0.9,2.7c0.1,0.3,0.4,0.6,0.7,0.7c0.7,0.2,1.4,0.5,2.1,0.9
	c0.3,0.2,0.7,0.2,1,0l2.5-1.2c1,0.8,1.9,1.7,2.7,2.7l-1.2,2.5c-0.1,0.3-0.1,0.7,0,1c0.4,0.7,0.7,1.4,0.9,2.1
	c0.1,0.3,0.4,0.6,0.7,0.7l2.8,0.9V36l-2.7,0.9c-0.3,0.1-0.6,0.4-0.7,0.7c-0.2,0.7-0.5,1.4-0.9,2.1c-0.2,0.3-0.2,0.7,0,1l1.2,2.5
	c-0.8,1-1.7,1.9-2.7,2.7l-2.5-1.2c-0.3-0.1-0.7-0.1-1,0c-0.7,0.4-1.4,0.7-2.1,0.9c-0.3,0.1-0.6,0.4-0.7,0.7L19,49.1h-3.8l-0.9-2.7
	c-0.1-0.3-0.3-0.5-0.6-0.6l-2.3-1c-0.3-0.1-0.6-0.1-0.9,0l-2.5,1.2c-1-0.8-1.9-1.7-2.7-2.7l1.2-2.5c0.1-0.3,0.1-0.6,0-0.9l-1-2.3
	c-0.1-0.3-0.4-0.5-0.6-0.6L2.1,36V32.2z"/>
<path d="M37,10l-0.5,1.2L33.8,12c-0.4,0.1-0.7,0.6-0.7,1v4.8c0,0.5,0.3,0.9,0.7,1l2.7,0.9L37,21l-1.1,2.4c-0.2,0.4-0.1,0.8,0.1,1.1
	c1,1.4,2.2,2.6,3.7,3.7c0.3,0.2,0.7,0.3,1.1,0.1l2.3-1.1c0.4,0.2,0.8,0.4,1.3,0.5l0.9,2.6c0.1,0.4,0.6,0.7,1,0.7h4.8
	c0.5,0,0.9-0.3,1-0.7l0.9-2.6c0.4-0.2,0.8-0.3,1.3-0.5l2.3,1.1c0.4,0.2,0.8,0.1,1.1-0.1c1.4-1,2.6-2.2,3.7-3.7
	c0.2-0.3,0.3-0.7,0.1-1.1L60.1,21c0.2-0.4,0.4-0.8,0.5-1.3l2.6-0.9c0.4-0.1,0.7-0.6,0.7-1v-4.8c0-0.5-0.3-0.9-0.7-1l-2.6-0.9
	c-0.2-0.4-0.3-0.8-0.5-1.3l1.1-2.3c0.2-0.3,0.1-0.8-0.1-1.1c-1-1.4-2.2-2.6-3.7-3.7c-0.3-0.2-0.7-0.3-1.1-0.1l-2.3,1.1
	c-0.4-0.2-0.8-0.4-1.3-0.5L52,0.7c-0.1-0.4-0.6-0.7-1-0.7h-4.8c-0.5,0-0.9,0.3-1,0.7l-0.9,2.7L43,3.9l-2.4-1.1
	c-0.3-0.2-0.8-0.1-1.1,0.1c-1.4,1-2.6,2.2-3.7,3.7c-0.2,0.3-0.3,0.7-0.1,1.1L37,10z M38.3,12.4l0.9-2.1c0.1-0.3,0.1-0.6,0-0.9
	L38,7.3c0.7-0.9,1.4-1.6,2.3-2.3L42.5,6c0.3,0.1,0.6,0.1,0.9,0l2.1-0.9c0.3-0.1,0.5-0.4,0.6-0.6l0.8-2.4h3.3L51,4.5
	c0.1,0.3,0.4,0.6,0.7,0.7C52.3,5.4,53,5.7,53.6,6c0.3,0.2,0.7,0.2,1,0L56.7,5c0.9,0.7,1.6,1.4,2.3,2.3L58,9.5c-0.1,0.3-0.1,0.7,0,1
	c0.3,0.6,0.6,1.2,0.8,1.9c0.1,0.3,0.4,0.6,0.7,0.7l2.4,0.8v3.3l-2.4,0.8c-0.3,0.1-0.6,0.4-0.7,0.7c-0.2,0.6-0.5,1.3-0.8,1.9
	c-0.2,0.3-0.2,0.7,0,1l1.1,2.2c-0.7,0.9-1.4,1.6-2.3,2.3l-2.2-1.1c-0.3-0.1-0.7-0.1-1,0c-0.6,0.3-1.2,0.6-1.9,0.8
	c-0.3,0.1-0.6,0.4-0.7,0.7l-0.8,2.4h-3.3l-0.8-2.4c-0.1-0.3-0.4-0.6-0.7-0.7c-0.6-0.2-1.3-0.5-1.9-0.8c-0.3-0.2-0.7-0.2-1,0L40.3,26
	c-0.9-0.7-1.6-1.4-2.3-2.3l1.1-2.2c0.1-0.3,0.1-0.6,0-0.9l-0.9-2.1c-0.1-0.3-0.4-0.5-0.6-0.6l-2.4-0.8v-3.3l2.4-0.8
	C37.9,12.9,38.1,12.7,38.3,12.4z"/>
<path d="M0.6,17.2l2.1-1.1l1,1.9l-2.1,1.1L0.6,17.2z"/>
<path d="M5.8,16.8L30.6,3.6L28.9,7l1.9,1L34,1.5c0.2-0.3,0.1-0.7,0-1C33.8,0.2,33.4,0,33.1,0h-7.5v2.1h3.2l-24,12.8L5.8,16.8z"/>
</svg>
