<?xml version="1.0" encoding="UTF-8"?>
<svg xmlns="http://www.w3.org/2000/svg" xmlns:xlink="http://www.w3.org/1999/xlink" width="64pt" height="64pt" viewBox="0 0 64 64" version="1.1">
<g id="surface1">
<path style=" stroke:none;fill-rule:nonzero;fill:rgb(8.627451%,40.784314%,67.45098%);fill-opacity:1;" d="M 59.730469 1.066406 L 4.269531 1.066406 C 1.914062 1.066406 0 2.980469 0 5.335938 L 0 40.535156 C 0 41.121094 0.476562 41.601562 1.066406 41.601562 L 62.933594 41.601562 C 63.523438 41.601562 64 41.121094 64 40.535156 L 64 5.335938 C 64 2.980469 62.085938 1.066406 59.730469 1.066406 Z M 61.867188 39.464844 L 2.132812 39.464844 L 2.132812 5.335938 C 2.132812 4.15625 3.089844 3.199219 4.269531 3.199219 L 59.730469 3.199219 C 60.910156 3.199219 61.867188 4.15625 61.867188 5.335938 Z M 61.867188 39.464844 "/>
<path style=" stroke:none;fill-rule:nonzero;fill:rgb(8.627451%,40.784314%,67.45098%);fill-opacity:1;" d="M 62.933594 39.464844 L 1.066406 39.464844 C 0.476562 39.464844 0 39.945312 0 40.535156 L 0 45.867188 C 0 48.21875 1.914062 50.132812 4.269531 50.132812 L 59.730469 50.132812 C 62.085938 50.132812 64 48.21875 64 45.867188 L 64 40.535156 C 64 39.945312 63.523438 39.464844 62.933594 39.464844 Z M 61.867188 45.867188 C 61.867188 47.042969 60.910156 48 59.730469 48 L 4.269531 48 C 3.089844 48 2.132812 47.042969 2.132812 45.867188 L 2.132812 41.601562 L 61.867188 41.601562 Z M 61.867188 45.867188 "/>
<path style=" stroke:none;fill-rule:nonzero;fill:rgb(8.627451%,40.784314%,67.45098%);fill-opacity:1;" d="M 35.199219 43.734375 L 28.800781 43.734375 C 28.210938 43.734375 27.734375 44.210938 27.734375 44.800781 C 27.734375 45.390625 28.210938 45.867188 28.800781 45.867188 L 35.199219 45.867188 C 35.789062 45.867188 36.265625 45.390625 36.265625 44.800781 C 36.265625 44.210938 35.789062 43.734375 35.199219 43.734375 Z M 58.667969 5.332031 L 5.332031 5.332031 C 4.746094 5.332031 4.265625 5.8125 4.265625 6.398438 L 4.265625 40.535156 C 4.265625 41.121094 4.746094 41.601562 5.332031 41.601562 L 58.667969 41.601562 C 59.253906 41.601562 59.734375 41.121094 59.734375 40.535156 L 59.734375 6.398438 C 59.734375 5.8125 59.253906 5.332031 58.667969 5.332031 Z M 57.601562 39.464844 L 6.398438 39.464844 L 6.398438 7.464844 L 57.601562 7.464844 Z M 45.867188 56.535156 L 18.132812 56.535156 C 16.367188 56.535156 14.933594 57.96875 14.933594 59.734375 C 14.933594 61.496094 16.367188 62.933594 18.132812 62.933594 L 45.867188 62.933594 C 47.632812 62.933594 49.066406 61.496094 49.066406 59.734375 C 49.066406 57.96875 47.632812 56.535156 45.867188 56.535156 Z M 45.867188 60.800781 L 18.132812 60.800781 C 17.542969 60.800781 17.066406 60.320312 17.066406 59.734375 C 17.066406 59.144531 17.542969 58.667969 18.132812 58.667969 L 45.867188 58.667969 C 46.457031 58.667969 46.933594 59.144531 46.933594 59.734375 C 46.933594 60.320312 46.457031 60.800781 45.867188 60.800781 Z M 45.867188 60.800781 "/>
<path style=" stroke:none;fill-rule:nonzero;fill:rgb(8.627451%,40.784314%,67.45098%);fill-opacity:1;" d="M 43.734375 56.535156 C 40.195312 56.535156 38.398438 54.019531 38.398438 49.066406 C 38.398438 48.476562 37.921875 48 37.332031 48 L 26.667969 48 C 26.078125 48 25.601562 48.476562 25.601562 49.066406 C 25.601562 54.019531 23.804688 56.535156 20.265625 56.535156 C 19.679688 56.535156 19.199219 57.011719 19.199219 57.601562 C 19.199219 58.1875 19.679688 58.667969 20.265625 58.667969 L 43.734375 58.667969 C 44.320312 58.667969 44.800781 58.1875 44.800781 57.601562 C 44.800781 57.011719 44.320312 56.535156 43.734375 56.535156 Z M 25.460938 56.535156 C 26.777344 55.078125 27.546875 52.910156 27.703125 50.132812 L 36.296875 50.132812 C 36.449219 52.910156 37.222656 55.078125 38.539062 56.535156 Z M 50.96875 32.496094 L 48.394531 29.921875 L 49.828125 28.488281 C 50.09375 28.222656 50.199219 27.835938 50.109375 27.472656 C 50.015625 27.109375 49.738281 26.820312 49.378906 26.710938 L 38.714844 23.511719 C 38.335938 23.398438 37.929688 23.5 37.652344 23.777344 C 37.375 24.054688 37.273438 24.464844 37.386719 24.839844 L 40.585938 35.507812 C 40.695312 35.867188 40.980469 36.144531 41.347656 36.234375 C 41.707031 36.324219 42.097656 36.21875 42.363281 35.953125 L 43.871094 34.445312 L 46.445312 37.019531 C 46.644531 37.222656 46.917969 37.332031 47.199219 37.332031 C 47.480469 37.332031 47.753906 37.222656 47.953125 37.019531 L 50.96875 34.003906 C 51.386719 33.585938 51.386719 32.910156 50.96875 32.496094 Z M 47.199219 34.757812 L 44.855469 32.414062 C 44.582031 32.140625 44.226562 32.003906 43.871094 32.003906 C 43.511719 32.003906 43.15625 32.140625 42.886719 32.410156 L 42.117188 33.183594 L 39.996094 26.125 L 47.054688 28.242188 L 46.230469 29.066406 C 46.003906 29.292969 45.878906 29.597656 45.878906 29.921875 C 45.878906 30.242188 46.003906 30.546875 46.234375 30.773438 L 48.707031 33.25 Z M 44.800781 9.601562 L 14.933594 9.601562 C 14.34375 9.601562 13.867188 10.078125 13.867188 10.667969 L 13.867188 16 C 13.867188 16.589844 14.34375 17.066406 14.933594 17.066406 L 44.800781 17.066406 C 45.390625 17.066406 45.867188 16.589844 45.867188 16 L 45.867188 10.667969 C 45.867188 10.078125 45.390625 9.601562 44.800781 9.601562 Z M 43.734375 14.933594 L 16 14.933594 L 16 11.734375 L 43.734375 11.734375 Z M 27.734375 21.332031 L 19.199219 21.332031 C 18.609375 21.332031 18.132812 21.8125 18.132812 22.398438 L 18.132812 26.667969 C 18.132812 27.253906 18.609375 27.734375 19.199219 27.734375 L 27.734375 27.734375 C 28.320312 27.734375 28.800781 27.253906 28.800781 26.667969 L 28.800781 22.398438 C 28.800781 21.8125 28.320312 21.332031 27.734375 21.332031 Z M 26.667969 25.601562 L 20.265625 25.601562 L 20.265625 23.464844 L 26.667969 23.464844 Z M 26.667969 25.601562 "/>
<path style=" stroke:none;fill-rule:nonzero;fill:rgb(8.627451%,40.784314%,67.45098%);fill-opacity:1;" d="M 44.800781 9.601562 L 14.933594 9.601562 C 14.34375 9.601562 13.867188 10.078125 13.867188 10.667969 L 13.867188 30.933594 C 13.867188 31.523438 14.34375 32 14.933594 32 L 40.328125 32 C 40.664062 32 40.980469 31.839844 41.183594 31.570312 C 41.382812 31.300781 41.445312 30.949219 41.347656 30.625 L 39.996094 26.125 L 44.492188 27.472656 C 44.816406 27.570312 45.167969 27.507812 45.4375 27.304688 C 45.707031 27.105469 45.867188 26.789062 45.867188 26.449219 L 45.867188 10.667969 C 45.867188 10.078125 45.390625 9.601562 44.800781 9.601562 Z M 43.734375 25.019531 L 38.710938 23.511719 C 38.335938 23.398438 37.929688 23.5 37.652344 23.777344 C 37.375 24.058594 37.273438 24.464844 37.382812 24.839844 L 38.894531 29.867188 L 16 29.867188 L 16 11.734375 L 43.734375 11.734375 Z M 43.734375 25.019531 "/>
</g>
</svg>
