<?xml version="1.0" encoding="UTF-8"?>
<svg xmlns="http://www.w3.org/2000/svg" xmlns:xlink="http://www.w3.org/1999/xlink" width="64pt" height="64pt" viewBox="0 0 64 64" version="1.1">
<g id="surface1">
<path style=" stroke:none;fill-rule:nonzero;fill:rgb(8.627451%,40.784314%,67.45098%);fill-opacity:1;" d="M 33.550781 41.8125 C 33.226562 40.933594 32.378906 40.34375 31.4375 40.34375 L 4.945312 40.34375 C 4.007812 40.34375 3.160156 40.933594 2.835938 41.8125 L 0.101562 49.222656 C -0.292969 50.289062 0.5 51.421875 1.636719 51.421875 L 3.308594 51.421875 L 3.308594 53.773438 C 3.308594 54.292969 3.726562 54.710938 4.246094 54.710938 C 4.761719 54.710938 5.183594 54.292969 5.183594 53.773438 L 5.183594 51.421875 L 12.3125 51.421875 C 13.011719 51.421875 13.652344 51.011719 13.941406 50.371094 L 15.164062 47.65625 L 21.222656 47.65625 L 22.445312 50.371094 C 22.734375 51.011719 23.371094 51.421875 24.074219 51.421875 L 31.203125 51.421875 L 31.203125 60.007812 C 31.203125 60.179688 31.0625 60.320312 30.890625 60.320312 L 5.496094 60.320312 C 5.324219 60.320312 5.183594 60.179688 5.183594 60.007812 L 5.183594 58.148438 C 5.183594 57.632812 4.761719 57.210938 4.246094 57.210938 C 3.726562 57.210938 3.308594 57.632812 3.308594 58.148438 L 3.308594 60.007812 C 3.308594 61.214844 4.289062 62.195312 5.496094 62.195312 L 30.890625 62.195312 C 32.09375 62.195312 33.078125 61.214844 33.078125 60.007812 L 33.078125 51.421875 L 34.75 51.421875 C 35.886719 51.421875 36.675781 50.289062 36.28125 49.222656 Z M 24.132812 49.546875 L 22.90625 46.832031 C 22.621094 46.195312 21.980469 45.78125 21.277344 45.78125 L 15.105469 45.78125 C 14.40625 45.78125 13.765625 46.195312 13.476562 46.832031 L 12.253906 49.546875 L 1.980469 49.546875 L 4.59375 42.464844 C 4.648438 42.316406 4.789062 42.21875 4.945312 42.21875 L 31.4375 42.21875 C 31.59375 42.21875 31.738281 42.316406 31.792969 42.460938 L 34.402344 49.546875 Z M 49.785156 17.773438 C 50.234375 17.515625 50.386719 16.941406 50.128906 16.492188 L 48.449219 13.585938 C 48.054688 12.902344 47.351562 12.496094 46.566406 12.496094 C 45.78125 12.496094 45.078125 12.902344 44.683594 13.585938 L 42.109375 18.046875 L 41.847656 17.179688 C 41.699219 16.683594 41.175781 16.402344 40.679688 16.550781 C 40.183594 16.699219 39.902344 17.222656 40.050781 17.71875 L 40.875 20.453125 C 40.960938 20.742188 41.152344 20.980469 41.410156 21.128906 C 41.65625 21.273438 41.960938 21.328125 42.265625 21.257812 L 45.042969 20.601562 C 45.546875 20.480469 45.859375 19.976562 45.742188 19.472656 C 45.621094 18.96875 45.117188 18.65625 44.613281 18.773438 L 43.730469 18.984375 L 46.308594 14.523438 C 46.382812 14.390625 46.503906 14.371094 46.566406 14.371094 C 46.632812 14.371094 46.75 14.390625 46.824219 14.523438 L 48.503906 17.429688 C 48.765625 17.878906 49.339844 18.03125 49.785156 17.773438 Z M 43.816406 31.511719 C 44.195312 31.867188 44.785156 31.847656 45.140625 31.472656 L 47.097656 29.394531 C 47.523438 28.941406 47.523438 28.242188 47.097656 27.789062 L 45.140625 25.707031 C 44.785156 25.332031 44.191406 25.3125 43.816406 25.667969 C 43.4375 26.023438 43.421875 26.617188 43.773438 26.996094 L 44.394531 27.652344 L 39.246094 27.652344 C 39.09375 27.652344 39.019531 27.558594 38.984375 27.503906 C 38.953125 27.449219 38.910156 27.335938 38.984375 27.203125 L 40.664062 24.296875 C 40.925781 23.847656 40.769531 23.273438 40.320312 23.015625 C 39.875 22.753906 39.300781 22.910156 39.042969 23.359375 L 37.363281 26.265625 C 36.96875 26.949219 36.96875 27.761719 37.363281 28.441406 C 37.753906 29.121094 38.457031 29.527344 39.246094 29.527344 L 44.394531 29.527344 L 43.773438 30.1875 C 43.421875 30.5625 43.4375 31.15625 43.816406 31.511719 Z M 53.890625 27.652344 L 50.53125 27.652344 C 50.011719 27.652344 49.59375 28.074219 49.59375 28.589844 C 49.59375 29.109375 50.011719 29.527344 50.53125 29.527344 L 53.890625 29.527344 C 54.675781 29.527344 55.378906 29.121094 55.773438 28.441406 C 56.164062 27.761719 56.164062 26.949219 55.773438 26.265625 L 53.195312 21.804688 L 54.078125 22.015625 C 54.582031 22.132812 55.085938 21.820312 55.207031 21.316406 C 55.324219 20.8125 55.011719 20.308594 54.507812 20.1875 L 51.730469 19.53125 C 51.230469 19.414062 50.886719 19.652344 50.875 19.65625 C 50.625 19.804688 50.425781 20.039062 50.335938 20.335938 L 49.515625 23.070312 C 49.367188 23.566406 49.648438 24.089844 50.144531 24.238281 C 50.234375 24.265625 50.324219 24.277344 50.414062 24.277344 C 50.816406 24.277344 51.191406 24.015625 51.3125 23.609375 L 51.570312 22.742188 L 54.148438 27.203125 C 54.222656 27.335938 54.179688 27.449219 54.148438 27.503906 C 54.117188 27.558594 54.039062 27.652344 53.890625 27.652344 Z M 53.890625 27.652344 "/>
<path style=" stroke:none;fill-rule:nonzero;fill:rgb(8.627451%,40.784314%,67.45098%);fill-opacity:1;" d="M 63.0625 8.371094 C 63.582031 8.371094 64 7.953125 64 7.433594 L 64 3.992188 C 64 2.785156 63.019531 1.804688 61.8125 1.804688 L 31.320312 1.804688 C 30.113281 1.804688 29.132812 2.785156 29.132812 3.992188 L 29.132812 34.058594 C 29.132812 35.261719 30.113281 36.246094 31.320312 36.246094 L 61.8125 36.246094 C 63.019531 36.246094 64 35.261719 64 34.054688 L 64 11.808594 C 64 11.292969 63.582031 10.871094 63.0625 10.871094 C 62.542969 10.871094 62.125 11.292969 62.125 11.808594 L 62.125 34.054688 C 62.125 34.230469 61.984375 34.371094 61.8125 34.371094 L 31.320312 34.371094 C 31.148438 34.371094 31.007812 34.230469 31.007812 34.058594 L 31.007812 3.992188 C 31.007812 3.820312 31.148438 3.679688 31.320312 3.679688 L 42 3.679688 L 42 8.351562 C 42 8.945312 42.328125 9.480469 42.859375 9.746094 C 43.390625 10.015625 44.015625 9.960938 44.492188 9.605469 L 46.566406 8.0625 L 48.640625 9.605469 C 49.109375 9.953125 49.734375 10.019531 50.273438 9.746094 C 50.804688 9.480469 51.132812 8.945312 51.132812 8.351562 L 51.132812 3.679688 L 61.8125 3.679688 C 61.984375 3.679688 62.125 3.820312 62.125 3.992188 L 62.125 7.433594 C 62.125 7.953125 62.542969 8.371094 63.0625 8.371094 Z M 49.257812 7.730469 L 47.5 6.421875 C 46.941406 6.007812 46.191406 6.007812 45.632812 6.421875 L 43.875 7.730469 L 43.875 3.679688 L 49.257812 3.679688 Z M 50.578125 38.933594 C 50.261719 38.519531 49.78125 38.285156 49.265625 38.285156 C 48.746094 38.285156 48.265625 38.519531 47.953125 38.933594 L 42.886719 45.554688 C 42.503906 46.058594 42.4375 46.722656 42.71875 47.289062 C 43 47.859375 43.566406 48.210938 44.199219 48.210938 L 46.015625 48.210938 L 46.015625 52.585938 C 46.015625 52.824219 45.820312 53.015625 45.585938 53.015625 L 40 53.015625 C 39.140625 53.015625 38.4375 53.714844 38.4375 54.578125 L 38.4375 57.953125 C 38.4375 58.816406 39.140625 59.515625 40 59.515625 L 45.585938 59.515625 C 49.40625 59.515625 52.515625 56.40625 52.515625 52.585938 L 52.515625 48.210938 L 54.328125 48.210938 C 54.960938 48.210938 55.53125 47.859375 55.808594 47.289062 C 56.089844 46.722656 56.027344 46.058594 55.640625 45.554688 Z M 52.203125 46.335938 C 51.339844 46.335938 50.640625 47.035156 50.640625 47.898438 L 50.640625 52.585938 C 50.640625 55.375 48.371094 57.640625 45.585938 57.640625 L 40.3125 57.640625 L 40.3125 54.890625 L 45.585938 54.890625 C 46.855469 54.890625 47.890625 53.855469 47.890625 52.585938 L 47.890625 47.898438 C 47.890625 47.035156 47.1875 46.335938 46.328125 46.335938 L 44.652344 46.335938 L 49.265625 40.304688 L 53.878906 46.335938 Z M 7.355469 35.679688 C 7.660156 36.085938 8.132812 36.308594 8.617188 36.308594 C 8.898438 36.308594 9.183594 36.230469 9.4375 36.070312 L 15.308594 32.398438 L 21.175781 36.070312 C 21.863281 36.5 22.777344 36.328125 23.257812 35.679688 L 24.5 34.007812 C 24.761719 33.65625 24.863281 33.210938 24.78125 32.785156 C 24.703125 32.359375 24.445312 31.980469 24.074219 31.75 L 16.800781 27.195312 C 15.894531 26.628906 14.722656 26.628906 13.816406 27.195312 L 6.539062 31.75 C 6.171875 31.980469 5.914062 32.359375 5.832031 32.785156 C 5.753906 33.210938 5.855469 33.65625 6.113281 34.007812 Z M 14.808594 28.785156 C 15.113281 28.597656 15.503906 28.597656 15.804688 28.785156 L 22.792969 33.160156 L 21.925781 34.328125 L 16.136719 30.707031 C 15.886719 30.546875 15.597656 30.46875 15.308594 30.46875 C 15.019531 30.46875 14.730469 30.546875 14.480469 30.707031 L 8.6875 34.328125 L 7.820312 33.160156 Z M 14.808594 28.785156 "/>
<path style=" stroke:none;fill-rule:nonzero;fill:rgb(8.627451%,40.784314%,67.45098%);fill-opacity:1;" d="M 7.355469 26.628906 C 7.660156 27.039062 8.132812 27.257812 8.617188 27.257812 C 8.898438 27.257812 9.183594 27.179688 9.4375 27.023438 L 15.308594 23.347656 L 21.175781 27.023438 C 21.863281 27.453125 22.777344 27.277344 23.257812 26.628906 L 24.5 24.957031 C 24.761719 24.609375 24.863281 24.164062 24.78125 23.734375 C 24.703125 23.308594 24.445312 22.929688 24.074219 22.699219 L 16.800781 18.148438 C 15.894531 17.578125 14.722656 17.578125 13.816406 18.148438 L 6.539062 22.699219 C 6.171875 22.929688 5.914062 23.308594 5.832031 23.734375 C 5.753906 24.164062 5.855469 24.609375 6.113281 24.957031 Z M 14.808594 19.738281 C 15.113281 19.546875 15.503906 19.546875 15.804688 19.738281 L 22.792969 24.109375 L 21.925781 25.28125 L 16.136719 21.65625 C 15.632812 21.339844 14.980469 21.339844 14.480469 21.65625 L 8.6875 25.28125 L 7.820312 24.109375 Z M 14.808594 19.738281 "/>
<path style=" stroke:none;fill-rule:nonzero;fill:rgb(8.627451%,40.784314%,67.45098%);fill-opacity:1;" d="M 7.355469 17.578125 C 7.660156 17.988281 8.132812 18.207031 8.617188 18.207031 C 8.898438 18.207031 9.183594 18.132812 9.4375 17.972656 L 15.308594 14.300781 L 21.175781 17.972656 C 21.863281 18.402344 22.777344 18.230469 23.257812 17.578125 L 24.5 15.90625 C 24.761719 15.558594 24.863281 15.113281 24.78125 14.6875 C 24.703125 14.257812 24.445312 13.882812 24.074219 13.652344 L 16.800781 9.097656 C 15.894531 8.53125 14.722656 8.53125 13.816406 9.097656 L 6.539062 13.652344 C 6.171875 13.882812 5.914062 14.257812 5.832031 14.6875 C 5.753906 15.113281 5.855469 15.558594 6.113281 15.90625 Z M 14.808594 10.6875 C 15.113281 10.496094 15.503906 10.5 15.804688 10.6875 L 22.792969 15.0625 L 21.925781 16.230469 L 16.136719 12.605469 C 15.882812 12.449219 15.597656 12.371094 15.308594 12.371094 C 15.019531 12.371094 14.730469 12.449219 14.480469 12.605469 L 8.6875 16.230469 L 7.820312 15.0625 Z M 14.808594 10.6875 "/>
</g>
</svg>
