<?xml version="1.0" encoding="utf-8"?>
<!-- Generator: Adobe Illustrator 21.0.0, SVG Export Plug-In . SVG Version: 6.00 Build 0)  -->
<svg version="1.1" id="_01-Responsive" xmlns="http://www.w3.org/2000/svg" xmlns:xlink="http://www.w3.org/1999/xlink" x="0px"
	 y="0px" viewBox="0 0 64 64" style="enable-background:new 0 0 64 64;" xml:space="preserve">
<style type="text/css">
	.st0{fill:url(#SVGID_1_);}
	.st1{fill:url(#SVGID_2_);}
	.st2{fill:url(#SVGID_3_);}
	.st3{fill:url(#SVGID_4_);}
	.st4{fill:url(#SVGID_5_);}
	.st5{fill:url(#SVGID_6_);}
	.st6{fill:url(#SVGID_7_);}
	.st7{fill:url(#SVGID_8_);}
	.st8{fill:url(#SVGID_9_);}
	.st9{fill:url(#SVGID_10_);}
	.st10{fill:url(#SVGID_11_);}
	.st11{fill:url(#SVGID_12_);}
	.st12{fill:url(#SVGID_13_);}
	.st13{fill:url(#SVGID_14_);}
	.st14{fill:url(#SVGID_15_);}
</style>
<g>
	<linearGradient id="SVGID_1_" gradientUnits="userSpaceOnUse" x1="0" y1="30" x2="28" y2="30">
		<stop  offset="0" style="stop-color:#008DD2"/>
		<stop  offset="1" style="stop-color:#2E4183"/>
	</linearGradient>
	<path class="st0" d="M2,5c0-1.7,1.3-3,3-3h2V0H5C2.2,0,0,2.2,0,5v42c0,2.8,2.2,5,5,5h14.7l-0.5,2.1C17.9,54.5,17,55.6,17,57v2
		c0,0.6,0.4,1,1,1h10v-2h-9v-1c0-0.6,0.4-1,1-1h8v-2h-6.7l0.5-2H28v-2H5c-1.7,0-3-1.3-3-3v-3h26v-2H2V5z"/>
	<linearGradient id="SVGID_2_" gradientUnits="userSpaceOnUse" x1="9" y1="1" x2="11.001" y2="1">
		<stop  offset="0" style="stop-color:#008DD2"/>
		<stop  offset="1" style="stop-color:#2E4183"/>
	</linearGradient>
	<rect x="9" class="st1" width="2" height="2"/>
	<linearGradient id="SVGID_3_" gradientUnits="userSpaceOnUse" x1="13" y1="32" x2="64" y2="32">
		<stop  offset="0" style="stop-color:#008DD2"/>
		<stop  offset="1" style="stop-color:#2E4183"/>
	</linearGradient>
	<path class="st2" d="M59,0H13v2h46c1.7,0,3,1.3,3,3v42c0,1.3-0.8,2.4-2,2.8V19c0-2.8-2.2-5-5-5H35c-2.8,0-5,2.2-5,5v40
		c0,2.8,2.2,5,5,5h20c2.8,0,5-2.2,5-5v-7.1c2.3-0.5,4-2.5,4-4.9V5C64,2.2,61.8,0,59,0z M35,16h20c1.7,0,3,1.3,3,3h-6
		c-0.6,0-1,0.4-1,1c0,0-0.1,2-1,2H40c-0.9,0-1-2-1-2c0-0.6-0.4-1-1-1h-6C32,17.3,33.3,16,35,16z M58,21v35H32V21h5.1
		c0.2,1.4,1,3,2.9,3h10c1.9,0,2.7-1.6,2.9-3H58z M55,62H35c-1.7,0-3-1.3-3-3v-1h26v1C58,60.7,56.7,62,55,62z"/>
	<linearGradient id="SVGID_4_" gradientUnits="userSpaceOnUse" x1="4" y1="47" x2="6" y2="47">
		<stop  offset="0" style="stop-color:#008DD2"/>
		<stop  offset="1" style="stop-color:#2E4183"/>
	</linearGradient>
	<rect x="4" y="46" class="st3" width="2" height="2"/>
	<linearGradient id="SVGID_5_" gradientUnits="userSpaceOnUse" x1="8" y1="47" x2="14" y2="47">
		<stop  offset="0" style="stop-color:#008DD2"/>
		<stop  offset="1" style="stop-color:#2E4183"/>
	</linearGradient>
	<rect x="8" y="46" class="st4" width="6" height="2"/>
	<linearGradient id="SVGID_6_" gradientUnits="userSpaceOnUse" x1="41" y1="19" x2="49" y2="19">
		<stop  offset="0" style="stop-color:#008DD2"/>
		<stop  offset="1" style="stop-color:#2E4183"/>
	</linearGradient>
	<rect x="41" y="18" class="st5" width="8" height="2"/>
	<linearGradient id="SVGID_7_" gradientUnits="userSpaceOnUse" x1="41" y1="60" x2="49" y2="60">
		<stop  offset="0" style="stop-color:#008DD2"/>
		<stop  offset="1" style="stop-color:#2E4183"/>
	</linearGradient>
	<rect x="41" y="59" class="st6" width="8" height="2"/>
	<linearGradient id="SVGID_8_" gradientUnits="userSpaceOnUse" x1="4" y1="16" x2="28" y2="16">
		<stop  offset="0" style="stop-color:#008DD2"/>
		<stop  offset="1" style="stop-color:#2E4183"/>
	</linearGradient>
	<path class="st7" d="M6.1,10.3l1,1c-0.3,0.5-0.5,1.1-0.7,1.6H5c-0.6,0-1,0.4-1,1v4c0,0.6,0.4,1,1,1h1.5c0.2,0.6,0.4,1.1,0.7,1.6
		l-1,1c-0.4,0.4-0.4,1,0,1.4l2.8,2.8c0.4,0.4,1,0.4,1.4,0l1-1c0.5,0.3,1.1,0.5,1.6,0.7V27c0,0.6,0.4,1,1,1h4c0.6,0,1-0.4,1-1v-1.5
		c0.6-0.2,1.1-0.4,1.6-0.7l1,1c0.4,0.4,1,0.4,1.4,0l2.8-2.8c0.4-0.4,0.4-1,0-1.4l-1-1c0.3-0.5,0.5-1.1,0.7-1.6H27c0.6,0,1-0.4,1-1
		v-4c0-0.6-0.4-1-1-1h-1.5c-0.2-0.6-0.4-1.1-0.7-1.6l1-1c0.4-0.4,0.4-1,0-1.4l-2.8-2.8c-0.4-0.4-1-0.4-1.4,0l-1,1
		c-0.5-0.3-1.1-0.5-1.6-0.7V5c0-0.6-0.4-1-1-1h-4c-0.6,0-1,0.4-1,1v1.5c-0.6,0.2-1.1,0.4-1.6,0.7l-1-1c-0.4-0.4-1-0.4-1.4,0L6.1,8.9
		C5.7,9.3,5.7,10,6.1,10.3z M8.2,14.2c0.2-0.9,0.5-1.7,1-2.5c0.2-0.4,0.2-0.9-0.1-1.2L8.2,9.6l1.4-1.4l0.9,0.9
		c0.3,0.3,0.8,0.4,1.2,0.1c0.8-0.5,1.6-0.8,2.5-1c0.5-0.1,0.8-0.5,0.8-1V6h2v1.2c0,0.5,0.3,0.9,0.8,1c0.9,0.2,1.7,0.5,2.5,1
		c0.4,0.2,0.9,0.2,1.2-0.1l0.9-0.9l1.4,1.4l-0.9,0.9c-0.3,0.3-0.4,0.8-0.1,1.2c0.5,0.8,0.8,1.6,1,2.5c0.1,0.5,0.5,0.8,1,0.8H26v2
		h-1.2c-0.5,0-0.9,0.3-1,0.8c-0.2,0.9-0.5,1.7-1,2.5c-0.2,0.4-0.2,0.9,0.1,1.2l0.9,0.9l-1.4,1.4l-0.9-0.9c-0.3-0.3-0.8-0.4-1.2-0.1
		c-0.8,0.5-1.6,0.8-2.5,1c-0.5,0.1-0.8,0.5-0.8,1V26h-2v-1.2c0-0.5-0.3-0.9-0.8-1c-0.9-0.2-1.7-0.5-2.5-1c-0.4-0.2-0.9-0.2-1.2,0.1
		l-0.9,0.9l-1.4-1.4l0.9-0.9c0.3-0.3,0.4-0.8,0.1-1.2c-0.5-0.8-0.8-1.6-1-2.5c-0.1-0.5-0.5-0.8-1-0.8H6v-2h1.2
		C7.7,15,8.1,14.7,8.2,14.2z"/>
	<linearGradient id="SVGID_9_" gradientUnits="userSpaceOnUse" x1="11" y1="16" x2="21" y2="16">
		<stop  offset="0" style="stop-color:#008DD2"/>
		<stop  offset="1" style="stop-color:#2E4183"/>
	</linearGradient>
	<path class="st8" d="M16,21c2.8,0,5-2.2,5-5c0-2.8-2.2-5-5-5s-5,2.2-5,5S13.2,21,16,21z M16,13c1.7,0,3,1.3,3,3s-1.3,3-3,3
		s-3-1.3-3-3S14.3,13,16,13z"/>
	<linearGradient id="SVGID_10_" gradientUnits="userSpaceOnUse" x1="15" y1="34" x2="29" y2="34">
		<stop  offset="0" style="stop-color:#008DD2"/>
		<stop  offset="1" style="stop-color:#2E4183"/>
	</linearGradient>
	<path class="st9" d="M24,28v1.5c-0.6,0.2-1.1,0.4-1.6,0.7l-1-1c-0.4-0.4-1-0.4-1.4,0l-2.8,2.8c-0.4,0.4-0.4,1,0,1.4l1,1
		c-0.3,0.5-0.5,1.1-0.7,1.6H16c-0.6,0-1,0.4-1,1v4h2v-3h1.2c0.5,0,0.9-0.3,1-0.8c0.2-0.9,0.5-1.7,1-2.5c0.2-0.4,0.2-0.9-0.1-1.2
		l-0.9-0.9l1.4-1.4l0.9,0.9c0.3,0.3,0.8,0.4,1.2,0.1c0.8-0.5,1.6-0.8,2.5-1c0.5-0.1,0.8-0.5,0.8-1V29h3v-2h-4C24.4,27,24,27.4,24,28
		z"/>
	<linearGradient id="SVGID_11_" gradientUnits="userSpaceOnUse" x1="22" y1="36.5" x2="27" y2="36.5">
		<stop  offset="0" style="stop-color:#008DD2"/>
		<stop  offset="1" style="stop-color:#2E4183"/>
	</linearGradient>
	<path class="st10" d="M27,36v-2c-2.8,0-5,2.2-5,5h2C24,37.3,25.3,36,27,36z"/>
	<linearGradient id="SVGID_12_" gradientUnits="userSpaceOnUse" x1="34" y1="39" x2="56" y2="39">
		<stop  offset="0" style="stop-color:#008DD2"/>
		<stop  offset="1" style="stop-color:#2E4183"/>
	</linearGradient>
	<path class="st11" d="M34,39c0,6.1,4.9,11,11,11c6.1,0,11-4.9,11-11c0-6.1-4.9-11-11-11S34,32.9,34,39z M54,39c0,5-4,9-9,9
		s-9-4-9-9c0-5,4-9,9-9C50,30,54,34,54,39z"/>
	<linearGradient id="SVGID_13_" gradientUnits="userSpaceOnUse" x1="37.0002" y1="39.0001" x2="52.9998" y2="39.0001">
		<stop  offset="0" style="stop-color:#008DD2"/>
		<stop  offset="1" style="stop-color:#2E4183"/>
	</linearGradient>
	<path class="st12" d="M41.7,36.3c-0.4-0.4-1-0.4-1.4,0l-3,3c-0.4,0.4-0.4,1,0,1.4l5,5c0.2,0.2,0.4,0.3,0.7,0.3
		c0.3,0,0.5-0.1,0.7-0.3l9-9c0.4-0.4,0.4-1,0-1.4l-3-3c-0.4-0.4-1-0.4-1.4,0L43,37.6L41.7,36.3z M49,34.4l1.6,1.6L43,43.6L39.4,40
		l1.6-1.6l1.3,1.3c0.4,0.4,1,0.4,1.4,0L49,34.4z"/>
	<linearGradient id="SVGID_14_" gradientUnits="userSpaceOnUse" x1="57" y1="5" x2="59" y2="5">
		<stop  offset="0" style="stop-color:#008DD2"/>
		<stop  offset="1" style="stop-color:#2E4183"/>
	</linearGradient>
	<rect x="57" y="4" class="st13" width="2" height="2"/>
	<linearGradient id="SVGID_15_" gradientUnits="userSpaceOnUse" x1="42" y1="5" x2="55" y2="5">
		<stop  offset="0" style="stop-color:#008DD2"/>
		<stop  offset="1" style="stop-color:#2E4183"/>
	</linearGradient>
	<rect x="42" y="4" class="st14" width="13" height="2"/>
</g>
</svg>
