<?xml version="1.0" encoding="utf-8"?>
<!-- Generator: Adobe Illustrator 21.0.0, SVG Export Plug-In . SVG Version: 6.00 Build 0)  -->
<svg version="1.1" id="Layer_1" xmlns="http://www.w3.org/2000/svg" xmlns:xlink="http://www.w3.org/1999/xlink" x="0px" y="0px"
	 viewBox="0 0 64 64" style="enable-background:new 0 0 64 64;" xml:space="preserve">
<g id="Layer_30">
	<path d="M60.9,51.6h-43c-1.3,0-2.4-1.1-2.4-2.4c0-1.1,0.8-2.1,1.9-2.3l1.4-0.3c3.1-0.7,5.4-3.2,5.9-6.3h30.6c2.6,0,4.8-1.9,5.1-4.5
		L64,8.4c0.1-0.6-0.3-1.1-0.9-1.2c0,0-0.1,0-0.1,0H16.2l-1-3.4c-0.6-2.2-2.7-3.8-5-3.8H3.1C1.4,0,0,1.4,0,3.1s1.4,3.1,3.1,3.1h5.7
		c0.5,0,0.9,0.3,1,0.8L18.5,38c0.3,1.2-0.4,2.4-1.6,2.8c0,0-0.1,0-0.1,0L15.9,41c-4.6,1-7.4,5.6-6.4,10.1c0.9,3.9,4.3,6.6,8.3,6.6
		h0.9c-0.6,2.8,1.2,5.5,4,6.1c2.8,0.6,5.5-1.2,6.1-4c0.1-0.3,0.1-0.7,0.1-1.1c0-0.3,0-0.7-0.1-1h18.8c-0.6,2.8,1.2,5.5,4,6.1
		c2.8,0.6,5.5-1.2,6.1-4c0.2-0.7,0.2-1.5,0-2.2h3.2c1.7,0,3.1-1.4,3.1-3.1C64,53,62.6,51.6,60.9,51.6z M42.3,23.7v-6.2h5.3L47,23.7
		H42.3z M46.8,25.8L46.1,32h-3.8v-6.2H46.8z M40.3,23.7h-6.2v-6.2h6.2V23.7z M40.3,25.8V32h-6.2v-6.2H40.3z M32,32h-4.1l-0.8-6.2H32
		V32z M32,34v4.1h-3.2L28.2,34H32z M34.1,34h6.2v4.1h-6.2V34z M42.3,34h3.6l-0.4,4.1h-3.2V34z M48,34h4.3l-0.6,4.1h-4.2L48,34z
		 M48.2,32l0.6-6.2h4.6L52.6,32H48.2z M55.5,25.8h4.1L58.8,32h-4.1L55.5,25.8z M55.7,23.7l0.8-6.2h4.1l-0.8,6.2H55.7z M53.7,23.7H49
		l0.6-6.2h4.8L53.7,23.7z M49.9,15.5l0.6-6.2h5.1l-0.8,6.2H49.9z M47.8,15.5h-5.5V9.3h6.1L47.8,15.5z M40.3,15.5h-6.2V9.3h6.2V15.5z
		 M32,15.5h-6.3l-0.8-6.2H32V15.5z M32,17.5v6.2h-5.2L26,17.5H32z M24.8,23.7h-4l-1.7-6.2h4.9L24.8,23.7z M25,25.8l0.8,6.2h-2.8
		l-1.7-6.2H25z M26.1,34l0.6,4.1h-2c0-0.4-0.1-0.8-0.2-1.1l-0.8-3H26.1z M55.2,38.2h-1.4l0.6-4.1h4.1l-0.2,1.4
		C58.1,37,56.8,38.2,55.2,38.2z M61,15.5h-4.1l0.8-6.2h4.1L61,15.5z M22.8,9.3l0.8,6.2h-5.2l-1.7-6.2H22.8z M26.8,58.8
		c0,1.7-1.3,3.1-3,3.2c-1.7,0-3.1-1.3-3.2-3c0-0.4,0.1-0.8,0.2-1.2h5.8C26.8,58.1,26.8,58.4,26.8,58.8z M55.7,58.8
		c0,1.7-1.3,3.1-3,3.2c-1.7,0-3.1-1.3-3.2-3c0-0.4,0.1-0.8,0.2-1.2h5.8C55.7,58.1,55.7,58.4,55.7,58.8z M60.9,55.7H17.8
		c-3.5,0-6.4-2.9-6.4-6.4c0-3,2.1-5.6,5-6.3l0.9-0.2c2.3-0.5,3.8-2.8,3.3-5.2c0-0.1,0-0.2-0.1-0.2L11.7,6.4c-0.4-1.3-1.6-2.3-3-2.3
		H3.1c-0.6,0-1-0.5-1-1s0.5-1,1-1h7.2c1.4,0,2.6,0.9,3,2.3l9.2,33.2c0.8,3-0.9,6-3.9,6.9c-0.1,0-0.2,0-0.3,0.1l-1.4,0.3
		c-2.4,0.5-3.9,2.9-3.4,5.3c0.5,2.1,2.3,3.5,4.4,3.5h43c0.6,0,1,0.5,1,1C61.9,55.2,61.5,55.7,60.9,55.7z"/>
</g>
</svg>
