<?xml version="1.0" encoding="utf-8"?>
<!-- Generator: Adobe Illustrator 21.0.0, SVG Export Plug-In . SVG Version: 6.00 Build 0)  -->
<svg version="1.1" id="Capa_1" xmlns="http://www.w3.org/2000/svg" xmlns:xlink="http://www.w3.org/1999/xlink" x="0px" y="0px"
	 viewBox="0 0 64 64" style="enable-background:new 0 0 64 64;" xml:space="preserve">
<style type="text/css">
	.st0{fill:url(#SVGID_1_);}
	.st1{fill:url(#SVGID_2_);}
	.st2{fill:url(#SVGID_3_);}
	.st3{fill:url(#SVGID_4_);}
	.st4{fill:url(#SVGID_5_);}
	.st5{fill:url(#SVGID_6_);}
</style>
<g>
	<linearGradient id="SVGID_1_" gradientUnits="userSpaceOnUse" x1="1.5639" y1="62.4359" x2="62.4359" y2="1.5639">
		<stop  offset="0" style="stop-color:#008DD2"/>
		<stop  offset="1" style="stop-color:#2E4183"/>
	</linearGradient>
	<path class="st0" d="M58.7,0H5.3C2.4,0,0,2.4,0,5.3v53.3C0,61.6,2.4,64,5.3,64h53.3c2.9,0,5.3-2.4,5.3-5.3V5.3
		C64,2.4,61.6,0,58.7,0z M61.9,58.7L61.9,58.7c0,1.8-1.4,3.2-3.2,3.2H5.3c-1.8,0-3.2-1.4-3.2-3.2v-48h59.7V58.7z M61.9,8.5L61.9,8.5
		H2.1V5.3c0-1.8,1.4-3.2,3.2-3.2h53.3c1.8,0,3.2,1.4,3.2,3.2V8.5z"/>
	<linearGradient id="SVGID_2_" gradientUnits="userSpaceOnUse" x1="5.9124" y1="6.3542" x2="7.9542" y2="4.3124">
		<stop  offset="0" style="stop-color:#008DD2"/>
		<stop  offset="1" style="stop-color:#2E4183"/>
	</linearGradient>
	<path class="st1" d="M7.5,4.3H6.4c-0.6,0-1.1,0.5-1.1,1.1c0,0.6,0.5,1.1,1.1,1.1h1.1c0.6,0,1.1-0.5,1.1-1.1
		C8.5,4.7,8.1,4.3,7.5,4.3z"/>
	<linearGradient id="SVGID_3_" gradientUnits="userSpaceOnUse" x1="10.976" y1="6.0906" x2="12.4906" y2="4.576">
		<stop  offset="0" style="stop-color:#008DD2"/>
		<stop  offset="1" style="stop-color:#2E4183"/>
	</linearGradient>
	<path class="st2" d="M12.1,4.4c-0.3-0.1-0.6-0.1-0.8,0c-0.1,0.1-0.2,0.1-0.4,0.2c-0.4,0.4-0.4,1.1,0,1.5c0.1,0.1,0.2,0.2,0.4,0.2
		c0.3,0.1,0.6,0.1,0.8,0c0.1-0.1,0.2-0.1,0.4-0.2c0.4-0.4,0.4-1.1,0-1.5C12.4,4.5,12.3,4.4,12.1,4.4z"/>
	<linearGradient id="SVGID_4_" gradientUnits="userSpaceOnUse" x1="15.2426" y1="6.0906" x2="16.7573" y2="4.5759">
		<stop  offset="0" style="stop-color:#008DD2"/>
		<stop  offset="1" style="stop-color:#2E4183"/>
	</linearGradient>
	<path class="st3" d="M16.4,4.3c-0.4-0.2-0.9-0.1-1.2,0.2c-0.1,0.1-0.2,0.2-0.2,0.4c-0.1,0.3-0.1,0.6,0,0.8c0.1,0.1,0.1,0.2,0.2,0.4
		c0.4,0.4,1.1,0.4,1.5,0C16.9,6,16.9,5.9,17,5.7c0.1-0.1,0.1-0.3,0.1-0.4C17.1,4.9,16.8,4.5,16.4,4.3z"/>
	<linearGradient id="SVGID_5_" gradientUnits="userSpaceOnUse" x1="29.6457" y1="15.1541" x2="49.2875" y2="-4.4876">
		<stop  offset="0" style="stop-color:#008DD2"/>
		<stop  offset="1" style="stop-color:#2E4183"/>
	</linearGradient>
	<path class="st4" d="M57.6,4.3H21.3c-0.6,0-1.1,0.5-1.1,1.1c0,0.6,0.5,1.1,1.1,1.1h36.3c0.6,0,1.1-0.5,1.1-1.1
		C58.7,4.7,58.2,4.3,57.6,4.3z"/>
	<linearGradient id="SVGID_6_" gradientUnits="userSpaceOnUse" x1="16.9269" y1="51.345" x2="47.0805" y2="21.1914">
		<stop  offset="0" style="stop-color:#008DD2"/>
		<stop  offset="1" style="stop-color:#2E4183"/>
	</linearGradient>
	<path class="st5" d="M16.4,50.8c0,0,0.1,0.1,0.2,0.1c4,4.3,9.6,6.7,15.5,6.7c5.9,0,11.5-2.4,15.5-6.7c0.1,0,0.1-0.1,0.1-0.1
		c0,0,0.1-0.1,0.1-0.2c7.5-8.1,7.5-20.6,0-28.7l0,0c0-0.1-0.1-0.1-0.1-0.2c0,0-0.1-0.1-0.2-0.1c-4-4.3-9.6-6.7-15.5-6.7
		s-11.5,2.4-15.5,6.7c-0.1,0-0.1,0.1-0.2,0.1c0,0-0.1,0.1-0.1,0.2c-7.5,8.1-7.5,20.6,0,28.7C16.3,50.7,16.3,50.7,16.4,50.8z
		 M37.8,54.6c1.6-2,2.9-4.3,3.6-6.7v0c1.3,0.6,2.6,1.4,3.8,2.3C43.1,52.2,40.6,53.7,37.8,54.6z M46.7,48.6c-1.4-1.1-3-2.1-4.6-2.8
		c0.7-2.8,1.1-5.6,1.1-8.4h8C50.9,41.5,49.4,45.4,46.7,48.6z M51.1,35.2h-8c-0.1-2.8-0.4-5.7-1.1-8.4c1.7-0.7,3.2-1.7,4.6-2.8
		C49.4,27.1,50.9,31.1,51.1,35.2z M45.2,22.4c-1.2,0.9-2.4,1.7-3.8,2.3c-0.8-2.5-2-4.7-3.6-6.7C40.6,18.9,43.1,20.4,45.2,22.4z
		 M33.1,17.2c2.6,0.7,4.9,3.8,6.4,8.3c-2.1,0.7-4.2,1.1-6.4,1.2V17.2z M33.1,28.8c2.4-0.1,4.7-0.5,7-1.3c0.6,2.5,0.9,5.1,1,7.6h-8
		V28.8z M33.1,37.3h8c-0.1,2.6-0.4,5.1-1,7.6c-2.3-0.8-4.6-1.2-7-1.3V37.3z M33.1,45.8c2.2,0.1,4.3,0.5,6.4,1.2
		c-1.5,4.5-3.8,7.6-6.4,8.3V45.8z M18.8,50.1c1.2-0.9,2.4-1.7,3.8-2.3v0c0.8,2.5,2,4.7,3.6,6.7C23.4,53.7,20.9,52.2,18.8,50.1z
		 M30.9,55.3c-2.6-0.7-4.9-3.8-6.4-8.3c2.1-0.7,4.2-1.1,6.4-1.2V55.3z M30.9,43.7c-2.4,0.1-4.7,0.5-7,1.3c-0.6-2.5-0.9-5.1-1-7.6h8
		V43.7z M30.9,35.2h-8c0.1-2.6,0.4-5.1,1-7.6c2.3,0.8,4.6,1.2,7,1.3V35.2z M30.9,17.2v9.5c-2.2-0.1-4.3-0.5-6.4-1.2
		C26,21,28.3,17.9,30.9,17.2z M26.2,18c-1.6,2-2.9,4.3-3.6,6.7v0c-1.3-0.6-2.6-1.4-3.8-2.3C20.9,20.4,23.4,18.9,26.2,18z M17.3,23.9
		c1.4,1.1,3,2.1,4.6,2.8c-0.7,2.8-1.1,5.6-1.1,8.4h-8C13.1,31.1,14.6,27.1,17.3,23.9z M20.8,37.3L20.8,37.3c0.1,2.8,0.4,5.7,1.1,8.4
		c-1.7,0.7-3.2,1.7-4.6,2.8c-2.7-3.2-4.2-7.1-4.5-11.3H20.8z"/>
</g>
</svg>
