<?xml version="1.0" encoding="utf-8"?>
<!-- Generator: Adobe Illustrator 22.0.1, SVG Export Plug-In . SVG Version: 6.00 Build 0)  -->
<svg version="1.1" id="Layer_1" xmlns="http://www.w3.org/2000/svg" xmlns:xlink="http://www.w3.org/1999/xlink" x="0px" y="0px"
	 viewBox="0 0 64 64" style="enable-background:new 0 0 64 64;" xml:space="preserve">
<style type="text/css">
	.st0{fill:#1668AC;}
</style>
<path class="st0" d="M59.7,11.7h-5.5V9c0-4.8-3.9-8.7-8.7-8.7c-4.2,0-7.7,2.9-8.5,6.9c-2-3.3-5.6-5.5-9.7-5.5c-2.9,0-5.6,1.1-7.7,3
	c-0.9-0.3-1.9-0.5-3-0.5c-4.4,0-8.1,3.3-8.7,7.6H5.2c-0.7,0-1.2,0.6-1.2,1.2v49.8c0,0.7,0.6,1.2,1.2,1.2h43.6h0h11
	c0.7,0,1.2-0.6,1.2-1.2V13C61,12.3,60.4,11.7,59.7,11.7z M58.5,59.7l-3-3V28.1c0-0.7-0.6-1.2-1.2-1.2S53,27.5,53,28.1v28.6l-3,3
	V14.2h8.4V59.7z M54.2,59l2.5,2.5h-4.9L54.2,59z M45.5,2.7c3.4,0,6.2,2.8,6.2,6.2v2.7H41.1l2.3-2.3c0.5-0.5,0.5-1.3,0-1.8
	c-0.5-0.5-1.3-0.5-1.8,0l-2.3,2.3V9C39.3,5.5,42.1,2.7,45.5,2.7z M27.3,4.1c4.4,0,8.1,3.3,8.7,7.6H25.3C25,9.4,23.7,7.3,21.9,6
	C23.5,4.8,25.3,4.1,27.3,4.1z M16.6,6.6c3.1,0,5.6,2.2,6.2,5.1H10.4C11,8.8,13.6,6.6,16.6,6.6z M6.4,14.2h3.5v8.6
	c0,0.7,0.6,1.2,1.2,1.2s1.2-0.6,1.2-1.2v-8.6h35.1v47.3H6.4V14.2z"/>
<path class="st0" d="M54.3,24.5c0.3,0,0.6-0.1,0.9-0.4c0.2-0.2,0.4-0.6,0.4-0.9s-0.1-0.6-0.4-0.9c-0.2-0.2-0.6-0.4-0.9-0.4
	c-0.3,0-0.6,0.1-0.9,0.4C53.1,22.6,53,23,53,23.3s0.1,0.6,0.4,0.9C53.6,24.4,53.9,24.5,54.3,24.5z"/>
<path class="st0" d="M33.2,30.6h-3.4c-0.7,0-1.2,0.6-1.2,1.2v12c0,0.7,0.6,1.2,1.2,1.2h3.4c3.3,0,5.9-2.7,5.9-5.9v-2.6
	C39.1,33.3,36.4,30.6,33.2,30.6z M36.6,39.2c0,1.9-1.5,3.4-3.4,3.4H31v-9.5h2.1c1.9,0,3.4,1.5,3.4,3.4V39.2z"/>
<path class="st0" d="M21.3,31.5c-0.2-0.5-0.6-0.8-1.2-0.8c-0.5,0-1,0.3-1.2,0.8l-4,12c-0.2,0.7,0.1,1.4,0.8,1.6
	c0.7,0.2,1.4-0.1,1.6-0.8l0.9-2.6h3.9l0.9,2.6c0.2,0.5,0.7,0.8,1.2,0.8c0.1,0,0.3,0,0.4-0.1c0.7-0.2,1-0.9,0.8-1.6L21.3,31.5z
	 M19,39.1l1.1-3.4l1.1,3.4H19z"/>
<path class="st0" d="M11.2,26.5c-0.3,0-0.6,0.1-0.9,0.4c-0.2,0.2-0.4,0.6-0.4,0.9s0.1,0.6,0.4,0.9c0.2,0.2,0.6,0.4,0.9,0.4
	s0.6-0.1,0.9-0.4c0.2-0.2,0.4-0.6,0.4-0.9s-0.1-0.6-0.4-0.9C11.8,26.6,11.5,26.5,11.2,26.5z"/>
</svg>
