<?xml version="1.0" encoding="utf-8"?>
<!-- Generator: Adobe Illustrator 21.0.0, SVG Export Plug-In . SVG Version: 6.00 Build 0)  -->
<svg version="1.1" id="Layer_3" xmlns="http://www.w3.org/2000/svg" xmlns:xlink="http://www.w3.org/1999/xlink" x="0px" y="0px"
	 viewBox="0 0 64 64" style="enable-background:new 0 0 64 64;" xml:space="preserve">
<style type="text/css">
	.st0{fill:url(#SVGID_1_);}
	.st1{fill:url(#SVGID_2_);}
	.st2{fill:url(#SVGID_3_);}
</style>
<g>
	<linearGradient id="SVGID_1_" gradientUnits="userSpaceOnUse" x1="7.2258" y1="9.2903" x2="15.4839" y2="9.2903">
		<stop  offset="0" style="stop-color:#008DD2"/>
		<stop  offset="1" style="stop-color:#2E4183"/>
	</linearGradient>
	<path class="st0" d="M15.5,10.3V8.3c0-2.3-1.9-4.1-4.1-4.1S7.2,6,7.2,8.3v2.1c0,2.3,1.9,4.1,4.1,4.1S15.5,12.6,15.5,10.3z
		 M13.4,10.3c0,1.1-0.9,2.1-2.1,2.1s-2.1-0.9-2.1-2.1V8.3c0-1.1,0.9-2.1,2.1-2.1s2.1,0.9,2.1,2.1V10.3z"/>
	<linearGradient id="SVGID_2_" gradientUnits="userSpaceOnUse" x1="48.5161" y1="9.2903" x2="56.7742" y2="9.2903">
		<stop  offset="0" style="stop-color:#008DD2"/>
		<stop  offset="1" style="stop-color:#2E4183"/>
	</linearGradient>
	<path class="st1" d="M56.8,10.3V8.3c0-2.3-1.9-4.1-4.1-4.1c-2.3,0-4.1,1.9-4.1,4.1v2.1c0,2.3,1.9,4.1,4.1,4.1
		C54.9,14.5,56.8,12.6,56.8,10.3z M54.7,10.3c0,1.1-0.9,2.1-2.1,2.1c-1.1,0-2.1-0.9-2.1-2.1V8.3c0-1.1,0.9-2.1,2.1-2.1
		c1.1,0,2.1,0.9,2.1,2.1V10.3z"/>
	<linearGradient id="SVGID_3_" gradientUnits="userSpaceOnUse" x1="0" y1="32" x2="64" y2="32">
		<stop  offset="0" style="stop-color:#008DD2"/>
		<stop  offset="1" style="stop-color:#2E4183"/>
	</linearGradient>
	<path class="st2" d="M52.6,41.3L52.6,41.3c-5.9,0-10.8,4.5-11.3,10.3H33v-7.3c6.3-0.5,11.4-5.9,11.4-12.3c0-0.3,0-0.7-0.1-1h5.4
		c0.4,1.2,1.6,2.1,2.9,2.1c1.7,0,3.1-1.4,3.1-3.1s-1.4-3.1-3.1-3.1c-1.3,0-2.5,0.9-2.9,2.1H44c-1.3-5-5.6-8.8-10.9-9.2v-7.3h8.3
		c0.5,5.8,5.4,10.3,11.3,10.3c6.3,0,11.4-5.1,11.4-11.4C64,5.1,58.9,0,52.6,0c-5.9,0-10.8,4.5-11.3,10.3H22.7
		C22.1,4.5,17.3,0,11.4,0C5.1,0,0,5.1,0,11.4c0,6.3,5.1,11.4,11.4,11.4c5.9,0,10.8-4.5,11.3-10.3H31v7.3
		c-6.3,0.5-11.4,5.9-11.4,12.3c0,0.3,0,0.7,0.1,1h-5.4c-0.4-1.2-1.6-2.1-2.9-2.1c-1.7,0-3.1,1.4-3.1,3.1c0,1.7,1.4,3.1,3.1,3.1
		c1.3,0,2.5-0.9,2.9-2.1H20c1.3,5,5.6,8.8,10.9,9.2v7.3h-8.3c-0.5-5.8-5.4-10.3-11.3-10.3C5.1,41.3,0,46.4,0,52.6
		C0,58.9,5.1,64,11.4,64c5.9,0,10.8-4.5,11.3-10.3h18.7C41.9,59.5,46.7,64,52.6,64C58.9,64,64,58.9,64,52.6
		C64,46.4,58.9,41.3,52.6,41.3z M52.6,28.9c0.6,0,1,0.5,1,1s-0.5,1-1,1c-0.6,0-1-0.5-1-1S52.1,28.9,52.6,28.9z M56.8,19.7
		c-1.2,0.6-2.6,1-4.1,1c-1.5,0-2.9-0.4-4.1-1v-2.1c0-0.6,0.5-1,1-1h6.2c0.6,0,1,0.5,1,1V19.7z M52.6,2.1c5.1,0,9.3,4.2,9.3,9.3
		c0,2.7-1.2,5.2-3.1,6.9v-0.7c0-1.7-1.4-3.1-3.1-3.1h-3.1h-3.1c-1.7,0-3.1,1.4-3.1,3.1v0.7c-1.9-1.7-3.1-4.2-3.1-6.9
		C43.4,6.2,47.5,2.1,52.6,2.1z M34.7,41.9c0.7-0.9,1.4-1.9,1.9-3c0.7,0.3,1.3,0.6,1.9,1.1C37.3,40.9,36.1,41.6,34.7,41.9z
		 M39.9,38.6c-0.8-0.6-1.7-1.1-2.6-1.5v0c0.4-1.3,0.7-2.6,0.8-4h4.1C42.1,35.1,41.2,37.1,39.9,38.6z M42.3,31l-4.1,0
		c-0.1-1.4-0.4-2.7-0.8-4c0.9-0.4,1.8-0.9,2.6-1.5C41.2,26.9,42.1,28.9,42.3,31z M38.4,23.9c-0.6,0.4-1.2,0.8-1.9,1.1
		c-0.5-1-1.1-2-1.9-3C36.1,22.4,37.3,23.1,38.4,23.9z M33,23.2c0.6,0.7,1.1,1.5,1.6,2.4c-0.5,0.1-1,0.1-1.6,0.2V23.2z M33,27.9
		c0.8,0,1.6-0.1,2.4-0.3c0.4,1.1,0.6,2.2,0.7,3.4h-3V27.9z M33,33h3c-0.1,1.2-0.3,2.3-0.7,3.4c-0.8-0.2-1.6-0.3-2.4-0.3V33z
		 M33,38.2c0.5,0,1,0.1,1.6,0.2c-0.4,0.8-0.9,1.6-1.6,2.4V38.2z M15.5,19.7c-1.2,0.6-2.6,1-4.1,1c-1.5,0-2.9-0.4-4.1-1v-2.1
		c0-0.6,0.5-1,1-1h6.2c0.6,0,1,0.5,1,1V19.7z M17.5,18.3v-0.7c0-1.7-1.4-3.1-3.1-3.1h-3.1H8.3c-1.7,0-3.1,1.4-3.1,3.1v0.7
		c-1.9-1.7-3.1-4.2-3.1-6.9c0-5.1,4.2-9.3,9.3-9.3s9.3,4.2,9.3,9.3C20.6,14.1,19.4,16.6,17.5,18.3z M11.4,35.1c-0.6,0-1-0.5-1-1
		c0-0.6,0.5-1,1-1c0.6,0,1,0.5,1,1C12.4,34.6,11.9,35.1,11.4,35.1z M15.5,61c-1.2,0.6-2.6,1-4.1,1c-1.5,0-2.9-0.4-4.1-1v-2.1
		c0-0.6,0.5-1,1-1h6.2c0.6,0,1,0.5,1,1V61z M9.3,51.6v-2.1c0-1.1,0.9-2.1,2.1-2.1s2.1,0.9,2.1,2.1v2.1c0,1.1-0.9,2.1-2.1,2.1
		S9.3,52.8,9.3,51.6z M17.5,59.5v-0.7c0-1.7-1.4-3.1-3.1-3.1h-3.1c2.3,0,4.1-1.9,4.1-4.1v-2.1c0-2.3-1.9-4.1-4.1-4.1
		s-4.1,1.9-4.1,4.1v2.1c0,2.3,1.9,4.1,4.1,4.1H8.3c-1.7,0-3.1,1.4-3.1,3.1v0.7c-1.9-1.7-3.1-4.2-3.1-6.9c0-5.1,4.2-9.3,9.3-9.3
		s9.3,4.2,9.3,9.3C20.6,55.4,19.4,57.8,17.5,59.5z M29.3,22.1c-0.7,0.9-1.4,1.9-1.9,3c-0.7-0.3-1.3-0.6-1.9-1.1
		C26.7,23.1,27.9,22.4,29.3,22.1z M24.1,25.4c0.8,0.6,1.7,1.1,2.6,1.5c-0.4,1.3-0.7,2.6-0.8,4h-4.1C21.9,28.9,22.8,26.9,24.1,25.4z
		 M21.7,33h4.1c0.1,1.4,0.4,2.7,0.8,4c-0.9,0.4-1.8,0.9-2.6,1.5C22.8,37.1,21.9,35.1,21.7,33z M25.6,40.1c0.6-0.4,1.2-0.8,1.9-1.1
		c0.5,1,1.1,2,1.9,3C27.9,41.6,26.7,40.9,25.6,40.1z M31,40.8c-0.6-0.7-1.1-1.5-1.6-2.4c0.5-0.1,1-0.1,1.6-0.2V40.8z M31,36.1
		c-0.8,0-1.6,0.1-2.4,0.3c-0.4-1.1-0.6-2.2-0.7-3.4h3V36.1z M31,31h-3c0.1-1.2,0.3-2.3,0.7-3.4c0.8,0.2,1.6,0.3,2.4,0.3V31z
		 M31,25.8c-0.5,0-1-0.1-1.6-0.2c0.4-0.8,0.9-1.6,1.6-2.4V25.8z M56.8,61c-1.2,0.6-2.6,1-4.1,1c-1.5,0-2.9-0.4-4.1-1v-2.1
		c0-0.6,0.5-1,1-1h6.2c0.6,0,1,0.5,1,1V61z M50.6,51.6v-2.1c0-1.1,0.9-2.1,2.1-2.1c1.1,0,2.1,0.9,2.1,2.1v2.1c0,1.1-0.9,2.1-2.1,2.1
		C51.5,53.7,50.6,52.8,50.6,51.6z M58.8,59.5v-0.7c0-1.7-1.4-3.1-3.1-3.1h-3.1c2.3,0,4.1-1.9,4.1-4.1v-2.1c0-2.3-1.9-4.1-4.1-4.1
		c-2.3,0-4.1,1.9-4.1,4.1v2.1c0,2.3,1.9,4.1,4.1,4.1h-3.1c-1.7,0-3.1,1.4-3.1,3.1v0.7c-1.9-1.7-3.1-4.2-3.1-6.9
		c0-5.1,4.2-9.3,9.3-9.3s9.3,4.2,9.3,9.3C61.9,55.4,60.7,57.8,58.8,59.5z"/>
</g>
</svg>
