<?xml version="1.0"?>
<svg xmlns="http://www.w3.org/2000/svg" height="512pt" viewBox="-26 0 512 512" width="512pt" fill="#2285b6">
  <path d="m422.183594 1.300781c-9.867188 0-18.804688 4.039063-25.257813 10.546875-4.871093-7.148437-13.078125-11.847656-22.359375-11.847656h-.003906c-9.863281 0-18.507812 5.308594-23.234375 13.21875-4.460937-3.238281-9.941406-5.148438-15.859375-5.148438-11.140625 0-20.726562 6.769532-24.867188 16.40625-4.132812-2.566406-9.011718-4.050781-14.226562-4.050781-12.453125 0-22.964844 8.457031-26.097656 19.925781-3.570313-1.851562-7.621094-2.898437-11.914063-2.898437-14.3125 0-25.960937 11.648437-25.960937 25.960937v7.839844c0 14.3125 11.648437 25.960938 25.960937 25.960938 11.386719 0 21.082031-7.367188 24.574219-17.578125 3.960938 2.273437 8.550781 3.578125 13.4375 3.578125 10.136719 0 18.988281-5.605469 23.617188-13.875 4.390624 3.070312 9.726562 4.875 15.476562 4.875 8.996094 0 16.976562-4.414063 21.898438-11.1875 4.675781 3.863281 10.671874 6.1875 17.195312 6.1875 4.90625 0 9.511719-1.3125 13.484375-3.605469 4.441406 15.417969 18.679687 26.730469 35.507813 26.730469 20.371093 0 36.941406-16.574219 36.941406-36.945313v-15.777343c.003906-21.128907-17.183594-38.316407-38.3125-38.316407zm-152.855469 69.953125c0 6.042969-4.917969 10.960938-10.960937 10.960938-6.046876 0-10.960938-4.917969-10.960938-10.960938v-7.839844c0-6.042968 4.914062-10.960937 10.960938-10.960937 6.042968 0 10.960937 4.917969 10.960937 10.960937zm39.09375-15.085937c0 6.640625-5.402344 12.046875-12.046875 12.046875s-12.046875-5.40625-12.046875-12.046875v-8.695313c0-6.644531 5.402344-12.046875 12.046875-12.046875s12.046875 5.402344 12.046875 12.046875zm39.097656-9c0 6.640625-5.40625 12.046875-12.050781 12.046875-6.640625 0-12.046875-5.40625-12.046875-12.046875v-12.050781c0-6.644532 5.40625-12.046876 12.046875-12.046876 6.644531 0 12.050781 5.402344 12.050781 12.046876zm27.042969 7.046875c-6.640625 0-12.046875-5.40625-12.046875-12.046875v-15.121094c0-6.644531 5.40625-12.046875 12.050781-12.046875 6.640625 0 12.046875 5.402344 12.046875 12.046875v15.117187c0 6.644532-5.40625 12.050782-12.050781 12.050782zm70.9375 1.179687c0 12.101563-9.84375 21.945313-21.945312 21.945313-12.097657 0-21.941407-9.84375-21.941407-21.945313v-18.523437c0-11.34375 9.230469-20.570313 20.570313-20.570313 12.855468 0 23.316406 10.460938 23.316406 23.316407zm0 0"/>
  <path d="m267.460938 335.574219c50.199218 0 91.039062-40.835938 91.039062-91.035157 0-50.199218-40.839844-91.039062-91.039062-91.039062-50.195313 0-91.035157 40.839844-91.035157 91.039062 0 50.195313 40.839844 91.035157 91.035157 91.035157zm0-167.074219c41.929687 0 76.039062 34.109375 76.039062 76.039062 0 41.925782-34.109375 76.035157-76.039062 76.035157-41.925782 0-76.035157-34.109375-76.035157-76.035157 0-41.929687 34.109375-76.039062 76.035157-76.039062zm0 0"/>
  <path d="m200.34375 349.054688c19.367188 12.480468 42.414062 19.730468 67.117188 19.730468 68.511718 0 124.25-55.738281 124.25-124.25 0-68.507812-55.738282-124.246094-124.25-124.246094-68.507813 0-124.246094 55.738282-124.246094 124.246094 0 24.707032 7.25 47.753906 19.730468 67.121094l-18.21875 18.222656-6.988281-6.992187-137.738281 137.742187v28.773438l22.597656 22.597656h28.773438l137.738281-137.738281-6.988281-6.988281zm67.117188-213.761719c60.238281 0 109.25 49.007812 109.25 109.246093 0 60.238282-49.011719 109.246094-109.25 109.246094-60.238282 0-109.246094-49.007812-109.246094-109.246094 0-60.238281 49.007812-109.246093 109.246094-109.246093zm-95.945313 189.007812 16.183594 16.183594-16.183594 16.183594-16.183594-16.183594zm-126.355469 172.699219h-16.347656l-13.8125-13.8125v-16.347656l3.617188-3.617188 19.832031 19.832032 10.605469-10.605469-19.832032-19.832031 108.511719-108.511719 30.160156 30.160156zm0 0"/>
  <path d="m238.496094 188.308594h15v116.027344h-15zm0 0"/>
  <path d="m44.320312 272.167969c15.234376 0 27.628907-12.394531 27.628907-27.628907 0-15.234374-12.394531-27.632812-27.628907-27.632812-15.234374 0-27.628906 12.398438-27.628906 27.632812 0 15.234376 12.394532 27.628907 27.628906 27.628907zm0-40.261719c6.964844 0 12.628907 5.667969 12.628907 12.632812 0 6.964844-5.664063 12.628907-12.628907 12.628907-6.964843 0-12.628906-5.664063-12.628906-12.628907 0-6.964843 5.664063-12.632812 12.628906-12.632812zm0 0"/>
  <path d="m231.671875 244.539062c0-13.71875-9.84375-25.191406-23.40625-27.28125l-2.285156 14.824219c6.195312.953125 10.691406 6.191407 10.691406 12.457031 0 6.160157-4.597656 11.515626-10.691406 12.457032l2.285156 14.824218c13.5625-2.089843 23.40625-13.5625 23.40625-27.28125zm0 0"/>
  <path d="m409.144531 103.054688h-85.394531c-7.039062 0-14.082031.875-20.933594 2.609374l3.679688 14.539063c5.648437-1.425781 11.453125-2.148437 17.253906-2.148437h85.394531c16.6875 0 30.265625 13.574218 30.265625 30.261718 0 28.679688-8.175781 56.609375-23.644531 80.765625-9.082031 14.179688-13.878906 30.574219-13.878906 47.414063v75.347656c0 38.347656-31.199219 69.542969-69.542969 69.542969-30.246094 0-57.351562-16.863281-70.746094-44.003907l-13.449218 6.636719c15.9375 32.300781 48.199218 52.367188 84.195312 52.367188 46.617188 0 84.542969-37.925781 84.542969-84.542969v-75.347656c0-13.964844 3.976562-27.5625 11.511719-39.324219 17.015624-26.574219 26.011718-57.300781 26.011718-88.855469 0-24.957031-20.304687-45.261718-45.265625-45.261718zm0 0"/>
  <path d="m124.179688 272.167969c3.707031 0 7.308593-.726563 10.710937-2.15625l-5.820313-13.824219c-1.546874.648438-3.191406.980469-4.890624.980469-6.960938 0-12.628907-5.664063-12.628907-12.628907 0-6.964843 5.667969-12.632812 12.628907-12.632812 1.699218 0 3.34375.332031 4.894531.984375l5.816406-13.828125c-3.402344-1.429688-7.003906-2.15625-10.710937-2.15625-15.234376 0-27.628907 12.398438-27.628907 27.632812 0 15.234376 12.394531 27.628907 27.628907 27.628907zm0 0"/>
  <path d="m67.425781 460.589844-10.605469-10.605469 49.726563-49.726563 10.609375 10.605469zm56.800781-56.796875-10.609374-10.605469 10.609374-10.609375 10.605469 10.609375zm17.675782-17.679688-10.605469-10.605469 10.605469-10.605468 10.605468 10.605468zm0 0"/>
  <path d="m412.039062 215.796875-13.132812-7.246094c10.144531-18.378906 15.503906-39.207031 15.503906-60.234375 0-2.902344-2.359375-5.261718-5.261718-5.261718h-8.148438v-15h8.148438c11.171874 0 20.261718 9.089843 20.261718 20.261718 0 23.554688-6.007812 46.886719-17.371094 67.480469zm-21.039062-72.742187h-15v-15h15zm-25 0h-15v-15h15zm0 0"/>
  <path d="m267.464844 310.574219v-15c28.140625 0 51.035156-22.894531 51.035156-51.035157 0-12.3125-4.464844-24.210937-12.570312-33.503906l11.304687-9.859375c10.488281 12.023438 16.265625 27.425781 16.265625 43.363281 0 36.410157-29.625 66.035157-66.035156 66.035157zm32.195312-105.601563c-3.386718-2.765625-7.113281-5.082031-11.074218-6.894531l6.234374-13.644531c5.121094 2.339844 9.941407 5.339844 14.324219 8.914062zm-19.265625-9.816406c-4.199219-1.097656-8.550781-1.65625-12.929687-1.65625v-15c5.664062 0 11.292968.722656 16.730468 2.148438zm0 0"/>
</svg>
