<?xml version="1.0" encoding="utf-8"?>
<!-- Generator: Adobe Illustrator 21.0.0, SVG Export Plug-In . SVG Version: 6.00 Build 0)  -->
<svg version="1.1" id="Capa_1" xmlns="http://www.w3.org/2000/svg" xmlns:xlink="http://www.w3.org/1999/xlink" x="0px" y="0px"
	 viewBox="0 0 64 64" style="enable-background:new 0 0 64 64;" xml:space="preserve">
<g>
	<g>
		<path d="M59.4,33h-4.9v-3.4c0-1.9-1.6-3.4-3.5-3.4h-17v-7.8c0-1.8-1.5-3.3-3.4-3.3H27V4.6C27,2.1,24.9,0,22.4,0H11.8
			C9.2,0,7.1,2.1,7.1,4.6V15H3.4C1.5,15,0,16.5,0,18.4v12.5c0,0.7,0.6,1.2,1.3,1.2s1.3-0.6,1.3-1.2V18.4c0-0.4,0.4-0.8,0.8-0.8h27.4
			c0.5,0,0.8,0.4,0.8,0.8v30.2H2.5v-6.4c0-0.7-0.6-1.3-1.3-1.3S0,41.4,0,42.1v12.1c0,1.8,1.5,3.3,3.4,3.3h0.3v2.4
			c0,2.3,1.9,4.1,4.2,4.1c2.3,0,4.1-1.8,4.1-4.1v-2.4h10.2v2.4c0,2.3,1.9,4.1,4.1,4.1h33.1c2.5,0,4.6-2,4.6-4.5v-22
			C64,35,62,33,59.4,33L59.4,33z M24.5,15H9.6V4.6c0-1.2,1-2.1,2.1-2.1h10.6c1.2,0,2.1,1,2.1,2.1L24.5,15z M34.1,28.7h17
			c0.5,0,0.9,0.4,0.9,0.9V33H34.1V28.7z M9.4,59.9c0,0.9-0.7,1.6-1.6,1.6c-0.9,0-1.6-0.7-1.6-1.6v-2.4h3.2V59.9z M3.4,55
			c-0.5,0-0.8-0.4-0.8-0.8V51h29.1v3.1c0,0.4-0.4,0.8-0.8,0.8H3.4z M27.9,59.9c0,0.9-0.7,1.6-1.6,1.6c-0.9,0-1.6-0.7-1.6-1.6v-2.4
			h3.2L27.9,59.9z M55.7,61.5H30.1c0.2-0.5,0.3-1,0.3-1.6v-2.4h0.3c1.9,0,3.4-1.5,3.4-3.3V35.5h21.6L55.7,61.5L55.7,61.5z
			 M61.5,59.5c0,1.1-0.9,2-2,2h-1.2v-26h1.2c1.1,0,2,0.9,2,2V59.5z"/>
		<path d="M9.2,30.7c-0.7,0-1.3,0.6-1.3,1.3c0,0.7,0.6,1.2,1.3,1.2H25c0.7,0,1.3-0.6,1.3-1.2c0-0.7-0.6-1.3-1.3-1.3H9.2z"/>
		<path d="M27.5,24.5c0-2.1-1.7-3.8-3.8-3.8H10.4c-2.1,0-3.8,1.7-3.8,3.8c0,2.1,1.7,3.7,3.8,3.7h13.3C25.8,28.2,27.5,26.6,27.5,24.5
			z M23.7,25.7H10.4c-0.7,0-1.3-0.6-1.3-1.2c0-0.7,0.6-1.3,1.3-1.3h13.3c0.7,0,1.3,0.6,1.3,1.3C25,25.2,24.4,25.7,23.7,25.7z"/>
		<path d="M40.8,45.1l6.3,2.8c0.2,0.1,0.3,0.1,0.5,0.1c0.5,0,0.9-0.3,1.2-0.7l2.1-4.7c0.1-0.3,0.1-0.6,0-1c-0.1-0.3-0.4-0.6-0.7-0.7
			L44,38.1c-0.3-0.1-0.7-0.1-1,0c-0.3,0.1-0.6,0.4-0.7,0.7l-2.1,4.7C39.9,44,40.2,44.8,40.8,45.1L40.8,45.1z M44.1,40.9l4,1.8
			L47,45.1l-4-1.8L44.1,40.9z"/>
		<path d="M42.5,58.8c2.3,0,4.2-1.9,4.2-4.2c0-2.3-1.9-4.2-4.2-4.2c-2.3,0-4.2,1.9-4.2,4.2C38.3,56.9,40.2,58.8,42.5,58.8z M42.5,53
			c0.9,0,1.7,0.8,1.7,1.7c0,0.9-0.8,1.7-1.7,1.7c-0.9,0-1.7-0.8-1.7-1.7C40.8,53.7,41.6,53,42.5,53z"/>
		<path d="M1.3,37.7c0.7,0,1.3-0.6,1.3-1.3S2,35.2,1.3,35.2S0,35.8,0,36.5v0C0,37.2,0.6,37.7,1.3,37.7L1.3,37.7z"/>
	</g>
</g>
</svg>
