<svg height="480pt" viewBox="0 0 480 480" width="480pt" xmlns="http://www.w3.org/2000/svg"><path fill="#1668ac" stroke="#1668ac" d="m128 185.472656v-9.472656h-16v8h-16v-8h-16v8c-4.417969 0-8 3.582031-8 8v64c0 4.417969 3.582031 8 8 8v8h16v-8h16v8h16v-9.472656c7.566406-2.617188 13.308594-8.867188 15.273438-16.628906 1.96875-7.761719-.105469-15.992188-5.511719-21.898438 5.40625-5.90625 7.480469-14.136719 5.511719-21.898438-1.964844-7.761718-7.707032-14.011718-15.273438-16.628906zm-40 14.527344h32c4.417969 0 8 3.582031 8 8s-3.582031 8-8 8h-32zm32 48h-32v-16h32c4.417969 0 8 3.582031 8 8s-3.582031 8-8 8zm0 0"/><path fill="#1668ac" stroke="#1668ac" d="m368 264h16c4.417969 0 8 3.582031 8 8s-3.582031 8-8 8h-32v16h16v8h16v-8c13.253906 0 24-10.746094 24-24s-10.746094-24-24-24h-16c-4.417969 0-8-3.582031-8-8s3.582031-8 8-8h32v-16h-16v-8h-16v8c-13.253906 0-24 10.746094-24 24s10.746094 24 24 24zm0 0"/><path fill="#1668ac" stroke="#1668ac" d="m216 288h-64.207031c27.652343-20.601562 38.992187-56.601562 28.144531-89.332031-10.851562-32.730469-41.457031-54.824219-75.9375-54.824219s-65.085938 22.09375-75.9375 54.824219c-10.847656 32.730469.492188 68.730469 28.144531 89.332031h-48.207031c-4.417969 0-8 3.582031-8 8v176c0 4.417969 3.582031 8 8 8h208c4.417969 0 8-3.582031 8-8v-176c0-4.417969-3.582031-8-8-8zm-8 64h-16v-48h16zm0 48h-16v-32h16zm-32 0h-48c-8.835938 0-16-7.164062-16-16s7.164062-16 16-16h48zm-136-176c0-35.347656 28.652344-64 64-64s64 28.652344 64 64-28.652344 64-64 64c-35.328125-.039062-63.960938-28.671875-64-64zm-16 240h-8v-160h160v48h-48c-17.671875 0-32 14.328125-32 32s14.328125 32 32 32h48v48zm168 0v-48h16v48zm0 0"/><path fill="#1668ac" stroke="#1668ac" d="m144 384c0 4.417969-3.582031 8-8 8s-8-3.582031-8-8 3.582031-8 8-8 8 3.582031 8 8zm0 0"/><path fill="#1668ac" stroke="#1668ac" d="m472 0h-208c-4.417969 0-8 3.582031-8 8v176c0 4.417969 3.582031 8 8 8h64.207031c-27.652343 20.601562-38.992187 56.601562-28.144531 89.332031 10.851562 32.730469 41.457031 54.824219 75.9375 54.824219s65.085938-22.09375 75.9375-54.824219c10.847656-32.730469-.492188-68.730469-28.144531-89.332031h48.207031c4.417969 0 8-3.582031 8-8v-176c0-4.417969-3.582031-8-8-8zm-8 64h-16v-48h16zm0 48h-16v-32h16zm-32 0h-48c-8.835938 0-16-7.164062-16-16s7.164062-16 16-16h48zm8 144c0 35.347656-28.652344 64-64 64s-64-28.652344-64-64 28.652344-64 64-64c35.328125.039062 63.960938 28.671875 64 64zm-160-80h-8v-160h160v48h-48c-17.671875 0-32 14.328125-32 32s14.328125 32 32 32h48v48zm168 0v-48h16v48zm0 0"/><path fill="#1668ac" stroke="#1668ac" d="m400 96c0 4.417969-3.582031 8-8 8s-8-3.582031-8-8 3.582031-8 8-8 8 3.582031 8 8zm0 0"/><path fill="#1668ac" stroke="#1668ac" d="m96 112h16v16h-16zm0 0"/><path fill="#1668ac" stroke="#1668ac" d="m96 80h16v16h-16zm0 0"/><path fill="#1668ac" stroke="#1668ac" d="m96 48h16v16h-16zm0 0"/><path fill="#1668ac" stroke="#1668ac" d="m128 48h16v16h-16zm0 0"/><path fill="#1668ac" stroke="#1668ac" d="m160 48h16v16h-16zm0 0"/><path fill="#1668ac" stroke="#1668ac" d="m192 48h16v16h-16zm0 0"/><path fill="#1668ac" stroke="#1668ac" d="m224 48h16v16h-16zm0 0"/><path fill="#1668ac" stroke="#1668ac" d="m368 352h16v16h-16zm0 0"/><path fill="#1668ac" stroke="#1668ac" d="m368 384h16v16h-16zm0 0"/><path fill="#1668ac" stroke="#1668ac" d="m368 416h16v16h-16zm0 0"/><path fill="#1668ac" stroke="#1668ac" d="m336 416h16v16h-16zm0 0"/><path fill="#1668ac" stroke="#1668ac" d="m304 416h16v16h-16zm0 0"/><path fill="#1668ac" stroke="#1668ac" d="m272 416h16v16h-16zm0 0"/><path fill="#1668ac" stroke="#1668ac" d="m240 416h16v16h-16zm0 0"/></svg>
