<?xml version="1.0" encoding="UTF-8"?>
<svg xmlns="http://www.w3.org/2000/svg" xmlns:xlink="http://www.w3.org/1999/xlink" width="64pt" height="64pt" viewBox="0 0 64 64" version="1.1">
<g id="surface1">
<path style=" stroke:none;fill-rule:nonzero;fill:rgb(8.627451%,40.784314%,67.45098%);fill-opacity:1;" d="M 4.6875 3.75 C 4.167969 3.75 3.75 4.167969 3.75 4.6875 C 3.75 5.207031 4.167969 5.625 4.6875 5.625 C 5.207031 5.625 5.625 5.207031 5.625 4.6875 C 5.625 4.167969 5.207031 3.75 4.6875 3.75 Z M 12.1875 3.75 C 11.667969 3.75 11.25 4.167969 11.25 4.6875 C 11.25 5.207031 11.667969 5.625 12.1875 5.625 C 12.707031 5.625 13.125 5.207031 13.125 4.6875 C 13.125 4.167969 12.707031 3.75 12.1875 3.75 Z M 8.4375 3.75 C 7.917969 3.75 7.5 4.167969 7.5 4.6875 C 7.5 5.207031 7.917969 5.625 8.4375 5.625 C 8.957031 5.625 9.375 5.207031 9.375 4.6875 C 9.375 4.167969 8.957031 3.75 8.4375 3.75 Z M 54.644531 36.625 L 48.476562 36.625 C 47.617188 36.625 46.914062 37.324219 46.914062 38.1875 L 46.914062 40.6875 C 46.914062 41.550781 47.617188 42.25 48.476562 42.25 L 54.644531 42.25 C 55.503906 42.25 56.207031 41.550781 56.207031 40.6875 L 56.207031 38.1875 C 56.207031 37.324219 55.503906 36.625 54.644531 36.625 Z M 54.332031 40.375 L 48.789062 40.375 L 48.789062 38.5 L 54.332031 38.5 Z M 48.753906 14.84375 C 48.753906 15.496094 48.929688 16.105469 49.234375 16.632812 L 38.652344 27.214844 C 38.125 26.910156 37.515625 26.734375 36.863281 26.734375 C 36.210938 26.734375 35.601562 26.910156 35.074219 27.214844 L 27.007812 19.148438 C 27.3125 18.625 27.484375 18.015625 27.484375 17.363281 C 27.484375 15.382812 25.871094 13.769531 23.890625 13.769531 C 21.910156 13.769531 20.296875 15.382812 20.296875 17.363281 C 20.296875 18.019531 20.472656 18.628906 20.777344 19.160156 L 13.441406 26.496094 C 12.914062 26.195312 12.300781 26.019531 11.652344 26.019531 C 9.667969 26.019531 8.054688 27.628906 8.054688 29.613281 C 8.054688 31.59375 9.667969 33.207031 11.652344 33.207031 C 13.632812 33.207031 15.246094 31.59375 15.246094 29.613281 C 15.246094 28.960938 15.070312 28.351562 14.765625 27.824219 L 22.105469 20.484375 C 22.632812 20.785156 23.242188 20.960938 23.890625 20.960938 C 24.542969 20.960938 25.15625 20.785156 25.683594 20.476562 L 33.746094 28.539062 C 33.441406 29.066406 33.269531 29.679688 33.269531 30.328125 C 33.269531 32.3125 34.878906 33.925781 36.863281 33.925781 C 38.84375 33.925781 40.457031 32.3125 40.457031 30.328125 C 40.457031 29.679688 40.28125 29.066406 39.976562 28.539062 L 50.558594 17.960938 C 51.085938 18.265625 51.699219 18.4375 52.347656 18.4375 C 54.332031 18.4375 55.941406 16.828125 55.941406 14.84375 C 55.941406 12.863281 54.332031 11.25 52.347656 11.25 C 50.367188 11.25 48.753906 12.863281 48.753906 14.84375 Z M 11.652344 31.332031 C 10.703125 31.332031 9.929688 30.5625 9.929688 29.613281 C 9.929688 28.664062 10.703125 27.894531 11.652344 27.894531 C 12.597656 27.894531 13.371094 28.664062 13.371094 29.613281 C 13.371094 30.5625 12.597656 31.332031 11.652344 31.332031 Z M 23.890625 19.085938 C 22.941406 19.085938 22.171875 18.3125 22.171875 17.363281 C 22.171875 16.417969 22.941406 15.644531 23.890625 15.644531 C 24.839844 15.644531 25.609375 16.417969 25.609375 17.363281 C 25.609375 18.3125 24.839844 19.085938 23.890625 19.085938 Z M 36.863281 32.050781 C 35.914062 32.050781 35.144531 31.277344 35.144531 30.328125 C 35.144531 29.382812 35.914062 28.609375 36.863281 28.609375 C 37.8125 28.609375 38.582031 29.382812 38.582031 30.328125 C 38.582031 31.277344 37.8125 32.050781 36.863281 32.050781 Z M 54.066406 14.84375 C 54.066406 15.792969 53.296875 16.5625 52.347656 16.5625 C 51.402344 16.5625 50.628906 15.792969 50.628906 14.84375 C 50.628906 13.894531 51.402344 13.125 52.347656 13.125 C 53.296875 13.125 54.066406 13.894531 54.066406 14.84375 Z M 59.3125 0 L 4.6875 0 C 2.101562 0 0 2.101562 0 4.6875 L 0 47.8125 C 0 50.398438 2.101562 52.5 4.6875 52.5 L 24.203125 52.5 C 24.5 54.054688 24.238281 55.691406 23.460938 57.078125 L 21.410156 60.742188 C 20.601562 62.152344 21.664062 64.015625 23.320312 64 L 40.679688 64 C 42.304688 64.011719 43.398438 62.160156 42.589844 60.742188 L 40.539062 57.078125 C 39.761719 55.691406 39.5 54.054688 39.796875 52.5 L 59.3125 52.5 C 61.898438 52.5 64 50.398438 64 47.8125 L 64 4.6875 C 64 2.101562 61.898438 0 59.3125 0 Z M 1.875 4.6875 C 1.875 3.136719 3.136719 1.875 4.6875 1.875 L 24.050781 1.875 C 23.867188 2.277344 23.765625 2.71875 23.765625 3.1875 L 23.765625 6.1875 C 23.765625 6.910156 23.179688 7.5 22.453125 7.5 L 1.875 7.5 Z M 40.953125 61.660156 C 41.074219 61.894531 40.945312 62.113281 40.679688 62.125 L 23.320312 62.125 C 23.054688 62.113281 22.925781 61.894531 23.046875 61.660156 L 25.097656 57.996094 C 26.03125 56.324219 26.378906 54.378906 26.101562 52.5 L 37.898438 52.5 C 37.621094 54.378906 37.96875 56.324219 38.902344 57.996094 Z M 62.125 7.5 L 54.21875 7.5 C 53.703125 7.5 53.28125 7.917969 53.28125 8.4375 C 53.28125 8.957031 53.703125 9.375 54.21875 9.375 L 62.125 9.375 L 62.125 44.125 L 18.332031 44.125 C 17.8125 44.125 17.394531 44.542969 17.394531 45.0625 C 17.394531 45.582031 17.8125 46 18.332031 46 L 62.125 46 L 62.125 47.8125 C 62.125 49.363281 60.863281 50.625 59.3125 50.625 L 4.6875 50.625 C 3.136719 50.625 1.875 49.363281 1.875 47.8125 L 1.875 46 L 13.957031 46 C 14.476562 46 14.894531 45.582031 14.894531 45.0625 C 14.894531 44.542969 14.476562 44.125 13.957031 44.125 L 1.875 44.125 L 1.875 9.375 L 22.453125 9.375 C 24.210938 9.375 25.640625 7.945312 25.640625 6.1875 L 25.640625 3.1875 C 25.640625 2.464844 26.230469 1.875 26.953125 1.875 L 37.046875 1.875 C 37.769531 1.875 38.359375 2.464844 38.359375 3.1875 L 38.359375 6.1875 C 38.359375 7.945312 39.789062 9.375 41.546875 9.375 L 49.84375 9.375 C 50.363281 9.375 50.78125 8.957031 50.78125 8.4375 C 50.78125 7.917969 50.363281 7.5 49.84375 7.5 L 41.546875 7.5 C 40.820312 7.5 40.234375 6.910156 40.234375 6.1875 L 40.234375 3.1875 C 40.234375 2.71875 40.132812 2.277344 39.949219 1.875 L 59.3125 1.875 C 60.863281 1.875 62.125 3.136719 62.125 4.6875 Z M 15.523438 36.625 L 9.355469 36.625 C 8.496094 36.625 7.792969 37.324219 7.792969 38.1875 L 7.792969 40.6875 C 7.792969 41.550781 8.496094 42.25 9.355469 42.25 L 15.523438 42.25 C 16.382812 42.25 17.085938 41.550781 17.085938 40.6875 L 17.085938 38.1875 C 17.085938 37.324219 16.382812 36.625 15.523438 36.625 Z M 15.210938 40.375 L 9.667969 40.375 L 9.667969 38.5 L 15.210938 38.5 Z M 28.5625 36.625 L 22.398438 36.625 C 21.535156 36.625 20.835938 37.324219 20.835938 38.1875 L 20.835938 40.6875 C 20.835938 41.550781 21.535156 42.25 22.398438 42.25 L 28.5625 42.25 C 29.425781 42.25 30.125 41.550781 30.125 40.6875 L 30.125 38.1875 C 30.125 37.324219 29.425781 36.625 28.5625 36.625 Z M 28.25 40.375 L 22.710938 40.375 L 22.710938 38.5 L 28.25 38.5 Z M 41.601562 36.625 L 35.4375 36.625 C 34.574219 36.625 33.875 37.324219 33.875 38.1875 L 33.875 40.6875 C 33.875 41.550781 34.574219 42.25 35.4375 42.25 L 41.601562 42.25 C 42.464844 42.25 43.164062 41.550781 43.164062 40.6875 L 43.164062 38.1875 C 43.164062 37.324219 42.464844 36.625 41.601562 36.625 Z M 41.289062 40.375 L 35.75 40.375 L 35.75 38.5 L 41.289062 38.5 Z M 41.289062 40.375 "/>
</g>
</svg>
