<?xml version="1.0" encoding="UTF-8"?>
<svg xmlns="http://www.w3.org/2000/svg" xmlns:xlink="http://www.w3.org/1999/xlink" width="64pt" height="64pt" viewBox="0 0 64 64" version="1.1">
<g id="surface1">
<path style=" stroke:none;fill-rule:nonzero;fill:rgb(8.627451%,40.784314%,67.45098%);fill-opacity:1;" d="M 56 0 L 15.464844 0 C 13.109375 0 11.199219 1.910156 11.199219 4.265625 L 11.199219 40.535156 L 10.132812 40.535156 C 9.542969 40.535156 9.066406 41.011719 9.066406 41.601562 L 9.066406 42.667969 L 3.734375 42.667969 L 3.734375 44.800781 L 9.066406 44.800781 L 9.066406 59.734375 L 3.734375 59.734375 L 3.734375 61.867188 L 9.066406 61.867188 L 9.066406 62.933594 C 9.066406 63.523438 9.542969 64 10.132812 64 L 20.800781 64 C 21.390625 64 21.867188 63.523438 21.867188 62.933594 L 21.867188 61.867188 L 24.816406 61.867188 C 27.714844 63.265625 30.886719 63.996094 34.101562 64 L 45.867188 64 C 47.304688 63.996094 48.609375 63.164062 49.226562 61.867188 L 56 61.867188 C 58.355469 61.867188 60.265625 59.957031 60.265625 57.601562 L 60.265625 4.265625 C 60.265625 1.910156 58.355469 0 56 0 Z M 19.734375 61.867188 L 11.199219 61.867188 L 11.199219 42.667969 L 19.734375 42.667969 Z M 45.867188 48 C 46.75 48 47.464844 48.714844 47.464844 49.601562 C 47.464844 50.484375 46.75 51.199219 45.867188 51.199219 L 43.199219 51.199219 L 43.199219 53.332031 L 45.867188 53.332031 C 46.75 53.332031 47.464844 54.050781 47.464844 54.933594 C 47.464844 55.816406 46.75 56.535156 45.867188 56.535156 L 43.199219 56.535156 L 43.199219 58.667969 L 45.867188 58.667969 C 46.75 58.667969 47.464844 59.382812 47.464844 60.265625 C 47.464844 61.148438 46.75 61.867188 45.867188 61.867188 L 34.101562 61.867188 C 31.132812 61.863281 28.203125 61.167969 25.542969 59.839844 C 25.394531 59.769531 25.230469 59.730469 25.066406 59.734375 L 21.867188 59.734375 L 21.867188 44.800781 L 25.066406 44.800781 C 25.324219 44.800781 25.574219 44.707031 25.769531 44.535156 L 27.683594 42.863281 C 31.695312 39.367188 33.621094 34.050781 32.773438 28.800781 L 32.988281 28.800781 C 34.738281 28.792969 36.269531 29.988281 36.691406 31.6875 C 37.429688 34.613281 37.222656 37.699219 36.097656 40.5 L 36.078125 40.535156 L 33.601562 40.535156 L 33.601562 42.667969 L 45.867188 42.667969 C 46.75 42.667969 47.464844 43.382812 47.464844 44.265625 C 47.464844 45.148438 46.75 45.867188 45.867188 45.867188 L 43.199219 45.867188 L 43.199219 48 Z M 58.132812 57.601562 C 58.132812 58.777344 57.179688 59.734375 56 59.734375 L 49.546875 59.734375 C 49.433594 58.921875 49.054688 58.171875 48.472656 57.601562 C 49.945312 56.171875 49.980469 53.820312 48.550781 52.347656 C 48.523438 52.320312 48.5 52.292969 48.472656 52.265625 C 49.945312 50.839844 49.980469 48.484375 48.550781 47.011719 C 48.523438 46.984375 48.5 46.960938 48.472656 46.933594 C 49.945312 45.496094 49.980469 43.136719 48.542969 41.660156 C 47.839844 40.9375 46.875 40.53125 45.867188 40.535156 L 38.34375 40.535156 C 39.390625 37.519531 39.535156 34.265625 38.757812 31.171875 C 38.101562 28.523438 35.71875 26.664062 32.988281 26.667969 L 31.464844 26.667969 C 30.878906 26.667969 30.398438 27.144531 30.398438 27.734375 C 30.398438 27.820312 30.410156 27.90625 30.433594 27.992188 C 31.65625 32.84375 30.050781 37.972656 26.277344 41.257812 L 24.664062 42.667969 L 21.867188 42.667969 L 21.867188 41.601562 C 21.867188 41.011719 21.390625 40.535156 20.800781 40.535156 L 13.332031 40.535156 L 13.332031 10.667969 L 58.132812 10.667969 Z M 58.132812 8.535156 L 13.332031 8.535156 L 13.332031 4.265625 C 13.332031 3.089844 14.289062 2.132812 15.464844 2.132812 L 56 2.132812 C 57.179688 2.132812 58.132812 3.089844 58.132812 4.265625 Z M 58.132812 8.535156 "/>
<path style=" stroke:none;fill-rule:nonzero;fill:rgb(8.627451%,40.784314%,67.45098%);fill-opacity:1;" d="M 14.398438 57.601562 L 16.535156 57.601562 L 16.535156 59.734375 L 14.398438 59.734375 Z M 15.464844 4.265625 L 17.601562 4.265625 L 17.601562 6.398438 L 15.464844 6.398438 Z M 19.734375 4.265625 L 21.867188 4.265625 L 21.867188 6.398438 L 19.734375 6.398438 Z M 24 4.265625 L 26.132812 4.265625 L 26.132812 6.398438 L 24 6.398438 Z M 16.535156 18.132812 L 38.933594 18.132812 L 38.933594 20.265625 L 16.535156 20.265625 Z M 16.535156 22.398438 L 38.933594 22.398438 L 38.933594 24.535156 L 16.535156 24.535156 Z M 25.066406 13.867188 L 38.933594 13.867188 L 38.933594 16 L 25.066406 16 Z M 20.800781 13.867188 L 22.933594 13.867188 L 22.933594 16 L 20.800781 16 Z M 53.867188 26.667969 L 43.199219 26.667969 C 42.609375 26.667969 42.132812 27.144531 42.132812 27.734375 L 42.132812 36.265625 C 42.132812 36.855469 42.609375 37.332031 43.199219 37.332031 L 53.867188 37.332031 C 54.457031 37.332031 54.933594 36.855469 54.933594 36.265625 L 54.933594 27.734375 C 54.933594 27.144531 54.457031 26.667969 53.867188 26.667969 Z M 52.800781 35.199219 L 44.265625 35.199219 L 44.265625 28.800781 L 52.800781 28.800781 Z M 53.867188 13.867188 L 43.199219 13.867188 C 42.609375 13.867188 42.132812 14.34375 42.132812 14.933594 L 42.132812 23.464844 C 42.132812 24.054688 42.609375 24.535156 43.199219 24.535156 L 53.867188 24.535156 C 54.457031 24.535156 54.933594 24.054688 54.933594 23.464844 L 54.933594 14.933594 C 54.933594 14.34375 54.457031 13.867188 53.867188 13.867188 Z M 52.800781 22.398438 L 44.265625 22.398438 L 44.265625 16 L 52.800781 16 Z M 25.066406 26.667969 L 17.601562 26.667969 C 17.011719 26.667969 16.535156 27.144531 16.535156 27.734375 L 16.535156 36.265625 C 16.535156 36.855469 17.011719 37.332031 17.601562 37.332031 L 25.066406 37.332031 C 25.65625 37.332031 26.132812 36.855469 26.132812 36.265625 L 26.132812 27.734375 C 26.132812 27.144531 25.65625 26.667969 25.066406 26.667969 Z M 24 35.199219 L 18.667969 35.199219 L 18.667969 28.800781 L 24 28.800781 Z M 24 35.199219 "/>
</g>
</svg>
