<svg id="Layer_1" data-name="Layer 1" xmlns="http://www.w3.org/2000/svg" xmlns:xlink="http://www.w3.org/1999/xlink" viewBox="0 0 650 520"><defs><style>.cls-1{fill:#0562e8;opacity:0.06;isolation:isolate;}.cls-2{fill:url(#linear-gradient);}.cls-3{fill:#a1ffdd;}.cls-4{fill:url(#linear-gradient-2);}.cls-10,.cls-5{fill:#fff;}.cls-6{fill:url(#linear-gradient-3);}.cls-7{fill:url(#linear-gradient-4);}.cls-8{fill:url(#linear-gradient-5);}.cls-9{fill:url(#linear-gradient-6);}.cls-10{fill-rule:evenodd;opacity:0.69;}.cls-11{fill:url(#linear-gradient-7);}.cls-12{fill:url(#linear-gradient-8);}.cls-13{fill:#1d425d;}.cls-14{fill:url(#linear-gradient-9);}.cls-15{opacity:0.25;}.cls-16{fill:url(#linear-gradient-10);}.cls-17{fill:url(#linear-gradient-11);}.cls-18{fill:url(#linear-gradient-12);}.cls-19{fill:url(#linear-gradient-13);}.cls-20{fill:url(#linear-gradient-14);}.cls-21{fill:url(#linear-gradient-15);}.cls-22{fill:url(#linear-gradient-16);}.cls-23{fill:url(#linear-gradient-17);}.cls-24{fill:url(#linear-gradient-18);}.cls-25{fill:url(#linear-gradient-19);}.cls-26{fill:url(#linear-gradient-20);}.cls-27{fill:url(#linear-gradient-21);}.cls-28{fill:url(#linear-gradient-22);}.cls-29{fill:url(#linear-gradient-23);}.cls-30{fill:url(#linear-gradient-24);}.cls-31{fill:url(#linear-gradient-25);}.cls-32{fill:#1860d3;}.cls-33{fill:none;stroke:#fff;stroke-miterlimit:10;stroke-width:2.48px;}.cls-34{fill:url(#linear-gradient-26);}.cls-35{fill:url(#linear-gradient-27);}.cls-36{fill:url(#linear-gradient-28);}.cls-37{fill:url(#linear-gradient-29);}.cls-38{fill:url(#linear-gradient-30);}.cls-39{fill:#f5ce0f;}</style><linearGradient id="linear-gradient" x1="30.97" y1="417.99" x2="198.07" y2="417.99" gradientUnits="userSpaceOnUse"><stop offset="0" stop-color="#05a1e8"/><stop offset="1" stop-color="#0562e8"/></linearGradient><linearGradient id="linear-gradient-2" x1="418.27" y1="424.05" x2="585.37" y2="424.05" gradientUnits="userSpaceOnUse"><stop offset="0" stop-color="#d35400"/><stop offset="1" stop-color="#ffb62d"/></linearGradient><linearGradient id="linear-gradient-3" x1="3110.51" y1="-978.14" x2="3183.6" y2="-978.14" gradientTransform="translate(-2871.28 1409.7)" xlink:href="#linear-gradient-2"/><linearGradient id="linear-gradient-4" x1="3110.51" y1="-945.58" x2="3198.61" y2="-945.58" gradientTransform="translate(-2846.23 1369.62)" xlink:href="#linear-gradient-2"/><linearGradient id="linear-gradient-5" x1="3110.51" y1="-913.34" x2="3155.64" y2="-913.34" gradientTransform="translate(-2792.5 1358.87)" xlink:href="#linear-gradient-2"/><linearGradient id="linear-gradient-6" x1="209.58" y1="7.37" x2="209.58" y2="360.75" xlink:href="#linear-gradient"/><linearGradient id="linear-gradient-7" x1="405.07" y1="319.75" x2="422.51" y2="319.75" xlink:href="#linear-gradient"/><linearGradient id="linear-gradient-8" x1="425.37" y1="53.53" x2="459.41" y2="53.53" xlink:href="#linear-gradient-2"/><linearGradient id="linear-gradient-9" x1="440.83" y1="422.97" x2="551.95" y2="422.97" xlink:href="#linear-gradient"/><linearGradient id="linear-gradient-10" x1="452.72" y1="383.06" x2="478.02" y2="447.49" xlink:href="#linear-gradient"/><linearGradient id="linear-gradient-11" x1="445.36" y1="385.95" x2="470.66" y2="450.38" xlink:href="#linear-gradient"/><linearGradient id="linear-gradient-12" x1="455.42" y1="382" x2="480.72" y2="446.43" xlink:href="#linear-gradient"/><linearGradient id="linear-gradient-13" x1="449.04" y1="384.5" x2="474.34" y2="448.94" xlink:href="#linear-gradient"/><linearGradient id="linear-gradient-14" x1="455.3" y1="382.04" x2="480.6" y2="446.48" xlink:href="#linear-gradient"/><linearGradient id="linear-gradient-15" x1="456.47" y1="381.58" x2="481.78" y2="446.02" xlink:href="#linear-gradient"/><linearGradient id="linear-gradient-16" x1="462.49" y1="379.22" x2="487.8" y2="443.65" xlink:href="#linear-gradient"/><linearGradient id="linear-gradient-17" x1="459.89" y1="380.24" x2="485.19" y2="444.68" xlink:href="#linear-gradient"/><linearGradient id="linear-gradient-18" x1="455.89" y1="381.81" x2="481.19" y2="446.25" xlink:href="#linear-gradient"/><linearGradient id="linear-gradient-19" x1="461.63" y1="379.55" x2="486.94" y2="443.99" xlink:href="#linear-gradient"/><linearGradient id="linear-gradient-20" x1="460.56" y1="379.98" x2="485.86" y2="444.41" xlink:href="#linear-gradient"/><linearGradient id="linear-gradient-21" x1="451.02" y1="383.72" x2="476.33" y2="448.16" xlink:href="#linear-gradient"/><linearGradient id="linear-gradient-22" x1="445.04" y1="386.07" x2="470.34" y2="450.51" xlink:href="#linear-gradient"/><linearGradient id="linear-gradient-23" x1="450.67" y1="383.86" x2="475.98" y2="448.29" xlink:href="#linear-gradient"/><linearGradient id="linear-gradient-24" x1="474.1" y1="253.18" x2="513.62" y2="204.33" xlink:href="#linear-gradient-2"/><linearGradient id="linear-gradient-25" x1="489.2" y1="265.4" x2="528.73" y2="216.55" xlink:href="#linear-gradient-2"/><linearGradient id="linear-gradient-26" x1="439.18" y1="216.7" x2="467.67" y2="216.7" xlink:href="#linear-gradient-2"/><linearGradient id="linear-gradient-27" x1="809.14" y1="1331.32" x2="837.63" y2="1331.32" gradientTransform="translate(-355.71 -1146.86)" xlink:href="#linear-gradient-2"/><linearGradient id="linear-gradient-28" x1="3689.51" y1="216.7" x2="3718.01" y2="216.7" gradientTransform="matrix(1, 0, 0, -1, -3153.55, 433.4)" xlink:href="#linear-gradient-2"/><linearGradient id="linear-gradient-29" x1="3107.35" y1="-966.89" x2="3135.84" y2="-966.89" gradientTransform="matrix(1, 0, 0, -1, -2585.46, -782.43)" xlink:href="#linear-gradient-2"/><linearGradient id="linear-gradient-30" x1="1894.77" y1="1862.22" x2="1918.84" y2="1862.22" gradientTransform="translate(-1404.48 -1690.6)" xlink:href="#linear-gradient-2"/></defs><g id="Marketing-and-aAdvertising"><path id="Path-Copy" class="cls-1" d="M216.68,490.33c58.83,32.05,122.11,44.6,185.36,5.86s-87.29-236.95,48.21-160.1,255-71.34,145.92-194-320-123.8-356.27-63-2.13,89.74-59,148.74S75.17,413.21,216.68,490.33Z"/></g><circle class="cls-2" cx="114.52" cy="417.99" r="83.55"/><circle class="cls-3" cx="308.17" cy="423.86" r="83.55"/><circle class="cls-4" cx="501.82" cy="424.05" r="83.55"/><circle class="cls-3" cx="501.82" cy="213.06" r="83.55"/><circle class="cls-3" cx="295.97" cy="454.86" r="0.65"/><path class="cls-5" d="M152.88,446.29l-12.51,11.77-2.08-1.64-6-4.78a.41.41,0,0,0-.52-.06,36,36,0,0,1-7.61,3,.53.53,0,0,0-.45.52q-.56,3-1.12,5.91c-.26,1.36-.52,2.73-.78,4.12l-17.25-.66c0-.21,0-.37-.07-.52-.45-3.18-.91-6.36-1.35-9.55a.48.48,0,0,0-.38-.45,36.17,36.17,0,0,1-7.35-3.3.52.52,0,0,0-.44,0c-1.85,1.22-3.7,2.46-5.54,3.7l-3.12,2.08L74.51,443.9c.07-.11.13-.21.2-.3,2-2.62,4-5.23,5.94-7.84a.38.38,0,0,0,0-.48,40.21,40.21,0,0,1-2.86-7.57.44.44,0,0,0-.38-.36c-1.86-.39-3.71-.8-5.57-1.2l-4.57-1c.23-5.77.45-11.51.67-17.25l.63-.08,9.53-1.21c.2,0,.38,0,.47-.3A32.55,32.55,0,0,1,82,398.88a.43.43,0,0,0,0-.4c-1.49-2.26-3-4.5-4.5-6.75-.44-.64-.86-1.29-1.28-1.92L88.68,378l2.81,2.2q2.55,2,5.12,4a.41.41,0,0,0,.54.09,35.2,35.2,0,0,1,7.5-2.84.5.5,0,0,0,.43-.45c.47-2.45,1-4.9,1.46-7.35.19-.95.38-1.91.56-2.79l17.14.52c0,.11,0,.25.06.39l1.35,9.86a.49.49,0,0,0,.37.47,38.4,38.4,0,0,1,7.17,3.21.66.66,0,0,0,.83,0c1.5-1,3-2,4.53-3l3.82-2.57,11.83,12.57s0,0-.06,0c-2,2.66-4,5.33-6.06,8a.41.41,0,0,0,0,.49,36.3,36.3,0,0,1,3,7.65.47.47,0,0,0,.44.39l7.27,1.45,2.95.6q-.22,8.56-.46,17.1l-.52.08-9.86,1.35a.5.5,0,0,0-.48.39,36.93,36.93,0,0,1-3.27,7.32.52.52,0,0,0,0,.47q1.3,2,2.63,4ZM136.4,397.48A30,30,0,1,0,135,440,30,30,0,0,0,136.4,397.48Z"/><rect class="cls-6" x="239.23" y="420.31" width="73.08" height="22.49" rx="11.24" transform="translate(-155.78 707.32) rotate(-90)"/><rect class="cls-7" x="264.29" y="412.8" width="88.1" height="22.49" rx="11.24" transform="translate(-115.71 732.38) rotate(-90)"/><rect class="cls-8" x="318.01" y="434.29" width="45.13" height="22.49" rx="11.24" transform="translate(-104.96 786.1) rotate(-90)"/><path class="cls-9" d="M357.79,268.94l-1.07-42.89-1-42.54-.87-42.27-.68-42.06,1.79,3.11c-12.35-6.9-24.73-13.74-37.06-20.69L282,60.78,245,39.94,208.08,19h5.38L176.85,40.43c-12.19,7.18-24.45,14.23-36.68,21.34l-73.42,42.6,3-5.19-.18,84.88c0,14.15,0,28.29-.13,42.44l-.29,42.44-2.69-4.68,36.61,21.47,36.54,21.59L176.13,329c12.18,7.18,24.29,14.5,36.45,21.74H209l36.77-20.43,37-20.38,37.33-20.43Zm0,0L322,290.86l-36.18,22-36.47,22.06-36.73,22L210.83,358,209,356.94c-12.35-6.9-24.74-13.73-37.06-20.69l-37-20.82L98,294.59l-36.89-21-2.68-1.52,0-3.15-.28-42.44c-.12-14.15-.09-28.29-.14-42.44l-.18-84.88V95.71l3-1.72,73.6-42.28c12.27-7,24.51-14.13,36.83-21.1l36.89-21,2.73-1.56,2.65,1.56L250.08,31.1l36.53,21.6,36.52,21.62c12.18,7.2,24.3,14.5,36.45,21.75l1.83,1.09,0,2L360.69,142l-.87,42.6-1,42.34Z"/><polygon class="cls-10" points="381.51 279.29 381.51 122.47 245.69 44.06 109.88 122.47 109.88 279.29 245.69 357.71 381.51 279.29"/><circle class="cls-11" cx="413.79" cy="319.75" r="8.72"/><circle class="cls-12" cx="442.39" cy="53.53" r="17.02"/><polygon class="cls-13" points="550.93 422.97 575.83 425.36 546.22 469.62 550.93 422.97"/><polygon class="cls-14" points="551.95 412.94 546.22 469.62 440.83 445.74 451.65 376.33 475.21 381.42 486.04 401.8 551.95 412.94"/><path class="cls-15" d="M481.93,444.75c-.37-.8-5.44-9.48-1.73-7.46-.17.58-.11,1.24-.26,1.82,3.17.66,5.48-1.3,4.5-4.56-1.07-3.66-3.95-4.61-6.34-7,3.08-1.79,6.63-1.35,4.81-6.08-.63-1.56-1.76-2.88-2.19-4.55-.37-1.41.12-3.06-.34-4.32-1.88.2-4,1.49-5.8,1.06.78-3.74-1.12-6.42-1.52-10-.2-1.78.72-3.34.46-5.13-.29-2.07-2-3.34-2.91-5.12-1.27-2.45-.49-1.7.37-3,.49-.72,1.3-.75.75-1.84-.43-.93-3.66-1.33-2.88-3.12a1.53,1.53,0,0,1,1.9-.75c-.23-1-.72-1.7-.66-2.07.06-.86.72-.89,1-1.7a2.19,2.19,0,0,1,.17-.37l-19.45-4.21L441,445.73l43.62,9.89c-.09-1.19-.2-2.4-.34-3.52A25.13,25.13,0,0,0,481.93,444.75Z"/><path class="cls-16" d="M473.85,430.16c-1,2.37,2.06,4.79,1.14,7.15-.31.82-2.14,2.35-2.87,1.7s-.46-3.88-.24-4.76C472.25,432.76,474.12,433.19,473.85,430.16Z"/><path class="cls-17" d="M465.36,430.16c-1,2.37,2.06,4.79,1.14,7.15-.31.82-2.14,2.35-2.87,1.7s-.46-3.88-.24-4.76C463.76,432.76,465.63,433.19,465.36,430.16Z"/><path class="cls-18" d="M471.32,419.26c.47.28.49.72.5,1.3,0,1.08-.71,1.12-.91,1.87a2.87,2.87,0,0,0,.34,1.72c-1.43.82-1.25-3.16-.75-3.79C471.41,419.22,471.69,420.51,471.32,419.26Z"/><path class="cls-19" d="M464.43,420.47c.47.28.49.73.5,1.31,0,1.07-.71,1.12-.91,1.87s.12,1.06.34,1.72c-1.43.81-1.25-3.16-.75-3.79C464.52,420.43,464.81,421.73,464.43,420.47Z"/><path class="cls-20" d="M468.78,411.83c-.15,1.32,1.16,2.86.26,3.95-.29.36-1.17,1.15-1.64,1-.77-.22-.91-2.82-.4-3.36C467.67,412.71,468.81,413.37,468.78,411.83Z"/><path class="cls-21" d="M465.21,403.38c.7.26,2.85,2.46,2.18,3.58a1.63,1.63,0,0,1-2.08.33c-.82-.88-.1-1.46.28-2,.08-.11.43-.07.55-.23S466.15,403.33,465.21,403.38Z"/><path class="cls-22" d="M467.65,393.89c.16-1.38-.85-2.83-.94-4.24,0-.84.28-1.65.19-2.47-2.68-.54-1.34,1.55-.92,3.09.1.39-.05.88.07,1.25C466.24,392.11,467.05,392.3,467.65,393.89Z"/><path class="cls-23" d="M463.71,386.09c.22-1.36-2.27-3.64-3.52-2.87s1.45,4.38,1.73,5c.16.36-.25.67.37,1a1.2,1.2,0,0,0,1.16,0C464.86,388.36,463.45,386.13,463.71,386.09Z"/><path class="cls-24" d="M463.61,397.93c0,1.11-.16,2.19-.18,3.29a8.94,8.94,0,0,1,0,2.06,2.24,2.24,0,0,1-.52.05,4.82,4.82,0,0,1,.13-3.62A2.72,2.72,0,0,0,463.61,397.93Z"/><path class="cls-25" d="M469.06,398.3c.92.92,2.29,2.16,1.94,3.48-.14.51-.67.19-.32,1.14.29.77,1.18,1.1,1,2.05-.36,0-.72,0-1.07,0-.4-1.69-.05-3.88-1.18-5.28"/><path class="cls-26" d="M477,418.69c.6-.13.78.22.94.71a3,3,0,0,1,0,1.37c-.17.37-.7.42-.85.72-.4.83,1,2.09-.48,2.28-1.32.17-1.55-2.41-1.09-3.29.3-.59,1.34-.71,1.7-1.3s.38-1.67-.21-2"/><path class="cls-27" d="M476,443.5c-.06,1.51,1.51,3,1.23,4.35-.19,1-1.42.75-2.32.71a5.13,5.13,0,0,1,.77-3.33C476.05,444.58,476.49,444.08,476,443.5Z"/><path class="cls-28" d="M458.73,415.4a.57.57,0,0,0-.61.22c.08.77.88,7.41-1.28,5.74a3.25,3.25,0,0,1-.31-2.84c.38-.54,1.32-.34,1.07-1.24"/><path class="cls-29" d="M456.85,391.73c-.77,1.77.12,3.95-.65,5.83-.25.61-1.41,3-2.45,1.8-.64-.71.32-1.07.66-1.63.67-1.07.14-2.78.93-3.75"/><circle class="cls-30" cx="502.33" cy="218.29" r="27.82"/><rect class="cls-31" x="486.31" y="238.35" width="32.02" height="21.67"/><rect class="cls-32" x="486.31" y="254.2" width="32.02" height="13.26"/><polyline class="cls-33" points="506.41 254.2 506.41 215.62 515.87 215.62 515.87 227.63 502.16 227.63 488.46 227.63 488.46 215.62 497.92 215.62 497.92 254.2"/><rect class="cls-34" x="439.18" y="214.07" width="28.49" height="5.27" rx="2.63"/><rect class="cls-35" x="453.43" y="181.83" width="28.49" height="5.27" rx="2.63" transform="translate(267.41 -276.67) rotate(45)"/><rect class="cls-36" x="535.96" y="214.07" width="28.49" height="5.27" rx="2.63" transform="translate(1100.42 433.4) rotate(-180)"/><rect class="cls-37" x="521.89" y="181.83" width="28.49" height="5.27" rx="2.63" transform="translate(1045.68 -64.21) rotate(135)"/><rect class="cls-38" x="490.29" y="168.98" width="24.07" height="5.27" rx="2.63" transform="translate(673.94 -330.71) rotate(90)"/><path class="cls-39" d="M267.76,155.75q0,14.83,0,29.66a12.49,12.49,0,0,1-4.71,10,1.92,1.92,0,0,1-.42.28,28.89,28.89,0,0,1-5.93,1.68,8,8,0,0,1-3.26-.22c-3.19-.95-6.36-1.94-9.53-2.91-.46-.14-.91-.28-1.35-.44a2.69,2.69,0,0,1-1.78-3,2.84,2.84,0,0,1,3-2.45,6.16,6.16,0,0,1,1.07.31l9.33,2.88a4.77,4.77,0,0,0,2.8.06c3.17-.94,5.08-3,5.08-6.35q0-29.79,0-59.58a6.47,6.47,0,0,0-4.68-6.35q-24.09-7.22-48.16-14.53-19.53-5.9-39-11.8a6.92,6.92,0,0,0-4.36,0c-2.12.69-3.08,2.38-3.71,4.3a7.39,7.39,0,0,0-.27,2.25q0,20.08,0,40.16a5.2,5.2,0,0,1-.11,1.31,2.85,2.85,0,0,1-5.59-.66c0-.13,0-.27,0-.4V99.2a11.22,11.22,0,0,1,3.23-8.32c3.42-3.42,7.51-4.73,12.24-3.35,6,1.74,11.89,3.58,17.83,5.38q35,10.61,69.94,21.24c4.59,1.4,7.16,4.81,8.17,9.42a12.56,12.56,0,0,1,.22,2.67Q267.78,141,267.76,155.75Z"/><path class="cls-39" d="M217.33,168.09q0-16.17,0-32.35a7.5,7.5,0,1,1,15-.35c0,.22,0,.44,0,.65q0,32,0,63.88c0,.29.2.7-.32.82,0,0-.05.21-.06.33a7.43,7.43,0,0,1-4.41,6.43,3.33,3.33,0,0,1-1.36.3c-1.13,0-2.27,0-3.4,0a2.49,2.49,0,0,1-1-.21,7.51,7.51,0,0,1-4.47-6.51c0-.32,0-.64,0-1Z"/><path class="cls-39" d="M195.86,168.35q0-12.27,0-24.54a7.52,7.52,0,0,1,5.82-7.36,7.37,7.37,0,0,1,9.17,7.1q0,24.4,0,48.82c0,.14-.17.29-.23.44a1.62,1.62,0,0,0-.14.51,7.56,7.56,0,0,1-5.71,6.77,7,7,0,0,1-8.9-6.75c-.05-1.57,0-3.14,0-4.71Z"/><path class="cls-39" d="M174,168.13c0-5.34,0-10.68,0-16a7.55,7.55,0,0,1,6.05-7.48,7.39,7.39,0,0,1,8.95,7.29c0,2.06,0,4.12,0,6.18V184a7.6,7.6,0,0,1-5.68,7.49,7.34,7.34,0,0,1-9.31-6.89c-.09-3.39,0-6.79,0-10.19Z"/><path class="cls-39" d="M152.55,168.33c0-3.54,0-7.07,0-10.6a2.81,2.81,0,0,1,.22-1.07,7.48,7.48,0,0,1,7.75-4.61,7.59,7.59,0,0,1,6.6,6.51,8.17,8.17,0,0,1,.06,1.11c0,5.74,0,11.49,0,17.23a7.53,7.53,0,0,1-6,7.5,7.38,7.38,0,0,1-8.47-4.4,2.75,2.75,0,0,1-.19-1Q152.55,173.66,152.55,168.33Z"/><path d="M281.65,217.07c4.93,0,9.72-.3,14.45.09a9.6,9.6,0,0,1,8.95,7.38c1,4.48-1.07,8.49-5.36,11.34,2.34,2.62,5.76,4.94,7,8.11,2.76,7.24-2.61,14.46-10.78,15.12-4.62.37-9.29.07-14.23.07Zm4.59,37.69c8.15,1.12,13.63.13,14.9-3.54.88-2.54,1-6.57-.43-8.44-3.59-4.64-9.21-3.26-14.47-3.3Zm.09-33.51v13.9c4.89.08,10,1.1,12.73-3.78,1.08-1.92,1.18-5.67,0-7.34C296,219.73,291,221.31,286.33,221.25Z"/><path d="M163.8,229.14h4.79c2.22,8,4.42,15.83,6.61,23.7l.78,0c2.17-7,4.3-14.12,6.58-21.13a4.54,4.54,0,0,1,2.25-2.67c2-.69,3,.4,3.57,2.49,1.88,7.34,4,14.62,6.21,22.88l7-25.33H206c-2.85,9.52-5.56,18.83-8.52,28.07a3.83,3.83,0,0,1-3.11,1.89,3.94,3.94,0,0,1-2.85-2.23c-2.14-6.68-4-13.44-6.84-20.26-2.07,6.6-4.16,13.19-6.17,19.8-.55,1.8-1.23,3.42-3.45,2.76-1-.31-2.41-1.15-2.69-2C169.44,247.89,166.68,238.61,163.8,229.14Z"/><path d="M101.4,217.22c5.13,0,10.21-.48,15.16.12,6.29.75,9.84,5,10.18,11,.39,6.8-3.15,12.34-9.5,13.94-3.55.9-7.32.92-11.36,1.37V259l-4.48.38Zm4.63,21.6c5.42,0,10.9,1.15,14.4-4.08a8.34,8.34,0,0,0-.15-10.14c-3.68-4.7-9-3.28-14.25-3.43Z"/><path d="M235,245.4H214.2a9.17,9.17,0,0,0,3.27,8.67c3.42,2.94,7.58,2.73,16.24,0-.77,1.39-1.21,3.51-2.37,4-5.56,2.56-11.45,3.3-16.7-.52-6.28-4.58-6.33-11.47-5-18.15a13,13,0,0,1,10.95-10.82C230,226.78,236.35,234,235,245.4Zm-4.84-3.9c.37-5.6-2.18-8.95-6.69-9.3-4.75-.37-8.69,3.52-9,9a17.59,17.59,0,0,0,2.28.31C221.12,241.52,225.47,241.5,230.12,241.5Z"/><path d="M160.57,244c0,10-5.8,16.09-15.26,16.06-8.65,0-14.43-6.31-14.38-15.65.06-9.75,6.17-16.1,15.46-16.05C155.29,228.36,160.56,234.16,160.57,244Zm-4.73.28c0-7.56-3.59-12-9.75-12s-10.38,4.78-10.43,12,4.08,11.95,10.45,11.9S155.85,251.85,155.84,244.23Z"/><path d="M320.15,259.17H316v-42l4.11-.24Z"/><path d="M247.79,234.32c2.69-4.22,5.55-6.69,10.34-5.11v3.5c-7.61.22-10.33,2.89-10.63,10.35-.1,2.66-.05,5.33-.06,8V259l-4.3.38v-30l3.91-.29Z"/></svg>